SplineFontDB: 3.2
FontName: ToneOZ-Quicksnow-W700
FullName: ToneOZ-Quicksnow-W700
FamilyName: ToneOZ-Quicksnow-W700
Weight: Bold
Copyright: Copyright 2026 ToneOZ (https://toneoz.com)
Version: 0.260329
ItalicAngle: 0
UnderlinePosition: -100
UnderlineWidth: 50
Ascent: 800
Descent: 200
InvalidEm: 0
sfntRevision: 0x000042a5
LayerCount: 2
Layer: 0 1 "Back" 1
Layer: 1 1 "Fore" 0
XUID: [1021 933 835020959 9893]
StyleMap: 0x0040
FSType: 0
OS2Version: 4
OS2_WeightWidthSlopeOnly: 0
OS2_UseTypoMetrics: 1
CreationTime: 1774769700
ModificationTime: 1775853924
PfmFamily: 81
TTFWeight: 700
TTFWidth: 5
LineGap: 0
VLineGap: 0
Panose: 0 0 0 0 0 0 0 0 0 0
OS2TypoAscent: 1000
OS2TypoAOffset: 0
OS2TypoDescent: -250
OS2TypoDOffset: 0
OS2TypoLinegap: 0
OS2WinAscent: 1183
OS2WinAOffset: 0
OS2WinDescent: 303
OS2WinDOffset: 0
HheadAscent: 1000
HheadAOffset: 0
HheadDescent: -250
HheadDOffset: 0
OS2SubXSize: 650
OS2SubYSize: 600
OS2SubXOff: 0
OS2SubYOff: 75
OS2SupXSize: 650
OS2SupYSize: 600
OS2SupXOff: 0
OS2SupYOff: 350
OS2StrikeYSize: 50
OS2StrikeYPos: 302
OS2CapHeight: 700
OS2XHeight: 503
OS2Vendor: 'TNOZ'
OS2CodePages: 201e0193.00000000
OS2UnicodeRanges: a00000ff.4000205b.00000000.00000000
Lookup: 1 0 0 "'aalt' Access All Alternates in Latin lookup 0" { "'aalt' Access All Alternates in Latin lookup 0 subtable"  } ['aalt' ('DFLT' <'dflt' > 'latn' <'AZE ' 'CAT ' 'CRT ' 'KAZ ' 'MOL ' 'NLD ' 'ROM ' 'TAT ' 'TRK ' 'dflt' > ) ]
Lookup: 3 0 0 "'aalt' Access All Alternates in Latin lookup 1" { "'aalt' Access All Alternates in Latin lookup 1 subtable"  } ['aalt' ('DFLT' <'dflt' > 'latn' <'AZE ' 'CAT ' 'CRT ' 'KAZ ' 'MOL ' 'NLD ' 'ROM ' 'TAT ' 'TRK ' 'dflt' > ) ]
Lookup: 6 0 0 "'ccmp' Glyph Composition/Decomposition in Latin lookup 2" { "'ccmp' Glyph Composition/Decomposition in Latin lookup 2 subtable"  } ['ccmp' ('DFLT' <'dflt' > 'latn' <'AZE ' 'CAT ' 'CRT ' 'KAZ ' 'MOL ' 'NLD ' 'ROM ' 'TAT ' 'TRK ' 'dflt' > ) ]

StartChar: .notdef
Encoding: 65536 -1 0
Width: 584
Flags: W
LayerCount: 2
Fore
SplineSet
40 665 m 2,0,1
 40 700 40 700 75 700 c 2,2,-1
 509 700 l 2,3,4
 544 700 544 700 544 665 c 2,5,-1
 544 35 l 2,6,7
 544 0 544 0 509 0 c 2,8,-1
 75 0 l 2,9,10
 40 0 40 0 40 35 c 2,11,-1
 40 665 l 2,0,1
95 670 m 2,12,13
 88 670 88 670 92 664 c 2,14,-1
 508 65 l 2,15,16
 510 62 510 62 512 62.5 c 128,-1,17
 514 63 514 63 514 67 c 2,18,-1
 514 665 l 2,19,20
 514 670 514 670 509 670 c 2,21,-1
 95 670 l 2,12,13
70 35 m 2,22,23
 70 30 70 30 75 30 c 2,24,-1
 488 30 l 2,25,26
 495 30 495 30 491 36 c 2,27,-1
 76 635 l 2,28,29
 74 638 74 638 72 637.5 c 128,-1,30
 70 637 70 637 70 633 c 2,31,-1
 70 35 l 2,22,23
EndSplineSet
EndChar

StartChar: A
Encoding: 65 65 1
Width: 639
GlyphClass: 2
Flags: W
AnchorPoint: "Anchor-3" 579 10 basechar 0
AnchorPoint: "Anchor-2" 322 0 basechar 0
AnchorPoint: "Anchor-0" 322 700 basechar 0
LayerCount: 2
Fore
SplineSet
332 543 m 1,0,-1
 116 35 l 2,1,2
 109 16 109 16 94.5 5.5 c 128,-1,3
 80 -5 80 -5 63 -5 c 0,4,5
 36 -5 36 -5 23 10 c 128,-1,6
 10 25 10 25 10 47 c 0,7,8
 10 56 10 56 13 66 c 2,9,-1
 262 664 l 2,10,11
 270 684 270 684 286.5 695 c 128,-1,12
 303 706 303 706 322 704 c 0,13,14
 340 704 340 704 355.5 693.5 c 128,-1,15
 371 683 371 683 378 664 c 2,16,-1
 624 78 l 2,17,18
 629 65 629 65 629 54 c 0,19,20
 629 27 629 27 611.5 11 c 128,-1,21
 594 -5 594 -5 573 -5 c 0,22,23
 555 -5 555 -5 540.5 6 c 128,-1,24
 526 17 526 17 518 36 c 2,25,-1
 303 537 l 1,26,-1
 332 543 l 1,0,-1
147 157 m 1,27,-1
 202 272 l 1,28,-1
 472 272 l 1,29,-1
 491 157 l 1,30,-1
 147 157 l 1,27,-1
EndSplineSet
Substitution2: "Single Substitution lookup 33 subtable" ordfeminine
Substitution2: "'aalt' Access All Alternates in Latin lookup 0 subtable" ordfeminine
EndChar

StartChar: Aogonek
Encoding: 260 260 23
Width: 643
GlyphClass: 2
Flags: W
AnchorPoint: "Anchor-3" 579 10 basechar 0
AnchorPoint: "Anchor-2" 322 0 basechar 0
AnchorPoint: "Anchor-0" 322 700 basechar 0
LayerCount: 2
Fore
SplineSet
526 -207 m 0,0,1
 477 -207 477 -207 441.5 -181 c 128,-1,2
 406 -155 406 -155 406 -100 c 0,3,4
 406 -59 406 -59 424 -31.5 c 128,-1,5
 442 -4 442 -4 470 14 c 128,-1,6
 498 32 498 32 530 43.5 c 128,-1,7
 562 55 562 55 589 63 c 1,8,-1
 584 21 l 1,9,-1
 530 9 l 1,10,-1
 303 537 l 1,11,-1
 332 543 l 1,12,-1
 116 35 l 2,13,14
 109 16 109 16 94.5 5.5 c 128,-1,15
 80 -5 80 -5 63 -5 c 0,16,17
 33 -5 33 -5 22 7.5 c 128,-1,18
 11 20 11 20 11 45 c 0,19,20
 11 58 11 58 15 69 c 2,21,-1
 262 664 l 2,22,23
 270 684 270 684 286.5 695 c 128,-1,24
 303 706 303 706 322 704 c 0,25,26
 340 704 340 704 355.5 693.5 c 128,-1,27
 371 683 371 683 378 664 c 2,28,-1
 635 52 l 2,29,30
 639 44 639 44 639 35 c 0,31,32
 639 25 639 25 633 14 c 128,-1,33
 627 3 627 3 611 -2 c 0,34,35
 566 -15 566 -15 536.5 -34.5 c 128,-1,36
 507 -54 507 -54 507 -79 c 0,37,38
 507 -98 507 -98 516.5 -106 c 128,-1,39
 526 -114 526 -114 536 -114 c 0,40,41
 548 -114 548 -114 557 -102 c 256,42,43
 566 -90 566 -90 578.5 -87 c 128,-1,44
 591 -84 591 -84 598 -84 c 0,45,46
 616 -84 616 -84 629 -96.5 c 128,-1,47
 642 -109 642 -109 642 -132 c 0,48,49
 642 -148 642 -148 625.5 -165.5 c 128,-1,50
 609 -183 609 -183 582.5 -195 c 128,-1,51
 556 -207 556 -207 526 -207 c 0,0,1
166 157 m 1,52,-1
 202 272 l 1,53,-1
 472 272 l 1,54,-1
 491 157 l 1,55,-1
 166 157 l 1,52,-1
EndSplineSet
EndChar

StartChar: Aring
Encoding: 197 197 24
Width: 643
GlyphClass: 2
Flags: W
AnchorPoint: "Anchor-3" 579 10 basechar 0
AnchorPoint: "Anchor-2" 322 0 basechar 0
AnchorPoint: "Anchor-0" 322 850 basechar 0
LayerCount: 2
Fore
SplineSet
322 635 m 256,0,1
 292 635 292 635 266 650 c 128,-1,2
 240 665 240 665 224 690 c 128,-1,3
 208 715 208 715 208 744 c 0,4,5
 208 775 208 775 224 800 c 128,-1,6
 240 825 240 825 266 840 c 128,-1,7
 292 855 292 855 322 855 c 256,8,9
 352 855 352 855 378 840 c 128,-1,10
 404 825 404 825 420 800 c 128,-1,11
 436 775 436 775 436 744 c 0,12,13
 436 715 436 715 420 690 c 128,-1,14
 404 665 404 665 378 650 c 128,-1,15
 352 635 352 635 322 635 c 256,0,1
322 705 m 256,16,17
 341 705 341 705 353.5 716 c 128,-1,18
 366 727 366 727 366 744 c 0,19,20
 366 765 366 765 352.5 775 c 128,-1,21
 339 785 339 785 322 785 c 0,22,23
 303 785 303 785 290.5 774.5 c 128,-1,24
 278 764 278 764 278 744 c 0,25,26
 278 727 278 727 290.5 716 c 128,-1,27
 303 705 303 705 322 705 c 256,16,17
332 543 m 1,28,-1
 116 35 l 2,29,30
 109 16 109 16 94.5 5.5 c 128,-1,31
 80 -5 80 -5 63 -5 c 0,32,33
 36 -5 36 -5 23 10 c 128,-1,34
 10 25 10 25 10 47 c 0,35,36
 10 56 10 56 13 66 c 2,37,-1
 262 664 l 2,38,39
 270 684 270 684 286.5 695 c 128,-1,40
 303 706 303 706 322 704 c 0,41,42
 340 704 340 704 355.5 693.5 c 128,-1,43
 371 683 371 683 378 664 c 2,44,-1
 624 78 l 2,45,46
 629 65 629 65 629 54 c 0,47,48
 629 27 629 27 611.5 11 c 128,-1,49
 594 -5 594 -5 573 -5 c 0,50,51
 555 -5 555 -5 540.5 6 c 128,-1,52
 526 17 526 17 518 36 c 2,53,-1
 303 537 l 1,54,-1
 332 543 l 1,28,-1
147 157 m 1,55,-1
 202 272 l 1,56,-1
 472 272 l 1,57,-1
 491 157 l 1,58,-1
 147 157 l 1,55,-1
EndSplineSet
EndChar

StartChar: AE
Encoding: 198 198 27
Width: 884
GlyphClass: 2
Flags: W
AnchorPoint: "Anchor-2" 455 0 basechar 0
AnchorPoint: "Anchor-0" 596 700 basechar 0
LayerCount: 2
Fore
SplineSet
197 256 m 1,0,-1
 425 256 l 1,1,-1
 407 218 l 1,2,-1
 407 507 l 1,3,-1
 428 501 l 1,4,-1
 103 19 l 2,5,6
 85 -5 85 -5 60 -5 c 0,7,8
 41 -5 41 -5 23.5 9 c 128,-1,9
 6 23 6 23 4 48 c 0,10,11
 3 68 3 68 17 89 c 2,12,-1
 425 674 l 2,13,14
 436 689 436 689 450.5 694.5 c 128,-1,15
 465 700 465 700 481 700 c 2,16,-1
 783 700 l 2,17,18
 809 700 809 700 826.5 683.5 c 128,-1,19
 844 667 844 667 844 641 c 0,20,21
 844 616 844 616 826.5 600.5 c 128,-1,22
 809 585 809 585 783 585 c 2,23,-1
 522 585 l 1,24,-1
 532 594 l 1,25,-1
 532 391 l 1,26,-1
 523 410 l 1,27,-1
 738 410 l 2,28,29
 764 410 764 410 781.5 393.5 c 128,-1,30
 799 377 799 377 799 351 c 0,31,32
 799 326 799 326 781.5 310.5 c 128,-1,33
 764 295 764 295 738 295 c 2,34,-1
 522 295 l 1,35,-1
 532 310 l 1,36,-1
 532 89 l 1,37,-1
 522 115 l 1,38,-1
 783 115 l 2,39,40
 809 115 809 115 826.5 97.5 c 128,-1,41
 844 80 844 80 844 57 c 0,42,43
 844 32 844 32 826.5 16 c 128,-1,44
 809 0 809 0 783 0 c 2,45,-1
 468 0 l 2,46,47
 442 0 442 0 424.5 17.5 c 128,-1,48
 407 35 407 35 407 61 c 2,49,-1
 407 156 l 1,50,-1
 432 143 l 1,51,-1
 138 143 l 1,52,-1
 197 256 l 1,0,-1
EndSplineSet
EndChar

StartChar: B
Encoding: 66 66 29
Width: 655
GlyphClass: 2
Flags: W
AnchorPoint: "Anchor-2" 328 0 basechar 0
AnchorPoint: "Anchor-0" 328 700 basechar 0
LayerCount: 2
Fore
SplineSet
388 700 m 2,0,1
 484 700 484 700 531 655 c 128,-1,2
 578 610 578 610 578 522 c 0,3,4
 578 475 578 475 555 439.5 c 128,-1,5
 532 404 532 404 487 384.5 c 128,-1,6
 442 365 442 365 376 365 c 1,7,-1
 380 410 l 1,8,9
 411 410 411 410 451 401.5 c 128,-1,10
 491 393 491 393 528.5 371.5 c 128,-1,11
 566 350 566 350 590.5 311.5 c 128,-1,12
 615 273 615 273 615 213 c 0,13,14
 615 147 615 147 593.5 105 c 128,-1,15
 572 63 572 63 537 40 c 128,-1,16
 502 17 502 17 462 8.5 c 128,-1,17
 422 0 422 0 385 0 c 2,18,-1
 136 0 l 2,19,20
 110 0 110 0 92.5 17.5 c 128,-1,21
 75 35 75 35 75 61 c 2,22,-1
 75 639 l 2,23,24
 75 665 75 665 92.5 682.5 c 128,-1,25
 110 700 110 700 136 700 c 2,26,-1
 388 700 l 2,0,1
370 582 m 2,27,-1
 205 582 l 1,28,-1
 205 426 l 1,29,-1
 373 426 l 2,30,31
 402 426 402 426 425 445 c 128,-1,32
 448 464 448 464 448 500 c 0,33,34
 448 543 448 543 426.5 562.5 c 128,-1,35
 405 582 405 582 370 582 c 2,27,-1
378 308 m 2,36,-1
 205 308 l 1,37,-1
 205 105 l 1,38,-1
 195 115 l 1,39,-1
 385 115 l 2,40,41
 431 115 431 115 458 139.5 c 128,-1,42
 485 164 485 164 485 213 c 0,43,44
 485 258 485 258 467 278 c 128,-1,45
 449 298 449 298 424 303 c 128,-1,46
 399 308 399 308 378 308 c 2,36,-1
EndSplineSet
EndChar

StartChar: C
Encoding: 67 67 30
Width: 627
GlyphClass: 2
Flags: W
AnchorPoint: "Anchor-2" 384 0 basechar 0
AnchorPoint: "Anchor-0" 364 700 basechar 0
LayerCount: 2
Fore
SplineSet
565 666 m 0,0,1
 591 653 591 653 595.5 625 c 128,-1,2
 600 597 600 597 581 574 c 0,3,4
 568 556 568 556 547.5 554 c 128,-1,5
 527 552 527 552 506 562 c 0,6,7
 482 573 482 573 455.5 579 c 128,-1,8
 429 585 429 585 400 585 c 0,9,10
 346 585 346 585 303.5 568 c 128,-1,11
 261 551 261 551 231 519.5 c 128,-1,12
 201 488 201 488 185.5 445 c 128,-1,13
 170 402 170 402 170 350 c 0,14,15
 170 289 170 289 187.5 244 c 128,-1,16
 205 199 205 199 236 169 c 128,-1,17
 267 139 267 139 309 124.5 c 128,-1,18
 351 110 351 110 400 110 c 0,19,20
 427 110 427 110 454 115 c 128,-1,21
 481 120 481 120 506 133 c 0,22,23
 527 143 527 143 547.5 140 c 128,-1,24
 568 137 568 137 582 119 c 0,25,26
 602 94 602 94 596.5 67.5 c 128,-1,27
 591 41 591 41 566 29 c 0,28,29
 540 16 540 16 512.5 7.5 c 128,-1,30
 485 -1 485 -1 457 -5.5 c 128,-1,31
 429 -10 429 -10 400 -10 c 0,32,33
 328 -10 328 -10 263.5 13 c 128,-1,34
 199 36 199 36 148.5 81 c 128,-1,35
 98 126 98 126 69 193.5 c 128,-1,36
 40 261 40 261 40 350 c 0,37,38
 40 427 40 427 66.5 492 c 128,-1,39
 93 557 93 557 141.5 604.5 c 128,-1,40
 190 652 190 652 256 678.5 c 128,-1,41
 322 705 322 705 400 705 c 0,42,43
 444 705 444 705 486 695 c 128,-1,44
 528 685 528 685 565 666 c 0,0,1
EndSplineSet
EndChar

StartChar: D
Encoding: 68 68 37
Width: 715
GlyphClass: 2
Flags: W
AnchorPoint: "Anchor-4" 134 350 basechar 0
AnchorPoint: "Anchor-2" 318 0 basechar 0
AnchorPoint: "Anchor-0" 308 700 basechar 0
LayerCount: 2
Fore
SplineSet
375 700 m 2,0,1
 447 700 447 700 503 673 c 128,-1,2
 559 646 559 646 597.5 597.5 c 128,-1,3
 636 549 636 549 655.5 485.5 c 128,-1,4
 675 422 675 422 675 350 c 0,5,6
 675 253 675 253 640 173.5 c 128,-1,7
 605 94 605 94 538.5 47 c 128,-1,8
 472 0 472 0 375 0 c 2,9,-1
 136 0 l 2,10,11
 110 0 110 0 92.5 17.5 c 128,-1,12
 75 35 75 35 75 61 c 2,13,-1
 75 639 l 2,14,15
 75 665 75 665 92.5 682.5 c 128,-1,16
 110 700 110 700 136 700 c 2,17,-1
 375 700 l 2,0,1
365 115 m 2,18,19
 428 115 428 115 468 147.5 c 128,-1,20
 508 180 508 180 526.5 233.5 c 128,-1,21
 545 287 545 287 545 350 c 0,22,23
 545 397 545 397 534.5 439.5 c 128,-1,24
 524 482 524 482 502 514.5 c 128,-1,25
 480 547 480 547 446 566 c 128,-1,26
 412 585 412 585 365 585 c 2,27,-1
 200 585 l 1,28,-1
 200 104 l 1,29,-1
 194 115 l 1,30,-1
 365 115 l 2,18,19
EndSplineSet
EndChar

StartChar: E
Encoding: 69 69 47
Width: 572
GlyphClass: 2
Flags: W
AnchorPoint: "Anchor-3" 425 10 basechar 0
AnchorPoint: "Anchor-2" 286 0 basechar 0
AnchorPoint: "Anchor-0" 306 700 basechar 0
LayerCount: 2
Fore
SplineSet
136 700 m 2,0,-1
 471 700 l 2,1,2
 497 700 497 700 514.5 683.5 c 128,-1,3
 532 667 532 667 532 641 c 0,4,5
 532 616 532 616 514.5 600.5 c 128,-1,6
 497 585 497 585 471 585 c 2,7,-1
 191 585 l 1,8,-1
 200 602 l 1,9,-1
 200 407 l 1,10,-1
 192 415 l 1,11,-1
 426 415 l 2,12,13
 452 415 452 415 469.5 398.5 c 128,-1,14
 487 382 487 382 487 356 c 0,15,16
 487 331 487 331 469.5 315.5 c 128,-1,17
 452 300 452 300 426 300 c 2,18,-1
 195 300 l 1,19,-1
 200 308 l 1,20,-1
 200 106 l 1,21,-1
 192 115 l 1,22,-1
 471 115 l 2,23,24
 497 115 497 115 514.5 97.5 c 128,-1,25
 532 80 532 80 532 57 c 0,26,27
 532 32 532 32 514.5 16 c 128,-1,28
 497 0 497 0 471 0 c 2,29,-1
 136 0 l 2,30,31
 110 0 110 0 92.5 17.5 c 128,-1,32
 75 35 75 35 75 61 c 2,33,-1
 75 639 l 2,34,35
 75 665 75 665 92.5 682.5 c 128,-1,36
 110 700 110 700 136 700 c 2,0,-1
EndSplineSet
EndChar

StartChar: Eogonek
Encoding: 280 280 68
Width: 572
GlyphClass: 2
Flags: W
AnchorPoint: "Anchor-3" 425 10 basechar 0
AnchorPoint: "Anchor-2" 286 0 basechar 0
AnchorPoint: "Anchor-0" 289 700 basechar 0
LayerCount: 2
Fore
SplineSet
392 -207 m 0,0,1
 343 -207 343 -207 307.5 -181 c 128,-1,2
 272 -155 272 -155 272 -100 c 0,3,4
 272 -66 272 -66 290.5 -40.5 c 128,-1,5
 309 -15 309 -15 338.5 4 c 128,-1,6
 368 23 368 23 401.5 35.5 c 128,-1,7
 435 48 435 48 465 56 c 1,8,-1
 457 0 l 1,9,-1
 136 0 l 2,10,11
 110 0 110 0 92.5 17.5 c 128,-1,12
 75 35 75 35 75 61 c 2,13,-1
 75 639 l 2,14,15
 75 665 75 665 92.5 682.5 c 128,-1,16
 110 700 110 700 136 700 c 2,17,-1
 471 700 l 2,18,19
 497 700 497 700 514.5 683.5 c 128,-1,20
 532 667 532 667 532 641 c 0,21,22
 532 620 532 620 514.5 603 c 128,-1,23
 497 586 497 586 471 586 c 2,24,-1
 191 586 l 1,25,-1
 200 603 l 1,26,-1
 200 407 l 1,27,-1
 192 415 l 1,28,-1
 426 415 l 2,29,30
 452 415 452 415 469.5 398.5 c 128,-1,31
 487 382 487 382 487 356 c 0,32,33
 487 336 487 336 469.5 318 c 128,-1,34
 452 300 452 300 426 300 c 2,35,-1
 195 300 l 1,36,-1
 200 308 l 1,37,-1
 200 106 l 1,38,-1
 192 115 l 1,39,-1
 471 115 l 2,40,41
 497 115 497 115 514.5 99.5 c 128,-1,42
 532 84 532 84 532 57 c 0,43,44
 532 32 532 32 515.5 19 c 128,-1,45
 499 6 499 6 473 0 c 0,46,47
 443 -7 443 -7 420 -19 c 128,-1,48
 397 -31 397 -31 384 -46 c 128,-1,49
 371 -61 371 -61 371 -78 c 0,50,51
 371 -96 371 -96 380.5 -105 c 128,-1,52
 390 -114 390 -114 402 -114 c 256,53,54
 414 -114 414 -114 423 -102 c 256,55,56
 432 -90 432 -90 444.5 -87 c 128,-1,57
 457 -84 457 -84 464 -84 c 0,58,59
 482 -84 482 -84 495 -96.5 c 128,-1,60
 508 -109 508 -109 508 -132 c 0,61,62
 508 -148 508 -148 491.5 -165.5 c 128,-1,63
 475 -183 475 -183 448.5 -195 c 128,-1,64
 422 -207 422 -207 392 -207 c 0,0,1
EndSplineSet
EndChar

StartChar: F
Encoding: 70 70 70
Width: 562
GlyphClass: 2
Flags: W
AnchorPoint: "Anchor-4" 132 186 basechar 0
AnchorPoint: "Anchor-2" 281 0 basechar 0
AnchorPoint: "Anchor-0" 281 700 basechar 0
LayerCount: 2
Fore
SplineSet
138 0 m 0,0,1
 110 0 110 0 92.5 17.5 c 128,-1,2
 75 35 75 35 75 61 c 2,3,-1
 75 639 l 2,4,5
 75 665 75 665 92.5 682.5 c 128,-1,6
 110 700 110 700 136 700 c 2,7,-1
 461 700 l 2,8,9
 487 700 487 700 504.5 683.5 c 128,-1,10
 522 667 522 667 522 641 c 0,11,12
 522 619 522 619 504.5 602 c 128,-1,13
 487 585 487 585 461 585 c 2,14,-1
 191 585 l 1,15,-1
 200 597 l 1,16,-1
 200 396 l 1,17,-1
 193 409 l 1,18,-1
 416 409 l 2,19,20
 442 409 442 409 459.5 392.5 c 128,-1,21
 477 376 477 376 477 350 c 0,22,23
 477 328 477 328 459.5 311 c 128,-1,24
 442 294 442 294 416 294 c 2,25,-1
 191 294 l 1,26,-1
 200 303 l 1,27,-1
 200 61 l 2,28,29
 200 35 200 35 181.5 17.5 c 128,-1,30
 163 0 163 0 138 0 c 0,0,1
EndSplineSet
EndChar

StartChar: G
Encoding: 71 71 71
Width: 696
GlyphClass: 2
Flags: W
AnchorPoint: "Anchor-2" 402 0 basechar 0
AnchorPoint: "Anchor-0" 388 700 basechar 0
LayerCount: 2
Fore
SplineSet
405 -10 m 0,0,1
 329 -10 329 -10 263 18 c 128,-1,2
 197 46 197 46 147 95.5 c 128,-1,3
 97 145 97 145 68.5 210 c 128,-1,4
 40 275 40 275 40 350 c 256,5,6
 40 425 40 425 68.5 490 c 128,-1,7
 97 555 97 555 147 604.5 c 128,-1,8
 197 654 197 654 263 682 c 128,-1,9
 329 710 329 710 405 710 c 0,10,11
 452 710 452 710 496 700 c 128,-1,12
 540 690 540 690 577 670 c 0,13,14
 592 662 592 662 599.5 648.5 c 128,-1,15
 607 635 607 635 607 621 c 0,16,17
 607 597 607 597 591 578 c 128,-1,18
 575 559 575 559 550 559 c 0,19,20
 542 559 542 559 533.5 561 c 128,-1,21
 525 563 525 563 517 567 c 0,22,23
 492 578 492 578 464 584 c 128,-1,24
 436 590 436 590 405 590 c 0,25,26
 340 590 340 590 286.5 557.5 c 128,-1,27
 233 525 233 525 201.5 470.5 c 128,-1,28
 170 416 170 416 170 350 c 0,29,30
 170 285 170 285 201.5 230 c 128,-1,31
 233 175 233 175 286.5 142.5 c 128,-1,32
 340 110 340 110 405 110 c 0,33,34
 435 110 435 110 471 116 c 128,-1,35
 507 122 507 122 530 132 c 1,36,-1
 521 102 l 1,37,-1
 521 273 l 1,38,-1
 538 258 l 1,39,-1
 427 258 l 2,40,41
 401 258 401 258 383.5 275 c 128,-1,42
 366 292 366 292 366 318 c 256,43,44
 366 344 366 344 383.5 361 c 128,-1,45
 401 378 401 378 427 378 c 2,46,-1
 591 378 l 2,47,48
 617 378 617 378 634 360.5 c 128,-1,49
 651 343 651 343 651 317 c 2,50,-1
 651 105 l 2,51,52
 651 85 651 85 641.5 72 c 128,-1,53
 632 59 632 59 620 51 c 0,54,55
 574 23 574 23 519.5 6.5 c 128,-1,56
 465 -10 465 -10 405 -10 c 0,0,1
EndSplineSet
EndChar

StartChar: H
Encoding: 72 72 78
Width: 719
GlyphClass: 2
Flags: W
AnchorPoint: "Anchor-4" 360 350 basechar 0
AnchorPoint: "Anchor-2" 360 0 basechar 0
AnchorPoint: "Anchor-0" 360 700 basechar 0
LayerCount: 2
Fore
SplineSet
200 254 m 2,0,-1
 200 61 l 2,1,2
 200 35 200 35 181 17.5 c 128,-1,3
 162 0 162 0 137 0 c 0,4,5
 109 0 109 0 92 17.5 c 128,-1,6
 75 35 75 35 75 61 c 2,7,-1
 75 639 l 2,8,9
 75 665 75 665 93 682.5 c 128,-1,10
 111 700 111 700 139 700 c 0,11,12
 163 700 163 700 181.5 682.5 c 128,-1,13
 200 665 200 665 200 639 c 2,14,-1
 200 458 l 1,15,-1
 201 409 l 1,16,-1
 582 409 l 1,17,-1
 582 294 l 1,18,-1
 200 294 l 1,19,20
 200 294 200 294 200 254 c 2,0,-1
582 700 m 0,21,22
 610 700 610 700 627 682.5 c 128,-1,23
 644 665 644 665 644 639 c 2,24,-1
 644 61 l 2,25,26
 644 35 644 35 626.5 17.5 c 128,-1,27
 609 0 609 0 580 0 c 0,28,29
 556 0 556 0 537.5 17.5 c 128,-1,30
 519 35 519 35 519 61 c 2,31,-1
 519 639 l 2,32,33
 519 665 519 665 538 682.5 c 128,-1,34
 557 700 557 700 582 700 c 0,21,22
EndSplineSet
EndChar

StartChar: Hbar
Encoding: 294 294 79
Width: 805
GlyphClass: 2
Flags: W
AnchorPoint: "Anchor-4" 403 350 basechar 0
AnchorPoint: "Anchor-2" 403 0 basechar 0
AnchorPoint: "Anchor-0" 403 700 basechar 0
LayerCount: 2
Fore
SplineSet
91 490 m 2,0,1
 69 490 69 490 54.5 504.5 c 128,-1,2
 40 519 40 519 40 541 c 0,3,4
 40 562 40 562 54.5 576 c 128,-1,5
 69 590 69 590 91 590 c 2,6,-1
 714 590 l 2,7,8
 737 590 737 590 751 576 c 128,-1,9
 765 562 765 562 765 539 c 0,10,11
 765 518 765 518 751 504 c 128,-1,12
 737 490 737 490 714 490 c 2,13,-1
 91 490 l 2,0,1
182 700 m 0,14,15
 206 700 206 700 224.5 682.5 c 128,-1,16
 243 665 243 665 243 639 c 2,17,-1
 243 61 l 2,18,19
 243 35 243 35 224 17.5 c 128,-1,20
 205 0 205 0 180 0 c 0,21,22
 152 0 152 0 135 17.5 c 128,-1,23
 118 35 118 35 118 61 c 2,24,-1
 118 639 l 2,25,26
 118 665 118 665 136 682.5 c 128,-1,27
 154 700 154 700 182 700 c 0,14,15
625 700 m 0,28,29
 653 700 653 700 670 682.5 c 128,-1,30
 687 665 687 665 687 639 c 2,31,-1
 687 61 l 2,32,33
 687 35 687 35 669.5 17.5 c 128,-1,34
 652 0 652 0 623 0 c 0,35,36
 599 0 599 0 580.5 17.5 c 128,-1,37
 562 35 562 35 562 61 c 2,38,-1
 562 639 l 2,39,40
 562 665 562 665 581 682.5 c 128,-1,41
 600 700 600 700 625 700 c 0,28,29
179 409 m 1,42,-1
 625 409 l 1,43,-1
 625 294 l 1,44,-1
 179 294 l 1,45,-1
 179 409 l 1,42,-1
EndSplineSet
EndChar

StartChar: I
Encoding: 73 73 83
Width: 395
GlyphClass: 2
Flags: W
AnchorPoint: "Anchor-3" 392 10 basechar 0
AnchorPoint: "Anchor-2" 197 0 basechar 0
AnchorPoint: "Anchor-0" 199 700 basechar 0
LayerCount: 2
Fore
SplineSet
90 0 m 2,0,1
 64 0 64 0 46.5 17 c 128,-1,2
 29 34 29 34 29 60 c 256,3,4
 29 86 29 86 46.5 102.5 c 128,-1,5
 64 119 64 119 90 119 c 2,6,-1
 304 119 l 2,7,8
 329 119 329 119 347 101.5 c 128,-1,9
 365 84 365 84 365 58 c 0,10,11
 365 33 365 33 347 16.5 c 128,-1,12
 329 0 329 0 304 0 c 2,13,-1
 90 0 l 2,0,1
90 581 m 2,14,15
 64 581 64 581 46.5 598 c 128,-1,16
 29 615 29 615 29 641 c 256,17,18
 29 667 29 667 46.5 683.5 c 128,-1,19
 64 700 64 700 90 700 c 2,20,-1
 304 700 l 2,21,22
 329 700 329 700 347 682.5 c 128,-1,23
 365 665 365 665 365 639 c 0,24,25
 365 614 365 614 347 597.5 c 128,-1,26
 329 581 329 581 304 581 c 2,27,-1
 90 581 l 2,14,15
260 81 m 2,28,29
 260 55 260 55 241 37.5 c 128,-1,30
 222 20 222 20 197 20 c 0,31,32
 169 20 169 20 152 37.5 c 128,-1,33
 135 55 135 55 135 81 c 2,34,-1
 135 619 l 2,35,36
 135 645 135 645 153 662.5 c 128,-1,37
 171 680 171 680 199 680 c 0,38,39
 223 680 223 680 241.5 662.5 c 128,-1,40
 260 645 260 645 260 619 c 2,41,-1
 260 81 l 2,28,29
EndSplineSet
EndChar

StartChar: IJ
Encoding: 306 306 84
Width: 587
GlyphClass: 2
Flags: W
AnchorPoint: "Anchor-3" 7 10 basechar 0
AnchorPoint: "Anchor-2" -105 239 basechar 0
AnchorPoint: "Anchor-0" -105 700 basechar 0
LayerCount: 2
Fore
SplineSet
206 315 m 2,0,1
 206 289 206 289 187 271.5 c 128,-1,2
 168 254 168 254 143 254 c 0,3,4
 115 254 115 254 98 271.5 c 128,-1,5
 81 289 81 289 81 315 c 2,6,-1
 81 639 l 2,7,8
 81 665 81 665 99 682.5 c 128,-1,9
 117 700 117 700 145 700 c 0,10,11
 169 700 169 700 187.5 682.5 c 128,-1,12
 206 665 206 665 206 639 c 2,13,-1
 206 315 l 2,0,1
273 -10 m 0,14,15
 216 -10 216 -10 167 13 c 128,-1,16
 118 36 118 36 87 79 c 0,17,18
 75 97 75 97 75 114 c 0,19,20
 75 139 75 139 94.5 156 c 128,-1,21
 114 173 114 173 133 173 c 0,22,23
 148 173 148 173 162.5 164 c 128,-1,24
 177 155 177 155 189 143 c 0,25,26
 209 125 209 125 228.5 117.5 c 128,-1,27
 248 110 248 110 273 110 c 0,28,29
 303 110 303 110 329 125 c 128,-1,30
 355 140 355 140 371 165 c 128,-1,31
 387 190 387 190 387 219 c 2,32,-1
 387 639 l 2,33,34
 387 665 387 665 406 682.5 c 128,-1,35
 425 700 425 700 450 700 c 0,36,37
 478 700 478 700 495 682.5 c 128,-1,38
 512 665 512 665 512 639 c 2,39,-1
 512 219 l 2,40,41
 512 158 512 158 480 106 c 128,-1,42
 448 54 448 54 394 22 c 128,-1,43
 340 -10 340 -10 273 -10 c 0,14,15
EndSplineSet
EndChar

StartChar: Iogonek
Encoding: 302 302 98
Width: 395
GlyphClass: 2
Flags: W
AnchorPoint: "Anchor-3" 392 10 basechar 0
AnchorPoint: "Anchor-2" 200 0 basechar 0
AnchorPoint: "Anchor-0" 200 700 basechar 0
LayerCount: 2
Fore
SplineSet
90 0 m 2,0,1
 64 0 64 0 46.5 17 c 128,-1,2
 29 34 29 34 29 60 c 256,3,4
 29 86 29 86 46.5 102.5 c 128,-1,5
 64 119 64 119 90 119 c 2,6,-1
 304 119 l 2,7,8
 329 119 329 119 347 101.5 c 128,-1,9
 365 84 365 84 365 58 c 0,10,11
 365 33 365 33 347 16.5 c 128,-1,12
 329 0 329 0 304 0 c 2,13,-1
 90 0 l 2,0,1
90 581 m 2,14,15
 64 581 64 581 46.5 598 c 128,-1,16
 29 615 29 615 29 641 c 256,17,18
 29 667 29 667 46.5 683.5 c 128,-1,19
 64 700 64 700 90 700 c 2,20,-1
 304 700 l 2,21,22
 329 700 329 700 347 682.5 c 128,-1,23
 365 665 365 665 365 639 c 0,24,25
 365 614 365 614 347 597.5 c 128,-1,26
 329 581 329 581 304 581 c 2,27,-1
 90 581 l 2,14,15
151 -207 m 0,28,29
 102 -207 102 -207 66.5 -181 c 128,-1,30
 31 -155 31 -155 31 -100 c 0,31,32
 31 -59 31 -59 48 -31.5 c 128,-1,33
 65 -4 65 -4 92.5 14 c 128,-1,34
 120 32 120 32 152 43.5 c 128,-1,35
 184 55 184 55 214 63 c 1,36,-1
 196 0 l 1,37,-1
 132 34 l 1,38,-1
 132 619 l 2,39,40
 132 645 132 645 151 662.5 c 128,-1,41
 170 680 170 680 198 680 c 256,42,43
 226 680 226 680 244 662.5 c 128,-1,44
 262 645 262 645 262 619 c 2,45,-1
 262 35 l 2,46,47
 262 25 262 25 257 14 c 128,-1,48
 252 3 252 3 236 -2 c 0,49,50
 191 -15 191 -15 160.5 -34 c 128,-1,51
 130 -53 130 -53 130 -78 c 0,52,53
 130 -96 130 -96 139.5 -105 c 128,-1,54
 149 -114 149 -114 161 -114 c 0,55,56
 172 -114 172 -114 180 -106.5 c 128,-1,57
 188 -99 188 -99 198 -91.5 c 128,-1,58
 208 -84 208 -84 223 -84 c 0,59,60
 241 -84 241 -84 254 -96.5 c 128,-1,61
 267 -109 267 -109 267 -132 c 0,62,63
 267 -148 267 -148 250.5 -165.5 c 128,-1,64
 234 -183 234 -183 207.5 -195 c 128,-1,65
 181 -207 181 -207 151 -207 c 0,28,29
EndSplineSet
EndChar

StartChar: J
Encoding: 74 74 100
Width: 582
GlyphClass: 2
Flags: W
AnchorPoint: "Anchor-2" 206 0 basechar 0
AnchorPoint: "Anchor-0" 345 700 basechar 0
LayerCount: 2
Fore
SplineSet
492 581 m 2,0,-1
 407 581 l 1,1,-1
 407 219 l 2,2,3
 407 158 407 158 375 106 c 128,-1,4
 343 54 343 54 289 22 c 128,-1,5
 235 -10 235 -10 188 -10 c 0,6,7
 131 -10 131 -10 82 13 c 0,8,9
 55 26 55 26 47 41 c 0,10,11
 34 63 34 63 41 87 c 0,12,13
 47 110 47 110 68 122 c 0,14,15
 77 126 77 126 109 125 c 0,16,17
 129 124 129 124 144 118 c 0,18,19
 164 110 164 110 188 110 c 0,20,21
 198 110 198 110 224 125 c 128,-1,22
 250 140 250 140 266 165 c 128,-1,23
 282 190 282 190 282 219 c 2,24,-1
 282 581 l 1,25,-1
 198 581 l 2,26,27
 172 581 172 581 154.5 598 c 128,-1,28
 137 615 137 615 137 641 c 256,29,30
 137 667 137 667 154.5 683.5 c 128,-1,31
 172 700 172 700 198 700 c 2,32,-1
 492 700 l 2,33,34
 517 700 517 700 535 682.5 c 128,-1,35
 553 665 553 665 553 639 c 0,36,37
 553 614 553 614 535 597.5 c 128,-1,38
 517 581 517 581 492 581 c 2,0,-1
EndSplineSet
Substitution2: "Single Substitution lookup 21 subtable" uni004A0301
Substitution2: "'aalt' Access All Alternates in Latin lookup 0 subtable" uni004A0301
EndChar

StartChar: K
Encoding: 75 75 103
Width: 655
GlyphClass: 2
Flags: W
AnchorPoint: "Anchor-2" 328 0 basechar 0
AnchorPoint: "Anchor-0" 328 700 basechar 0
LayerCount: 2
Fore
SplineSet
557 0 m 0,0,1
 529 0 529 0 512 23 c 1,2,-1
 164 327 l 1,3,-1
 255 420 l 1,4,-1
 611 104 l 1,5,6
 625 85 625 85 625 63 c 0,7,8
 625 35 625 35 604 17.5 c 128,-1,9
 583 0 583 0 557 0 c 0,0,1
569 705 m 0,10,11
 593 705 593 705 608.5 685.5 c 128,-1,12
 624 666 624 666 624 646 c 0,13,14
 624 625 624 625 606 607 c 2,15,-1
 248 302 l 1,16,-1
 187 330 l 1,17,-1
 182 393 l 1,18,-1
 520 682 l 2,19,20
 543 705 543 705 569 705 c 0,10,11
137 0 m 0,21,22
 109 0 109 0 92 17.5 c 128,-1,23
 75 35 75 35 75 61 c 2,24,-1
 75 639 l 2,25,26
 75 665 75 665 93 682.5 c 128,-1,27
 111 700 111 700 139 700 c 256,28,29
 167 700 167 700 183.5 682.5 c 128,-1,30
 200 665 200 665 200 639 c 2,31,-1
 200 61 l 2,32,33
 200 35 200 35 183 17.5 c 128,-1,34
 166 0 166 0 137 0 c 0,21,22
EndSplineSet
EndChar

StartChar: L
Encoding: 76 76 105
Width: 562
GlyphClass: 2
Flags: W
AnchorPoint: "Anchor-4" 281 350 basechar 0
AnchorPoint: "Anchor-2" 281 0 basechar 0
AnchorPoint: "Anchor-1" 542 700 basechar 0
AnchorPoint: "Anchor-0" 131 700 basechar 0
LayerCount: 2
Fore
SplineSet
461 117 m 2,0,1
 487 117 487 117 504.5 100.5 c 128,-1,2
 522 84 522 84 522 58 c 0,3,4
 522 33 522 33 504.5 16.5 c 128,-1,5
 487 0 487 0 461 0 c 2,6,-1
 136 0 l 2,7,8
 110 0 110 0 92.5 17.5 c 128,-1,9
 75 35 75 35 75 61 c 2,10,-1
 75 639 l 2,11,12
 75 665 75 665 93 682.5 c 128,-1,13
 111 700 111 700 139 700 c 0,14,15
 163 700 163 700 181.5 682.5 c 128,-1,16
 200 665 200 665 200 639 c 2,17,-1
 200 100 l 1,18,-1
 178 117 l 1,19,-1
 461 117 l 2,0,1
EndSplineSet
EndChar

StartChar: Lslash
Encoding: 321 321 115
Width: 633
Flags: W
LayerCount: 2
Fore
SplineSet
86 270 m 0,0,1
 60 270 60 270 47.5 288.5 c 128,-1,2
 35 307 35 307 35 323 c 0,3,4
 35 353 35 353 67 367 c 2,5,-1
 361 497 l 2,6,7
 373 502 373 502 383 502 c 0,8,9
 408 502 408 502 420.5 484 c 128,-1,10
 433 466 433 466 433 450 c 0,11,12
 433 419 433 419 401 405 c 2,13,-1
 107 275 l 2,14,15
 102 273 102 273 96.5 271.5 c 128,-1,16
 91 270 91 270 86 270 c 0,0,1
266 109 m 1,17,-1
 260 120 l 1,18,-1
 532 120 l 2,19,20
 558 120 558 120 575.5 102.5 c 128,-1,21
 593 85 593 85 593 59 c 0,22,23
 593 34 593 34 575.5 17 c 128,-1,24
 558 0 558 0 532 0 c 2,25,-1
 207 0 l 2,26,27
 181 0 181 0 163.5 17.5 c 128,-1,28
 146 35 146 35 146 61 c 2,29,-1
 146 639 l 2,30,31
 146 665 146 665 163.5 682.5 c 128,-1,32
 181 700 181 700 207 700 c 256,33,34
 233 700 233 700 249.5 682.5 c 128,-1,35
 266 665 266 665 266 639 c 2,36,-1
 266 109 l 1,17,-1
EndSplineSet
EndChar

StartChar: M
Encoding: 77 77 116
Width: 819
GlyphClass: 2
Flags: W
AnchorPoint: "Anchor-2" 410 0 basechar 0
AnchorPoint: "Anchor-0" 410 700 basechar 0
LayerCount: 2
Fore
SplineSet
138 701 m 0,0,1
 152 701 152 701 167.5 693.5 c 128,-1,2
 183 686 183 686 191 674 c 2,3,-1
 434 300 l 1,4,-1
 384 302 l 1,5,-1
 633 674 l 2,6,7
 652 701 652 701 682 701 c 0,8,9
 706 701 706 701 725 684 c 128,-1,10
 744 667 744 667 744 640 c 2,11,-1
 744 61 l 2,12,13
 744 35 744 35 727 17.5 c 128,-1,14
 710 0 710 0 682 0 c 256,15,16
 654 0 654 0 636.5 17.5 c 128,-1,17
 619 35 619 35 619 61 c 2,18,-1
 619 532 l 1,19,-1
 658 523 l 1,20,-1
 454 212 l 2,21,22
 445 201 445 201 431.5 193 c 128,-1,23
 418 185 418 185 404 186 c 0,24,25
 391 185 391 185 377.5 193 c 128,-1,26
 364 201 364 201 355 212 c 2,27,-1
 164 514 l 1,28,-1
 190 567 l 1,29,-1
 190 61 l 2,30,31
 190 35 190 35 174 17.5 c 128,-1,32
 158 0 158 0 132 0 c 0,33,34
 107 0 107 0 91 17.5 c 128,-1,35
 75 35 75 35 75 61 c 2,36,-1
 75 640 l 2,37,38
 75 665 75 665 93.5 683 c 128,-1,39
 112 701 112 701 138 701 c 0,0,1
EndSplineSet
EndChar

StartChar: N
Encoding: 78 78 118
Width: 735
GlyphClass: 2
Flags: W
AnchorPoint: "Anchor-2" 368 0 basechar 0
AnchorPoint: "Anchor-0" 368 700 basechar 0
LayerCount: 2
Fore
SplineSet
606 700 m 0,0,1
 630 700 630 700 645 684 c 128,-1,2
 660 668 660 668 660 644 c 2,3,-1
 660 61 l 2,4,5
 660 35 660 35 642.5 17.5 c 128,-1,6
 625 0 625 0 599 0 c 0,7,8
 586 0 586 0 572.5 4.5 c 128,-1,9
 559 9 559 9 552 17 c 2,10,-1
 159 516 l 1,11,-1
 185 532 l 1,12,-1
 185 56 l 2,13,14
 185 32 185 32 169.5 16 c 128,-1,15
 154 0 154 0 129 0 c 0,16,17
 105 0 105 0 90 16 c 128,-1,18
 75 32 75 32 75 56 c 2,19,-1
 75 639 l 2,20,21
 75 665 75 665 92.5 682.5 c 128,-1,22
 110 700 110 700 136 700 c 0,23,24
 150 700 150 700 165 694.5 c 128,-1,25
 180 689 180 689 187 678 c 2,26,-1
 568 192 l 1,27,-1
 551 180 l 1,28,-1
 551 644 l 2,29,30
 551 668 551 668 566 684 c 128,-1,31
 581 700 581 700 606 700 c 0,0,1
EndSplineSet
EndChar

StartChar: uni019D
Encoding: 413 413 126
Width: 735
GlyphClass: 2
Flags: W
AnchorPoint: "Anchor-2" 300 0 basechar 0
AnchorPoint: "Anchor-0" 300 700 basechar 0
LayerCount: 2
Fore
SplineSet
30 -197 m 0,0,1
 6 -196 6 -196 -9.5 -179.5 c 128,-1,2
 -25 -163 -25 -163 -25 -140 c 0,3,4
 -25 -109 -25 -109 -12.5 -95 c 128,-1,5
 0 -81 0 -81 26 -74 c 0,6,7
 50 -67 50 -67 60 -52 c 128,-1,8
 70 -37 70 -37 72.5 -17 c 128,-1,9
 75 3 75 3 75 25 c 2,10,-1
 75 639 l 2,11,12
 75 665 75 665 92.5 682.5 c 128,-1,13
 110 700 110 700 136 700 c 0,14,15
 150 700 150 700 165 694.5 c 128,-1,16
 180 689 180 689 187 678 c 2,17,-1
 568 192 l 1,18,-1
 546 180 l 1,19,-1
 546 644 l 2,20,21
 546 668 546 668 562.5 684 c 128,-1,22
 579 700 579 700 604 700 c 0,23,24
 628 700 628 700 644 684 c 128,-1,25
 660 668 660 668 660 644 c 2,26,-1
 660 61 l 2,27,28
 660 35 660 35 642.5 17.5 c 128,-1,29
 625 0 625 0 599 0 c 0,30,31
 586 0 586 0 572.5 4.5 c 128,-1,32
 559 9 559 9 552 17 c 2,33,-1
 159 516 l 1,34,-1
 189 532 l 1,35,-1
 189 -10 l 2,36,37
 189 -65 189 -65 174 -100.5 c 128,-1,38
 159 -136 159 -136 137 -156 c 128,-1,39
 115 -176 115 -176 92 -184.5 c 128,-1,40
 69 -193 69 -193 51.5 -195 c 128,-1,41
 34 -197 34 -197 30 -197 c 0,0,1
EndSplineSet
EndChar

StartChar: Eng
Encoding: 330 330 130
Width: 755
Flags: W
LayerCount: 2
Fore
SplineSet
503 -200 m 0,0,1
 475 -200 475 -200 457 -186 c 128,-1,2
 439 -172 439 -172 439 -148 c 256,3,4
 439 -124 439 -124 455.5 -107.5 c 128,-1,5
 472 -91 472 -91 497 -90 c 0,6,7
 518 -89 518 -89 532 -82 c 128,-1,8
 546 -75 546 -75 553 -59.5 c 128,-1,9
 560 -44 560 -44 560 -19 c 2,10,-1
 560 54 l 1,11,-1
 566 28 l 1,12,-1
 179 499 l 1,13,-1
 195 498 l 1,14,-1
 195 61 l 2,15,16
 195 35 195 35 177.5 17.5 c 128,-1,17
 160 0 160 0 134 0 c 0,18,19
 109 0 109 0 92 17.5 c 128,-1,20
 75 35 75 35 75 61 c 2,21,-1
 75 639 l 2,22,23
 75 665 75 665 92.5 682.5 c 128,-1,24
 110 700 110 700 136 700 c 0,25,26
 151 700 151 700 163.5 694 c 128,-1,27
 176 688 176 688 186 674 c 2,28,-1
 578 195 l 1,29,-1
 560 187 l 1,30,-1
 560 639 l 2,31,32
 560 665 560 665 577.5 682.5 c 128,-1,33
 595 700 595 700 621 700 c 256,34,35
 647 700 647 700 663.5 682.5 c 128,-1,36
 680 665 680 665 680 639 c 2,37,-1
 680 50 l 1,38,-1
 680 -14 l 2,39,40
 680 -85 680 -85 654 -126 c 128,-1,41
 628 -167 628 -167 587.5 -183.5 c 128,-1,42
 547 -200 547 -200 503 -200 c 0,0,1
EndSplineSet
EndChar

StartChar: O
Encoding: 79 79 131
Width: 679
GlyphClass: 2
Flags: W
AnchorPoint: "Anchor-5" 352 445 basechar 0
AnchorPoint: "Anchor-4" 340 350 basechar 0
AnchorPoint: "Anchor-3" 623 10 basechar 0
AnchorPoint: "Anchor-2" 340 0 basechar 0
AnchorPoint: "Anchor-1" 339 710 basechar 0
AnchorPoint: "Anchor-0" 340 700 basechar 0
LayerCount: 2
Fore
SplineSet
639 350 m 256,0,1
 639 275 639 275 614 210 c 128,-1,2
 589 145 589 145 548.5 95.5 c 128,-1,3
 508 46 508 46 450.5 18 c 128,-1,4
 393 -10 393 -10 339 -10 c 260,5,6
 285 -10 285 -10 228 18 c 128,-1,7
 171 46 171 46 130.5 95.5 c 128,-1,8
 90 145 90 145 65 210 c 128,-1,9
 40 275 40 275 40 350 c 256,10,11
 40 425 40 425 65 490 c 128,-1,12
 90 555 90 555 130.5 604.5 c 128,-1,13
 171 654 171 654 228 682 c 128,-1,14
 285 710 285 710 339 710 c 260,15,16
 393 710 393 710 450.5 682 c 128,-1,17
 508 654 508 654 548.5 604.5 c 128,-1,18
 589 555 589 555 614 490 c 128,-1,19
 639 425 639 425 639 350 c 256,0,1
509 350 m 256,20,21
 509 417 509 417 487 471.5 c 128,-1,22
 465 526 465 526 423 558 c 128,-1,23
 381 590 381 590 339 590 c 256,24,25
 297 590 297 590 255 558 c 128,-1,26
 213 526 213 526 191.5 472 c 128,-1,27
 170 418 170 418 170 350 c 0,28,29
 170 283 170 283 191.5 228.5 c 128,-1,30
 213 174 213 174 255 142 c 128,-1,31
 297 110 297 110 339 110 c 256,32,33
 381 110 381 110 423 142 c 128,-1,34
 465 174 465 174 487 228.5 c 128,-1,35
 509 283 509 283 509 350 c 256,20,21
EndSplineSet
Substitution2: "Single Substitution lookup 33 subtable" ordmasculine
Substitution2: "'aalt' Access All Alternates in Latin lookup 0 subtable" ordmasculine
EndChar

StartChar: uni01EA
Encoding: 490 490 159
Width: 759
GlyphClass: 2
Flags: W
AnchorPoint: "Anchor-4" 380 350 basechar 0
AnchorPoint: "Anchor-3" 683 10 basechar 0
AnchorPoint: "Anchor-2" 380 0 basechar 0
AnchorPoint: "Anchor-1" 379 710 basechar 0
AnchorPoint: "Anchor-0" 380 700 basechar 0
LayerCount: 2
Fore
SplineSet
408 -207 m 0,0,1
 359 -207 359 -207 323.5 -181 c 128,-1,2
 288 -155 288 -155 288 -100 c 0,3,4
 288 -59 288 -59 305 -29.5 c 128,-1,5
 322 0 322 0 349.5 20.5 c 128,-1,6
 377 41 377 41 409 54 c 128,-1,7
 441 67 441 67 471 75 c 1,8,-1
 493 10 l 1,9,10
 452 -1 452 -1 429 -15.5 c 128,-1,11
 406 -30 406 -30 396.5 -45.5 c 128,-1,12
 387 -61 387 -61 387 -78 c 0,13,14
 387 -96 387 -96 396.5 -105 c 128,-1,15
 406 -114 406 -114 418 -114 c 0,16,17
 424 -114 424 -114 429.5 -111 c 128,-1,18
 435 -108 435 -108 439 -102 c 0,19,20
 448 -90 448 -90 460.5 -87 c 128,-1,21
 473 -84 473 -84 480 -84 c 0,22,23
 498 -84 498 -84 511 -96.5 c 128,-1,24
 524 -109 524 -109 524 -132 c 0,25,26
 524 -148 524 -148 507.5 -165.5 c 128,-1,27
 491 -183 491 -183 464.5 -195 c 128,-1,28
 438 -207 438 -207 408 -207 c 0,0,1
719 350 m 256,29,30
 719 275 719 275 694 210 c 128,-1,31
 669 145 669 145 623.5 95.5 c 128,-1,32
 578 46 578 46 515.5 18 c 128,-1,33
 453 -10 453 -10 379 -10 c 256,34,35
 305 -10 305 -10 243 18 c 128,-1,36
 181 46 181 46 135.5 95.5 c 128,-1,37
 90 145 90 145 65 210 c 128,-1,38
 40 275 40 275 40 350 c 256,39,40
 40 425 40 425 65 490 c 128,-1,41
 90 555 90 555 135.5 604.5 c 128,-1,42
 181 654 181 654 243 682 c 128,-1,43
 305 710 305 710 379 710 c 256,44,45
 453 710 453 710 515.5 682 c 128,-1,46
 578 654 578 654 623.5 604.5 c 128,-1,47
 669 555 669 555 694 490 c 128,-1,48
 719 425 719 425 719 350 c 256,29,30
589 350 m 256,49,50
 589 417 589 417 562 471.5 c 128,-1,51
 535 526 535 526 488 558 c 128,-1,52
 441 590 441 590 379 590 c 256,53,54
 317 590 317 590 270 558 c 128,-1,55
 223 526 223 526 196.5 472 c 128,-1,56
 170 418 170 418 170 350 c 0,57,58
 170 283 170 283 196.5 228.5 c 128,-1,59
 223 174 223 174 270 142 c 128,-1,60
 317 110 317 110 379 110 c 256,61,62
 441 110 441 110 488 142 c 128,-1,63
 535 174 535 174 562 228.5 c 128,-1,64
 589 283 589 283 589 350 c 256,49,50
EndSplineSet
EndChar

StartChar: Oslash
Encoding: 216 216 160
Width: 739
GlyphClass: 2
Flags: W
AnchorPoint: "Anchor-4" 380 350 basechar 0
AnchorPoint: "Anchor-3" 683 10 basechar 0
AnchorPoint: "Anchor-2" 370 0 basechar 0
AnchorPoint: "Anchor-1" 379 710 basechar 0
AnchorPoint: "Anchor-0" 370 700 basechar 0
LayerCount: 2
Fore
SplineSet
105 -31 m 0,0,1
 86 -31 86 -31 70 -16.5 c 128,-1,2
 54 -2 54 -2 54 19 c 0,3,4
 54 37 54 37 66 52 c 2,5,-1
 616 730 l 2,6,7
 624 740 624 740 634.5 744.5 c 128,-1,8
 645 749 645 749 655 749 c 0,9,10
 675 749 675 749 690.5 735 c 128,-1,11
 706 721 706 721 706 700 c 0,12,13
 706 682 706 682 694 667 c 2,14,-1
 144 -11 l 2,15,16
 137 -21 137 -21 126.5 -26 c 128,-1,17
 116 -31 116 -31 105 -31 c 0,0,1
719 350 m 256,18,19
 719 275 719 275 694 210 c 128,-1,20
 669 145 669 145 623.5 95.5 c 128,-1,21
 578 46 578 46 515.5 18 c 128,-1,22
 453 -10 453 -10 379 -10 c 256,23,24
 305 -10 305 -10 243 18 c 128,-1,25
 181 46 181 46 135.5 95.5 c 128,-1,26
 90 145 90 145 65 210 c 128,-1,27
 40 275 40 275 40 350 c 256,28,29
 40 425 40 425 65 490 c 128,-1,30
 90 555 90 555 135.5 604.5 c 128,-1,31
 181 654 181 654 243 682 c 128,-1,32
 305 710 305 710 379 710 c 256,33,34
 453 710 453 710 515.5 682 c 128,-1,35
 578 654 578 654 623.5 604.5 c 128,-1,36
 669 555 669 555 694 490 c 128,-1,37
 719 425 719 425 719 350 c 256,18,19
589 350 m 256,38,39
 589 417 589 417 562 471.5 c 128,-1,40
 535 526 535 526 488 558 c 128,-1,41
 441 590 441 590 379 590 c 256,42,43
 317 590 317 590 270 558 c 128,-1,44
 223 526 223 526 196.5 472 c 128,-1,45
 170 418 170 418 170 350 c 0,46,47
 170 283 170 283 196.5 228.5 c 128,-1,48
 223 174 223 174 270 142 c 128,-1,49
 317 110 317 110 379 110 c 256,50,51
 441 110 441 110 488 142 c 128,-1,52
 535 174 535 174 562 228.5 c 128,-1,53
 589 283 589 283 589 350 c 256,38,39
EndSplineSet
EndChar

StartChar: OE
Encoding: 338 338 166
Width: 967
GlyphClass: 2
Flags: W
AnchorPoint: "Anchor-2" 484 0 basechar 0
AnchorPoint: "Anchor-0" 484 700 basechar 0
LayerCount: 2
Fore
SplineSet
866 120 m 2,0,1
 892 120 892 120 909.5 102.5 c 128,-1,2
 927 85 927 85 927 59 c 0,3,4
 927 34 927 34 909.5 17 c 128,-1,5
 892 0 892 0 866 0 c 2,6,-1
 340 0 l 2,7,8
 244 0 244 0 177 47 c 128,-1,9
 110 94 110 94 75 173.5 c 128,-1,10
 40 253 40 253 40 350 c 0,11,12
 40 422 40 422 59.5 485.5 c 128,-1,13
 79 549 79 549 117.5 597.5 c 128,-1,14
 156 646 156 646 212 673 c 128,-1,15
 268 700 268 700 340 700 c 2,16,-1
 866 700 l 2,17,18
 892 700 892 700 909.5 682.5 c 128,-1,19
 927 665 927 665 927 639 c 0,20,21
 927 614 927 614 909.5 597 c 128,-1,22
 892 580 892 580 866 580 c 2,23,-1
 589 580 l 1,24,-1
 600 601 l 1,25,-1
 600 389 l 1,26,-1
 588 404 l 1,27,-1
 821 404 l 2,28,29
 847 404 847 404 864.5 386.5 c 128,-1,30
 882 369 882 369 882 343 c 0,31,32
 882 318 882 318 864.5 301 c 128,-1,33
 847 284 847 284 821 284 c 2,34,-1
 588 284 l 1,35,-1
 600 304 l 1,36,-1
 600 111 l 1,37,-1
 594 120 l 1,38,-1
 866 120 l 2,0,1
495 120 m 1,39,-1
 480 104 l 1,40,-1
 480 598 l 1,41,-1
 493 580 l 1,42,-1
 340 580 l 2,43,44
 293 580 293 580 259 562 c 128,-1,45
 225 544 225 544 203 512.5 c 128,-1,46
 181 481 181 481 170.5 439 c 128,-1,47
 160 397 160 397 160 350 c 0,48,49
 160 287 160 287 178.5 234.5 c 128,-1,50
 197 182 197 182 237 151 c 128,-1,51
 277 120 277 120 340 120 c 2,52,-1
 495 120 l 1,39,-1
EndSplineSet
EndChar

StartChar: P
Encoding: 80 80 167
Width: 603
GlyphClass: 2
Flags: W
AnchorPoint: "Anchor-4" 139 157 basechar 0
AnchorPoint: "Anchor-2" 302 0 basechar 0
AnchorPoint: "Anchor-0" 302 700 basechar 0
LayerCount: 2
Fore
SplineSet
364 700 m 2,0,1
 416 700 416 700 461.5 670 c 128,-1,2
 507 640 507 640 535 589 c 128,-1,3
 563 538 563 538 563 475 c 0,4,5
 563 413 563 413 535 362 c 128,-1,6
 507 311 507 311 461.5 280.5 c 128,-1,7
 416 250 416 250 364 250 c 2,8,-1
 180 250 l 1,9,-1
 190 268 l 1,10,-1
 190 61 l 2,11,12
 190 35 190 35 174 17.5 c 128,-1,13
 158 0 158 0 132 0 c 0,14,15
 107 0 107 0 91 17.5 c 128,-1,16
 75 35 75 35 75 61 c 2,17,-1
 75 639 l 2,18,19
 75 665 75 665 92.5 682.5 c 128,-1,20
 110 700 110 700 136 700 c 2,21,-1
 364 700 l 2,0,1
364 364 m 2,22,23
 383 364 383 364 401 380 c 128,-1,24
 419 396 419 396 431 421.5 c 128,-1,25
 443 447 443 447 443 475 c 0,26,27
 443 504 443 504 431 529 c 128,-1,28
 419 554 419 554 401 569.5 c 128,-1,29
 383 585 383 585 364 585 c 2,30,-1
 190 585 l 1,31,-1
 190 348 l 1,32,-1
 179 364 l 1,33,-1
 364 364 l 2,22,23
EndSplineSet
EndChar

StartChar: Thorn
Encoding: 222 222 168
Width: 603
GlyphClass: 2
Flags: W
AnchorPoint: "Anchor-2" 272 0 basechar 0
AnchorPoint: "Anchor-0" 272 700 basechar 0
LayerCount: 2
Fore
SplineSet
195 61 m 2,0,1
 195 35 195 35 177.5 17.5 c 128,-1,2
 160 0 160 0 134 0 c 256,3,4
 108 0 108 0 91.5 17.5 c 128,-1,5
 75 35 75 35 75 61 c 2,6,-1
 75 679 l 2,7,8
 75 705 75 705 92.5 722.5 c 128,-1,9
 110 740 110 740 136 740 c 256,10,11
 162 740 162 740 178.5 722.5 c 128,-1,12
 195 705 195 705 195 679 c 2,13,-1
 195 61 l 2,0,1
184 280 m 1,14,-1
 364 280 l 2,15,16
 383 280 383 280 401 294.5 c 128,-1,17
 419 309 419 309 431 333 c 128,-1,18
 443 357 443 357 443 385 c 0,19,20
 443 414 443 414 431 438 c 128,-1,21
 419 462 419 462 401 476 c 128,-1,22
 383 490 383 490 364 490 c 2,23,-1
 183 490 l 1,24,-1
 136 610 l 1,25,-1
 364 610 l 2,26,27
 416 610 416 610 461.5 580 c 128,-1,28
 507 550 507 550 535 499 c 128,-1,29
 563 448 563 448 563 385 c 0,30,31
 563 323 563 323 534.5 272 c 128,-1,32
 506 221 506 221 460.5 190.5 c 128,-1,33
 415 160 415 160 364 160 c 2,34,-1
 124 160 l 1,35,-1
 184 280 l 1,14,-1
EndSplineSet
EndChar

StartChar: Q
Encoding: 81 81 169
Width: 702
GlyphClass: 2
Flags: W
AnchorPoint: "Anchor-2" 338 0 basechar 0
AnchorPoint: "Anchor-0" 338 700 basechar 0
LayerCount: 2
Fore
SplineSet
639 350 m 256,0,1
 639 275 639 275 614 210 c 128,-1,2
 589 145 589 145 548.5 95.5 c 128,-1,3
 508 46 508 46 450.5 18 c 128,-1,4
 393 -10 393 -10 339 -10 c 256,5,6
 285 -10 285 -10 228 18 c 128,-1,7
 171 46 171 46 130.5 95.5 c 128,-1,8
 90 145 90 145 65 210 c 128,-1,9
 40 275 40 275 40 350 c 256,10,11
 40 425 40 425 65 490 c 128,-1,12
 90 555 90 555 130.5 604.5 c 128,-1,13
 171 654 171 654 228 682 c 128,-1,14
 285 710 285 710 339 710 c 256,15,16
 393 710 393 710 450.5 682 c 128,-1,17
 508 654 508 654 548.5 604.5 c 128,-1,18
 589 555 589 555 614 490 c 128,-1,19
 639 425 639 425 639 350 c 256,0,1
509 350 m 256,20,21
 509 417 509 417 487 471.5 c 128,-1,22
 465 526 465 526 423 558 c 128,-1,23
 381 590 381 590 339 590 c 256,24,25
 297 590 297 590 255 558 c 128,-1,26
 213 526 213 526 191.5 472 c 128,-1,27
 170 418 170 418 170 350 c 0,28,29
 170 283 170 283 191.5 228.5 c 128,-1,30
 213 174 213 174 255 142 c 128,-1,31
 297 110 297 110 339 110 c 256,32,33
 381 110 381 110 423 142 c 128,-1,34
 465 174 465 174 487 228.5 c 128,-1,35
 509 283 509 283 509 350 c 256,20,21
320 265 m 2,36,37
 301 281 301 281 300 303.5 c 128,-1,38
 299 326 299 326 314 344 c 0,39,40
 327 360 327 360 348.5 361.5 c 128,-1,41
 370 363 370 363 389 346 c 2,42,-1
 598 153 l 1,43,-1
 667 89 l 2,44,45
 686 73 686 73 687 50.5 c 128,-1,46
 688 28 688 28 672 9 c 0,47,48
 661 -4 661 -4 639 -6.5 c 128,-1,49
 617 -9 617 -9 598 8 c 2,50,-1
 320 265 l 2,36,37
EndSplineSet
EndChar

StartChar: R
Encoding: 82 82 170
Width: 687
GlyphClass: 2
Flags: W
AnchorPoint: "Anchor-2" 344 0 basechar 0
AnchorPoint: "Anchor-0" 344 700 basechar 0
LayerCount: 2
Fore
SplineSet
481 309 m 1,0,-1
 638 102 l 2,1,2
 652 83 652 83 652 61 c 0,3,4
 652 33 652 33 631 15.5 c 128,-1,5
 610 -2 610 -2 584 -2 c 0,6,7
 556 -2 556 -2 539 21 c 2,8,-1
 329 297 l 1,9,-1
 481 309 l 1,0,-1
377 255 m 2,10,-1
 185 255 l 1,11,-1
 200 278 l 1,12,-1
 200 61 l 2,13,14
 200 35 200 35 186 17.5 c 128,-1,15
 172 0 172 0 147 0 c 0,16,17
 119 0 119 0 97 17.5 c 128,-1,18
 75 35 75 35 75 61 c 2,19,-1
 75 639 l 2,20,21
 75 665 75 665 92.5 682.5 c 128,-1,22
 110 700 110 700 136 700 c 2,23,-1
 414 700 l 2,24,25
 466 700 466 700 511.5 672.5 c 128,-1,26
 557 645 557 645 585 596.5 c 128,-1,27
 613 548 613 548 613 485 c 0,28,29
 613 447 613 447 598 410 c 0,30,31
 566 339 566 339 563 336 c 0,32,33
 535 308 535 308 510 291 c 0,34,35
 482 274 482 274 454 266 c 0,36,37
 414 255 414 255 377 255 c 2,10,-1
186 358 m 1,38,-1
 409 358 l 2,39,40
 427 358 427 358 444 374.5 c 128,-1,41
 461 391 461 391 472 419.5 c 128,-1,42
 483 448 483 448 483 482 c 0,43,44
 483 526 483 526 459.5 555.5 c 128,-1,45
 436 585 436 585 409 585 c 2,46,-1
 200 585 l 1,47,-1
 200 334 l 1,48,-1
 186 358 l 1,38,-1
EndSplineSet
EndChar

StartChar: S
Encoding: 83 83 178
Width: 597
GlyphClass: 2
Flags: W
AnchorPoint: "Anchor-2" 299 0 basechar 0
AnchorPoint: "Anchor-0" 299 700 basechar 0
LayerCount: 2
Fore
SplineSet
300 -10 m 0,0,1
 230 -10 230 -10 174 7.5 c 128,-1,2
 118 25 118 25 67 69 c 0,3,4
 54 80 54 80 47 94 c 128,-1,5
 40 108 40 108 40 122 c 0,6,7
 40 145 40 145 56.5 162.5 c 128,-1,8
 73 180 73 180 98 180 c 0,9,10
 117 180 117 180 132 168 c 0,11,12
 170 137 170 137 207.5 121 c 128,-1,13
 245 105 245 105 300 105 c 0,14,15
 337 105 337 105 368 116.5 c 128,-1,16
 399 128 399 128 418 147.5 c 128,-1,17
 437 167 437 167 437 192 c 0,18,19
 437 222 437 222 419 243 c 128,-1,20
 401 264 401 264 364 278.5 c 128,-1,21
 327 293 327 293 270 301 c 0,22,23
 216 309 216 309 175 325.5 c 128,-1,24
 134 342 134 342 106.5 367.5 c 128,-1,25
 79 393 79 393 65 427.5 c 128,-1,26
 51 462 51 462 51 505 c 0,27,28
 51 570 51 570 84.5 616 c 128,-1,29
 118 662 118 662 175 686 c 128,-1,30
 232 710 232 710 301 710 c 0,31,32
 366 710 366 710 421.5 690.5 c 128,-1,33
 477 671 477 671 512 641 c 0,34,35
 541 618 541 618 541 588 c 0,36,37
 541 566 541 566 524 548 c 128,-1,38
 507 530 507 530 484 530 c 0,39,40
 469 530 469 530 457 539 c 0,41,42
 441 553 441 553 414 565.5 c 128,-1,43
 387 578 387 578 357 586.5 c 128,-1,44
 327 595 327 595 301 595 c 0,45,46
 258 595 258 595 228.5 584 c 128,-1,47
 199 573 199 573 184 554 c 128,-1,48
 169 535 169 535 169 510 c 0,49,50
 169 480 169 480 186.5 460.5 c 128,-1,51
 204 441 204 441 237 429.5 c 128,-1,52
 270 418 270 418 316 409 c 0,53,54
 376 398 376 398 421.5 383 c 128,-1,55
 467 368 467 368 497 344.5 c 128,-1,56
 527 321 527 321 542 285.5 c 128,-1,57
 557 250 557 250 557 199 c 0,58,59
 557 134 557 134 521 87 c 128,-1,60
 485 40 485 40 426.5 15 c 128,-1,61
 368 -10 368 -10 300 -10 c 0,0,1
EndSplineSet
EndChar

StartChar: uni1E9E
Encoding: 7838 7838 189
Width: 746
Flags: W
LayerCount: 2
Fore
SplineSet
480 -10 m 0,0,1
 444 -10 444 -10 403 -0.5 c 128,-1,2
 362 9 362 9 326 28 c 128,-1,3
 290 47 290 47 268 75 c 0,4,5
 267 77 267 77 259.5 92.5 c 128,-1,6
 252 108 252 108 252 128 c 0,7,8
 252 151 252 151 266.5 172 c 128,-1,9
 281 193 281 193 307 193 c 0,10,11
 315 193 315 193 327.5 189 c 128,-1,12
 340 185 340 185 348 176 c 0,13,14
 371 151 371 151 406.5 130.5 c 128,-1,15
 442 110 442 110 476 110 c 256,16,17
 510 110 510 110 532 117.5 c 128,-1,18
 554 125 554 125 565 139.5 c 128,-1,19
 576 154 576 154 576 173 c 0,20,21
 576 204 576 204 555.5 221.5 c 128,-1,22
 535 239 535 239 503.5 251.5 c 128,-1,23
 472 264 472 264 437 278 c 0,24,25
 404 292 404 292 373.5 312.5 c 128,-1,26
 343 333 343 333 324 365 c 128,-1,27
 305 397 305 397 305 446 c 0,28,29
 305 497 305 497 323 532.5 c 128,-1,30
 341 568 341 568 370 590 c 128,-1,31
 399 612 399 612 434 624 c 128,-1,32
 469 636 469 636 502 639 c 1,33,-1
 574 579 l 1,34,35
 547 594 547 594 525 604 c 128,-1,36
 503 614 503 614 474.5 619.5 c 128,-1,37
 446 625 446 625 397 624 c 0,38,39
 361 625 361 625 327 614 c 128,-1,40
 293 603 293 603 266 580 c 128,-1,41
 239 557 239 557 223 522 c 128,-1,42
 207 487 207 487 207 439 c 2,43,-1
 205 61 l 2,44,45
 205 35 205 35 186.5 17.5 c 128,-1,46
 168 0 168 0 139 0 c 0,47,48
 111 0 111 0 93 17.5 c 128,-1,49
 75 35 75 35 75 61 c 2,50,-1
 77 406 l 2,51,52
 77 473 77 473 98 531 c 128,-1,53
 119 589 119 589 159 633 c 128,-1,54
 199 677 199 677 256 701.5 c 128,-1,55
 313 726 313 726 384 726 c 0,56,57
 452 726 452 726 501 716 c 128,-1,58
 550 706 550 706 583 692 c 0,59,60
 646 667 646 667 646 617 c 0,61,62
 646 596 646 596 632 587 c 128,-1,63
 618 578 618 578 596.5 574.5 c 128,-1,64
 575 571 575 571 550 564 c 0,65,66
 519 556 519 556 493.5 548.5 c 128,-1,67
 468 541 468 541 453 526 c 128,-1,68
 438 511 438 511 438 482 c 0,69,70
 438 460 438 460 451 443.5 c 128,-1,71
 464 427 464 427 486.5 415 c 128,-1,72
 509 403 509 403 535 393 c 0,73,74
 564 383 564 383 593.5 370 c 128,-1,75
 623 357 623 357 649 335.5 c 128,-1,76
 675 314 675 314 690.5 279.5 c 128,-1,77
 706 245 706 245 706 192 c 0,78,79
 706 137 706 137 673.5 91 c 128,-1,80
 641 45 641 45 589.5 18 c 128,-1,81
 538 -9 538 -9 480 -10 c 0,0,1
EndSplineSet
EndChar

StartChar: uni018F
Encoding: 399 399 190
Width: 776
Flags: W
LayerCount: 2
Fore
SplineSet
388 -10 m 0,0,1
 325 -10 325 -10 264.5 11.5 c 128,-1,2
 204 33 204 33 155.5 73.5 c 128,-1,3
 107 114 107 114 76 172.5 c 128,-1,4
 45 231 45 231 40 305 c 1,5,-1
 40 330 l 2,6,7
 40 367 40 367 63.5 385.5 c 128,-1,8
 87 404 87 404 115 404 c 2,9,-1
 684 404 l 1,10,-1
 695 284 l 1,11,-1
 169 284 l 1,12,13
 179 246 179 246 199.5 214.5 c 128,-1,14
 220 183 220 183 249 159.5 c 128,-1,15
 278 136 278 136 313.5 123 c 128,-1,16
 349 110 349 110 388 110 c 0,17,18
 434 110 434 110 474 125.5 c 128,-1,19
 514 141 514 141 544.5 172 c 128,-1,20
 575 203 575 203 592 248 c 128,-1,21
 609 293 609 293 609 353 c 0,22,23
 609 418 609 418 591.5 463 c 128,-1,24
 574 508 574 508 543.5 536 c 128,-1,25
 513 564 513 564 472.5 577 c 128,-1,26
 432 590 432 590 385 590 c 0,27,28
 337 590 337 590 291 578 c 128,-1,29
 245 566 245 566 202 532 c 0,30,31
 183 517 183 517 160.5 517 c 128,-1,32
 138 517 138 517 120 533 c 0,33,34
 100 550 100 550 98.5 576 c 128,-1,35
 97 602 97 602 119 621 c 0,36,37
 177 671 177 671 240.5 690.5 c 128,-1,38
 304 710 304 710 385 710 c 0,39,40
 457 710 457 710 520.5 682 c 128,-1,41
 584 654 584 654 632.5 604.5 c 128,-1,42
 681 555 681 555 708.5 490 c 128,-1,43
 736 425 736 425 736 350 c 256,44,45
 736 275 736 275 709 210 c 128,-1,46
 682 145 682 145 634 95.5 c 128,-1,47
 586 46 586 46 523 18 c 128,-1,48
 460 -10 460 -10 388 -10 c 0,0,1
EndSplineSet
EndChar

StartChar: T
Encoding: 84 84 191
Width: 626
GlyphClass: 2
Flags: W
AnchorPoint: "Anchor-4" 313 350 basechar 0
AnchorPoint: "Anchor-2" 313 0 basechar 0
AnchorPoint: "Anchor-0" 313 700 basechar 0
LayerCount: 2
Fore
SplineSet
91 585 m 2,0,1
 65 585 65 585 47.5 601 c 128,-1,2
 30 617 30 617 30 643 c 256,3,4
 30 669 30 669 47.5 684.5 c 128,-1,5
 65 700 65 700 91 700 c 2,6,-1
 535 700 l 2,7,8
 561 700 561 700 578.5 684 c 128,-1,9
 596 668 596 668 596 642 c 256,10,11
 596 616 596 616 578.5 600.5 c 128,-1,12
 561 585 561 585 535 585 c 2,13,-1
 378 585 l 1,14,-1
 378 61 l 2,15,16
 378 35 378 35 359.5 17.5 c 128,-1,17
 341 0 341 0 312 0 c 0,18,19
 284 0 284 0 266 17.5 c 128,-1,20
 248 35 248 35 248 61 c 2,21,-1
 248 585 l 1,22,-1
 91 585 l 2,0,1
EndSplineSet
EndChar

StartChar: U
Encoding: 85 85 199
Width: 705
GlyphClass: 2
Flags: W
AnchorPoint: "Anchor-3" 634 10 basechar 0
AnchorPoint: "Anchor-2" 353 0 basechar 0
AnchorPoint: "Anchor-1" 486 713 basechar 0
AnchorPoint: "Anchor-0" 353 700 basechar 0
LayerCount: 2
Fore
SplineSet
572 701 m 256,0,1
 598 701 598 701 614 683.5 c 128,-1,2
 630 666 630 666 630 640 c 2,3,-1
 630 278 l 2,4,5
 630 195 630 195 594.5 131 c 128,-1,6
 559 67 559 67 497 31 c 128,-1,7
 435 -5 435 -5 353 -5 c 256,8,9
 271 -5 271 -5 208.5 31 c 128,-1,10
 146 67 146 67 110.5 131 c 128,-1,11
 75 195 75 195 75 278 c 2,12,-1
 75 640 l 2,13,14
 75 666 75 666 93 683.5 c 128,-1,15
 111 701 111 701 139 701 c 0,16,17
 162 701 162 701 180.5 683.5 c 128,-1,18
 199 666 199 666 199 640 c 2,19,-1
 199 278 l 2,20,21
 199 228 199 228 220.5 191.5 c 128,-1,22
 242 155 242 155 277.5 135 c 128,-1,23
 313 115 313 115 353 115 c 0,24,25
 396 115 396 115 433 135 c 128,-1,26
 470 155 470 155 493 191.5 c 128,-1,27
 516 228 516 228 516 278 c 2,28,-1
 516 640 l 2,29,30
 516 666 516 666 531 683.5 c 128,-1,31
 546 701 546 701 572 701 c 256,0,1
EndSplineSet
EndChar

StartChar: Uogonek
Encoding: 370 370 219
Width: 705
GlyphClass: 2
Flags: W
AnchorPoint: "Anchor-3" 634 10 basechar 0
AnchorPoint: "Anchor-2" 353 0 basechar 0
AnchorPoint: "Anchor-1" 685 700 basechar 0
AnchorPoint: "Anchor-0" 353 700 basechar 0
LayerCount: 2
Fore
SplineSet
441 -207 m 0,0,1
 392 -207 392 -207 356.5 -181 c 128,-1,2
 321 -155 321 -155 321 -100 c 0,3,4
 321 -59 321 -59 338 -27 c 128,-1,5
 355 5 355 5 382.5 29 c 128,-1,6
 410 53 410 53 442 69 c 128,-1,7
 474 85 474 85 504 93 c 1,8,-1
 393 -4 l 1,9,10
 383 -4 383 -4 373 -4.5 c 128,-1,11
 363 -5 363 -5 353 -5 c 0,12,13
 271 -5 271 -5 208.5 31 c 128,-1,14
 146 67 146 67 110.5 131 c 128,-1,15
 75 195 75 195 75 278 c 2,16,-1
 75 640 l 2,17,18
 75 666 75 666 93 683.5 c 128,-1,19
 111 701 111 701 139 701 c 256,20,21
 167 701 167 701 183 683.5 c 128,-1,22
 199 666 199 666 199 640 c 2,23,-1
 199 278 l 2,24,25
 199 228 199 228 220.5 191.5 c 128,-1,26
 242 155 242 155 277.5 135 c 128,-1,27
 313 115 313 115 353 115 c 0,28,29
 396 115 396 115 433 135 c 128,-1,30
 470 155 470 155 493 191.5 c 128,-1,31
 516 228 516 228 516 278 c 2,32,-1
 516 640 l 2,33,34
 516 666 516 666 533 683.5 c 128,-1,35
 550 701 550 701 572 701 c 0,36,37
 598 701 598 701 614 683.5 c 128,-1,38
 630 666 630 666 630 640 c 2,39,-1
 630 278 l 2,40,41
 630 239 630 239 619.5 194.5 c 128,-1,42
 609 150 609 150 585 110.5 c 128,-1,43
 561 71 561 71 520 44 c 0,44,45
 487 22 487 22 464.5 0 c 128,-1,46
 442 -22 442 -22 431 -41.5 c 128,-1,47
 420 -61 420 -61 420 -78 c 0,48,49
 420 -96 420 -96 429.5 -105 c 128,-1,50
 439 -114 439 -114 451 -114 c 256,51,52
 463 -114 463 -114 472 -102 c 256,53,54
 481 -90 481 -90 493.5 -87 c 128,-1,55
 506 -84 506 -84 513 -84 c 0,56,57
 531 -84 531 -84 544 -96.5 c 128,-1,58
 557 -109 557 -109 557 -132 c 0,59,60
 557 -148 557 -148 540.5 -165.5 c 128,-1,61
 524 -183 524 -183 497.5 -195 c 128,-1,62
 471 -207 471 -207 441 -207 c 0,0,1
EndSplineSet
EndChar

StartChar: V
Encoding: 86 86 223
Width: 678
GlyphClass: 2
Flags: W
AnchorPoint: "Anchor-2" 339 0 basechar 0
AnchorPoint: "Anchor-0" 339 700 basechar 0
LayerCount: 2
Fore
SplineSet
586 702 m 0,0,1
 611 702 611 702 629.5 685.5 c 128,-1,2
 648 669 648 669 648 644 c 0,3,4
 648 631 648 631 642 617 c 2,5,-1
 395 39 l 2,6,7
 386 19 386 19 369.5 9.5 c 128,-1,8
 353 0 353 0 336 0 c 0,9,10
 320 1 320 1 305 10.5 c 128,-1,11
 290 20 290 20 282 38 c 2,12,-1
 35 618 l 2,13,14
 32 624 32 624 31 630.5 c 128,-1,15
 30 637 30 637 30 643 c 0,16,17
 30 672 30 672 51 687.5 c 128,-1,18
 72 703 72 703 91 703 c 0,19,20
 129 703 129 703 146 664 c 2,21,-1
 365 149 l 1,22,-1
 330 148 l 1,23,-1
 531 664 l 2,24,25
 548 702 548 702 586 702 c 0,0,1
EndSplineSet
EndChar

StartChar: W
Encoding: 87 87 224
Width: 943
GlyphClass: 2
Flags: W
AnchorPoint: "Anchor-2" 472 0 basechar 0
AnchorPoint: "Anchor-0" 472 700 basechar 0
LayerCount: 2
Fore
SplineSet
862 703 m 0,0,1
 885 703 885 703 906 685.5 c 128,-1,2
 927 668 927 668 927 638 c 0,3,4
 927 629 927 629 924 618 c 2,5,-1
 727 38 l 2,6,7
 721 20 721 20 705.5 10.5 c 128,-1,8
 690 1 690 1 673 0 c 0,9,10
 656 0 656 0 639.5 10 c 128,-1,11
 623 20 623 20 614 39 c 2,12,-1
 466 375 l 1,13,-1
 475 369 l 1,14,-1
 329 39 l 2,15,16
 320 20 320 20 303.5 10 c 128,-1,17
 287 0 287 0 270 0 c 0,18,19
 254 1 254 1 238 10.5 c 128,-1,20
 222 20 222 20 216 38 c 2,21,-1
 19 618 l 2,22,23
 16 629 16 629 16 638 c 0,24,25
 16 668 16 668 37.5 685.5 c 128,-1,26
 59 703 59 703 82 703 c 0,27,28
 101 703 101 703 117.5 693 c 128,-1,29
 134 683 134 683 140 664 c 2,30,-1
 299 182 l 1,31,-1
 277 183 l 1,32,-1
 419 524 l 2,33,34
 427 542 427 542 442 552.5 c 128,-1,35
 457 563 457 563 476 562 c 0,36,37
 495 563 495 563 510 552.5 c 128,-1,38
 525 542 525 542 532 524 c 2,39,-1
 662 198 l 1,40,-1
 646 188 l 1,41,-1
 803 664 l 2,42,43
 809 683 809 683 826 693 c 128,-1,44
 843 703 843 703 862 703 c 0,0,1
EndSplineSet
EndChar

StartChar: X
Encoding: 88 88 229
Width: 655
GlyphClass: 2
Flags: W
AnchorPoint: "Anchor-2" 328 0 basechar 0
AnchorPoint: "Anchor-0" 328 700 basechar 0
LayerCount: 2
Fore
SplineSet
108 703 m 0,0,1
 137 703 137 703 157 677 c 2,2,-1
 597 92 l 2,3,4
 609 76 609 76 609 55 c 0,5,6
 609 27 609 27 589 11 c 128,-1,7
 569 -5 569 -5 549 -5 c 0,8,9
 520 -5 520 -5 500 21 c 2,10,-1
 60 606 l 2,11,12
 47 622 47 622 47 642 c 0,13,14
 47 668 47 668 66.5 685.5 c 128,-1,15
 86 703 86 703 108 703 c 0,0,1
329 267 m 1,16,-1
 149 23 l 2,17,18
 129 -5 129 -5 99 -5 c 0,19,20
 77 -5 77 -5 61 11.5 c 128,-1,21
 45 28 45 28 45 48 c 0,22,23
 45 70 45 70 60 89 c 2,24,-1
 263 364 l 1,25,-1
 318 437 l 1,26,-1
 505 682 l 2,27,28
 526 711 526 711 554 711 c 0,29,30
 577 711 577 711 593.5 693 c 128,-1,31
 610 675 610 675 610 655 c 0,32,33
 610 636 610 636 597 619 c 2,34,-1
 386 344 l 1,35,-1
 329 267 l 1,16,-1
EndSplineSet
EndChar

StartChar: Y
Encoding: 89 89 230
Width: 596
GlyphClass: 2
Flags: W
AnchorPoint: "Anchor-2" 303 -1 basechar 0
AnchorPoint: "Anchor-0" 298 700 basechar 0
LayerCount: 2
Fore
SplineSet
521 703 m 0,0,1
 544 703 544 703 562.5 685.5 c 128,-1,2
 581 668 581 668 581 641 c 0,3,4
 581 632 581 632 578.5 622.5 c 128,-1,5
 576 613 576 613 570 604 c 2,6,-1
 359 317 l 1,7,-1
 359 61 l 2,8,9
 359 35 359 35 341.5 17.5 c 128,-1,10
 324 0 324 0 301 0 c 0,11,12
 276 0 276 0 258.5 17.5 c 128,-1,13
 241 35 241 35 241 61 c 2,14,-1
 241 318 l 2,15,16
 241 319 241 319 35 595 c 0,17,18
 25 608 25 608 21 620 c 128,-1,19
 17 632 17 632 17 642 c 0,20,21
 17 669 17 669 38 686 c 128,-1,22
 59 703 59 703 81 703 c 0,23,24
 109 703 109 703 130 675 c 2,25,-1
 322 410 l 1,26,-1
 294 428 l 1,27,-1
 471 673 l 2,28,29
 492 703 492 703 521 703 c 0,0,1
EndSplineSet
EndChar

StartChar: Z
Encoding: 90 90 240
Width: 648
GlyphClass: 2
Flags: W
AnchorPoint: "Anchor-2" 324 0 basechar 0
AnchorPoint: "Anchor-0" 324 700 basechar 0
LayerCount: 2
Fore
SplineSet
548 700 m 2,0,1
 570 700 570 700 591.5 684 c 128,-1,2
 613 668 613 668 613 641 c 0,3,4
 613 622 613 622 599 603 c 2,5,-1
 216 111 l 1,6,-1
 204 115 l 1,7,-1
 538 115 l 2,8,9
 564 115 564 115 581.5 99.5 c 128,-1,10
 599 84 599 84 599 58 c 0,11,12
 599 33 599 33 581.5 16.5 c 128,-1,13
 564 0 564 0 538 0 c 2,14,-1
 99 0 l 2,15,16
 73 0 73 0 54 18.5 c 128,-1,17
 35 37 35 37 35 59 c 0,18,19
 35 78 35 78 49 97 c 2,20,-1
 433 591 l 1,21,-1
 442 585 l 1,22,-1
 139 585 l 2,23,24
 113 585 113 585 95.5 601 c 128,-1,25
 78 617 78 617 78 643 c 256,26,27
 78 669 78 669 95.5 684.5 c 128,-1,28
 113 700 113 700 139 700 c 2,29,-1
 548 700 l 2,0,1
EndSplineSet
EndChar

StartChar: a
Encoding: 97 97 245
Width: 628
GlyphClass: 2
Flags: W
AnchorPoint: "Anchor-3" 562 0 basechar 0
AnchorPoint: "Anchor-2" 317 0 basechar 0
AnchorPoint: "Anchor-0" 307 515 basechar 0
LayerCount: 2
Fore
SplineSet
503 545 m 256,0,1
 529 545 529 545 546 528 c 128,-1,2
 563 511 563 511 563 484 c 2,3,-1
 563 61 l 2,4,5
 563 35 563 35 546 17.5 c 128,-1,6
 529 0 529 0 503 0 c 256,7,8
 477 0 477 0 460 17.5 c 128,-1,9
 443 35 443 35 443 61 c 2,10,-1
 443 110 l 1,11,-1
 465 101 l 1,12,13
 465 88 465 88 451 69.5 c 128,-1,14
 437 51 437 51 413 33 c 128,-1,15
 389 15 389 15 356.5 2.5 c 128,-1,16
 324 -10 324 -10 286 -10 c 0,17,18
 217 -10 217 -10 161 25.5 c 128,-1,19
 105 61 105 61 72.5 123.5 c 128,-1,20
 40 186 40 186 40 267 c 0,21,22
 40 349 40 349 72.5 411.5 c 128,-1,23
 105 474 105 474 160 509.5 c 128,-1,24
 215 545 215 545 282 545 c 0,25,26
 325 545 325 545 361 532 c 128,-1,27
 397 519 397 519 423.5 499 c 128,-1,28
 450 479 450 479 464.5 458.5 c 128,-1,29
 479 438 479 438 479 424 c 1,30,-1
 443 411 l 1,31,-1
 443 484 l 2,32,33
 443 510 443 510 460 527.5 c 128,-1,34
 477 545 477 545 503 545 c 256,0,1
301 100 m 0,35,36
 345 100 345 100 378 122 c 128,-1,37
 411 144 411 144 429.5 182 c 128,-1,38
 448 220 448 220 448 267 c 0,39,40
 448 315 448 315 429.5 353 c 128,-1,41
 411 391 411 391 378 413 c 128,-1,42
 345 435 345 435 301 435 c 0,43,44
 258 435 258 435 225 413 c 128,-1,45
 192 391 192 391 173.5 353 c 128,-1,46
 155 315 155 315 155 267 c 0,47,48
 155 220 155 220 173.5 182 c 128,-1,49
 192 144 192 144 225 122 c 128,-1,50
 258 100 258 100 301 100 c 0,35,36
EndSplineSet
Substitution2: "'ss01' Style Set 1 in Latin lookup 39 subtable" a.ss01
Substitution2: "Single Substitution lookup 33 subtable" ordfeminine
AlternateSubs2: "'aalt' Access All Alternates in Latin lookup 1 subtable" a.ss01 ordfeminine
EndChar

StartChar: aogonek
Encoding: 261 261 267
Width: 628
GlyphClass: 2
Flags: W
AnchorPoint: "Anchor-3" 562 0 basechar 0
AnchorPoint: "Anchor-2" 317 0 basechar 0
AnchorPoint: "Anchor-0" 317 515 basechar 0
LayerCount: 2
Fore
SplineSet
301 100 m 0,0,1
 345 100 345 100 378 122 c 128,-1,2
 411 144 411 144 429.5 182 c 128,-1,3
 448 220 448 220 448 267 c 0,4,5
 448 315 448 315 429.5 353 c 128,-1,6
 411 391 411 391 378 413 c 128,-1,7
 345 435 345 435 301 435 c 0,8,9
 258 435 258 435 225 413 c 128,-1,10
 192 391 192 391 173.5 353 c 128,-1,11
 155 315 155 315 155 267 c 0,12,13
 155 220 155 220 173.5 182 c 128,-1,14
 192 144 192 144 225 122 c 128,-1,15
 258 100 258 100 301 100 c 0,0,1
451 -217 m 0,16,17
 402 -217 402 -217 366.5 -191 c 128,-1,18
 331 -165 331 -165 331 -110 c 0,19,20
 331 -69 331 -69 348 -41.5 c 128,-1,21
 365 -14 365 -14 392.5 4 c 128,-1,22
 420 22 420 22 452 33.5 c 128,-1,23
 484 45 484 45 514 53 c 1,24,-1
 443 -2 l 1,25,-1
 443 110 l 1,26,-1
 465 101 l 1,27,28
 465 88 465 88 451 69.5 c 128,-1,29
 437 51 437 51 413 33 c 128,-1,30
 389 15 389 15 356.5 2.5 c 128,-1,31
 324 -10 324 -10 286 -10 c 0,32,33
 217 -10 217 -10 161 25.5 c 128,-1,34
 105 61 105 61 72.5 123.5 c 128,-1,35
 40 186 40 186 40 267 c 0,36,37
 40 349 40 349 72.5 411.5 c 128,-1,38
 105 474 105 474 160 509.5 c 128,-1,39
 215 545 215 545 282 545 c 0,40,41
 325 545 325 545 361 532 c 128,-1,42
 397 519 397 519 423.5 499 c 128,-1,43
 450 479 450 479 464.5 458.5 c 128,-1,44
 479 438 479 438 479 424 c 1,45,-1
 443 411 l 1,46,-1
 443 484 l 2,47,48
 443 510 443 510 460 527.5 c 128,-1,49
 477 545 477 545 503 545 c 256,50,51
 529 545 529 545 546 528 c 128,-1,52
 563 511 563 511 563 484 c 2,53,-1
 563 25 l 2,54,55
 563 15 563 15 557.5 4 c 128,-1,56
 552 -7 552 -7 536 -12 c 0,57,58
 491 -25 491 -25 460.5 -44 c 128,-1,59
 430 -63 430 -63 430 -88 c 0,60,61
 430 -106 430 -106 439.5 -115 c 128,-1,62
 449 -124 449 -124 461 -124 c 0,63,64
 467 -124 467 -124 472.5 -121 c 128,-1,65
 478 -118 478 -118 482 -112 c 0,66,67
 491 -100 491 -100 503.5 -97 c 128,-1,68
 516 -94 516 -94 523 -94 c 0,69,70
 541 -94 541 -94 554 -106.5 c 128,-1,71
 567 -119 567 -119 567 -142 c 0,72,73
 567 -158 567 -158 550.5 -175.5 c 128,-1,74
 534 -193 534 -193 507.5 -205 c 128,-1,75
 481 -217 481 -217 451 -217 c 0,16,17
EndSplineSet
Substitution2: "'ss01' Style Set 1 in Latin lookup 39 subtable" aogonek.ss01
Substitution2: "'aalt' Access All Alternates in Latin lookup 0 subtable" aogonek.ss01
EndChar

StartChar: ae
Encoding: 230 230 271
Width: 926
GlyphClass: 2
Flags: W
AnchorPoint: "Anchor-3" 863 10 basechar 0
AnchorPoint: "Anchor-2" 421 0 basechar 0
AnchorPoint: "Anchor-0" 421 515 basechar 0
LayerCount: 2
Fore
SplineSet
272 545 m 0,0,1
 309 545 309 545 347.5 537.5 c 128,-1,2
 386 530 386 530 418.5 512 c 128,-1,3
 451 494 451 494 471 463.5 c 128,-1,4
 491 433 491 433 491 388 c 2,5,-1
 491 267 l 1,6,-1
 376 260 l 1,7,-1
 376 351 l 2,8,9
 376 389 376 389 358 406.5 c 128,-1,10
 340 424 340 424 315 429.5 c 128,-1,11
 290 435 290 435 269 435 c 0,12,13
 234 435 234 435 210 426 c 128,-1,14
 186 417 186 417 169 402 c 128,-1,15
 152 387 152 387 136 368 c 0,16,17
 117 347 117 347 91 347 c 0,18,19
 72 347 72 347 56 360 c 128,-1,20
 40 373 40 373 40 395 c 0,21,22
 40 405 40 405 43 415.5 c 128,-1,23
 46 426 46 426 54 436 c 0,24,25
 75 462 75 462 104.5 487 c 128,-1,26
 134 512 134 512 175.5 528.5 c 128,-1,27
 217 545 217 545 272 545 c 0,0,1
233 -10 m 0,28,29
 188 -10 188 -10 144.5 7 c 128,-1,30
 101 24 101 24 72 60.5 c 128,-1,31
 43 97 43 97 43 154 c 0,32,33
 43 206 43 206 64.5 244.5 c 128,-1,34
 86 283 86 283 133.5 304.5 c 128,-1,35
 181 326 181 326 258 326 c 2,36,-1
 776 326 l 1,37,-1
 758 308 l 1,38,-1
 758 333 l 2,39,40
 756 362 756 362 737.5 385 c 128,-1,41
 719 408 719 408 691.5 421.5 c 128,-1,42
 664 435 664 435 633 435 c 0,43,44
 603 435 603 435 577 427 c 128,-1,45
 551 419 551 419 532 400 c 128,-1,46
 513 381 513 381 502 349 c 128,-1,47
 491 317 491 317 491 268 c 0,48,49
 491 214 491 214 513.5 176.5 c 128,-1,50
 536 139 536 139 571.5 119.5 c 128,-1,51
 607 100 607 100 647 100 c 0,52,53
 684 100 684 100 706 106 c 128,-1,54
 728 112 728 112 741.5 120.5 c 128,-1,55
 755 129 755 129 766 135 c 0,56,57
 784 144 784 144 800 144 c 0,58,59
 822 144 822 144 836.5 129 c 128,-1,60
 851 114 851 114 851 94 c 0,61,62
 851 67 851 67 823 45 c 0,63,64
 797 23 797 23 750 6.5 c 128,-1,65
 703 -10 703 -10 653 -10 c 0,66,67
 568 -10 568 -10 505.5 25.5 c 128,-1,68
 443 61 443 61 409.5 122 c 128,-1,69
 376 183 376 183 376 260 c 0,70,71
 376 350 376 350 413 413.5 c 128,-1,72
 450 477 450 477 508.5 511 c 128,-1,73
 567 545 567 545 633 545 c 0,74,75
 684 545 684 545 729.5 524 c 128,-1,76
 775 503 775 503 810 466.5 c 128,-1,77
 845 430 845 430 865.5 382 c 128,-1,78
 886 334 886 334 886 280 c 0,79,80
 885 256 885 256 867 241 c 128,-1,81
 849 226 849 226 825 226 c 2,82,-1
 246 226 l 2,83,84
 210 226 210 226 192.5 215 c 128,-1,85
 175 204 175 204 169 188 c 128,-1,86
 163 172 163 172 163 156 c 0,87,88
 163 136 163 136 174 123 c 128,-1,89
 185 110 185 110 202 104 c 128,-1,90
 219 98 219 98 237 98 c 0,91,92
 282 98 282 98 312 111.5 c 128,-1,93
 342 125 342 125 360.5 144.5 c 128,-1,94
 379 164 379 164 388 181 c 1,95,-1
 441 100 l 1,96,97
 427 79 427 79 397 53 c 128,-1,98
 367 27 367 27 325.5 8.5 c 128,-1,99
 284 -10 284 -10 233 -10 c 0,28,29
EndSplineSet
EndChar

StartChar: b
Encoding: 98 98 273
Width: 628
GlyphClass: 2
Flags: W
AnchorPoint: "Anchor-2" 312 0 basechar 0
AnchorPoint: "Anchor-0" 312 515 basechar 0
LayerCount: 2
Fore
SplineSet
342 545 m 0,0,1
 412 545 412 545 467.5 509.5 c 128,-1,2
 523 474 523 474 555.5 412 c 128,-1,3
 588 350 588 350 588 268 c 256,4,5
 588 186 588 186 555.5 123.5 c 128,-1,6
 523 61 523 61 468.5 25.5 c 128,-1,7
 414 -10 414 -10 346 -10 c 0,8,9
 306 -10 306 -10 271 3 c 128,-1,10
 236 16 236 16 209.5 36 c 128,-1,11
 183 56 183 56 168.5 76.5 c 128,-1,12
 154 97 154 97 154 111 c 1,13,-1
 185 124 l 1,14,-1
 185 51 l 2,15,16
 185 25 185 25 168 7.5 c 128,-1,17
 151 -10 151 -10 125 -10 c 256,18,19
 99 -10 99 -10 82 7 c 128,-1,20
 65 24 65 24 65 51 c 2,21,-1
 65 679 l 2,22,23
 65 705 65 705 82 722.5 c 128,-1,24
 99 740 99 740 125 740 c 256,25,26
 151 740 151 740 168 722.5 c 128,-1,27
 185 705 185 705 185 679 c 2,28,-1
 185 425 l 1,29,-1
 168 434 l 1,30,31
 168 447 168 447 182 465.5 c 128,-1,32
 196 484 196 484 220 502.5 c 128,-1,33
 244 521 244 521 275.5 533 c 128,-1,34
 307 545 307 545 342 545 c 0,0,1
327 435 m 256,35,36
 283 435 283 435 250 413 c 128,-1,37
 217 391 217 391 198.5 353.5 c 128,-1,38
 180 316 180 316 180 268 c 0,39,40
 180 221 180 221 198.5 182.5 c 128,-1,41
 217 144 217 144 250 122 c 128,-1,42
 283 100 283 100 327 100 c 256,43,44
 371 100 371 100 403.5 122 c 128,-1,45
 436 144 436 144 454.5 182.5 c 128,-1,46
 473 221 473 221 473 268 c 0,47,48
 473 316 473 316 454.5 353.5 c 128,-1,49
 436 391 436 391 403.5 413 c 128,-1,50
 371 435 371 435 327 435 c 256,35,36
EndSplineSet
EndChar

StartChar: c
Encoding: 99 99 274
Width: 520
GlyphClass: 2
Flags: W
AnchorPoint: "Anchor-2" 263 0 basechar 0
AnchorPoint: "Anchor-0" 303 515 basechar 0
LayerCount: 2
Fore
SplineSet
303 545 m 0,0,1
 360 545 360 545 402.5 533 c 128,-1,2
 445 521 445 521 468.5 499.5 c 128,-1,3
 492 478 492 478 492 448 c 0,4,5
 492 428 492 428 480 410.5 c 128,-1,6
 468 393 468 393 445 393 c 0,7,8
 429 393 429 393 418.5 397.5 c 128,-1,9
 408 402 408 402 400 409 c 128,-1,10
 392 416 392 416 381 422 c 0,11,12
 371 428 371 428 350.5 431.5 c 128,-1,13
 330 435 330 435 320 435 c 0,14,15
 269 435 269 435 233.5 413 c 128,-1,16
 198 391 198 391 179 353.5 c 128,-1,17
 160 316 160 316 160 267 c 0,18,19
 160 219 160 219 179.5 181.5 c 128,-1,20
 199 144 199 144 233.5 122 c 128,-1,21
 268 100 268 100 313 100 c 0,22,23
 338 100 338 100 356 103 c 128,-1,24
 374 106 374 106 386 112 c 0,25,26
 400 120 400 120 411 129 c 128,-1,27
 422 138 422 138 444 138 c 0,28,29
 470 138 470 138 484 121.5 c 128,-1,30
 498 105 498 105 498 81 c 0,31,32
 498 56 498 56 470 35.5 c 128,-1,33
 442 15 442 15 396.5 2.5 c 128,-1,34
 351 -10 351 -10 298 -10 c 0,35,36
 219 -10 219 -10 161 26.5 c 128,-1,37
 103 63 103 63 71.5 126 c 128,-1,38
 40 189 40 189 40 267 c 0,39,40
 40 349 40 349 73.5 411.5 c 128,-1,41
 107 474 107 474 166.5 509.5 c 128,-1,42
 226 545 226 545 303 545 c 0,0,1
EndSplineSet
EndChar

StartChar: d
Encoding: 100 100 281
Width: 628
GlyphClass: 2
Flags: W
AnchorPoint: "Anchor-4" 480 614 basechar 0
AnchorPoint: "Anchor-2" 317 0 basechar 0
AnchorPoint: "Anchor-1" 608 515 basechar 0
AnchorPoint: "Anchor-0" 317 515 basechar 0
LayerCount: 2
Fore
SplineSet
503 740 m 256,0,1
 529 740 529 740 546 723 c 128,-1,2
 563 706 563 706 563 679 c 2,3,-1
 563 61 l 2,4,5
 563 35 563 35 546 17.5 c 128,-1,6
 529 0 529 0 503 0 c 256,7,8
 477 0 477 0 460 17.5 c 128,-1,9
 443 35 443 35 443 61 c 2,10,-1
 443 110 l 1,11,-1
 465 101 l 1,12,13
 465 88 465 88 451 69.5 c 128,-1,14
 437 51 437 51 413 33 c 128,-1,15
 389 15 389 15 356.5 2.5 c 128,-1,16
 324 -10 324 -10 286 -10 c 0,17,18
 217 -10 217 -10 161 25.5 c 128,-1,19
 105 61 105 61 72.5 123.5 c 128,-1,20
 40 186 40 186 40 267 c 0,21,22
 40 349 40 349 72.5 411.5 c 128,-1,23
 105 474 105 474 160 509.5 c 128,-1,24
 215 545 215 545 282 545 c 0,25,26
 325 545 325 545 361 532 c 128,-1,27
 397 519 397 519 423.5 499 c 128,-1,28
 450 479 450 479 464.5 458.5 c 128,-1,29
 479 438 479 438 479 424 c 1,30,-1
 443 411 l 1,31,-1
 443 679 l 2,32,33
 443 705 443 705 460 722.5 c 128,-1,34
 477 740 477 740 503 740 c 256,0,1
301 100 m 0,35,36
 345 100 345 100 378 122 c 128,-1,37
 411 144 411 144 429.5 182 c 128,-1,38
 448 220 448 220 448 267 c 0,39,40
 448 315 448 315 429.5 353 c 128,-1,41
 411 391 411 391 378 413 c 128,-1,42
 345 435 345 435 301 435 c 0,43,44
 258 435 258 435 225 413 c 128,-1,45
 192 391 192 391 173.5 353 c 128,-1,46
 155 315 155 315 155 267 c 0,47,48
 155 220 155 220 173.5 182 c 128,-1,49
 192 144 192 144 225 122 c 128,-1,50
 258 100 258 100 301 100 c 0,35,36
EndSplineSet
EndChar

StartChar: eth
Encoding: 240 240 282
Width: 586
Flags: W
LayerCount: 2
Fore
SplineSet
293 -10 m 0,0,1
 223 -10 223 -10 165.5 26 c 128,-1,2
 108 62 108 62 74 124 c 128,-1,3
 40 186 40 186 40 262 c 0,4,5
 40 319 40 319 60.5 368.5 c 128,-1,6
 81 418 81 418 115.5 455 c 128,-1,7
 150 492 150 492 192 513 c 128,-1,8
 234 534 234 534 277 534 c 0,9,10
 332 534 332 534 372 509 c 128,-1,11
 412 484 412 484 436 440.5 c 128,-1,12
 460 397 460 397 468 342 c 1,13,-1
 404 383 l 1,14,15
 404 441 404 441 393 480.5 c 128,-1,16
 382 520 382 520 360 546.5 c 128,-1,17
 338 573 338 573 304.5 590.5 c 128,-1,18
 271 608 271 608 226 621 c 0,19,20
 203 627 203 627 188 643.5 c 128,-1,21
 173 660 173 660 173 682 c 0,22,23
 173 702 173 702 185.5 721 c 128,-1,24
 198 740 198 740 225 740 c 0,25,26
 240 740 240 740 256 736 c 0,27,28
 314 719 314 719 361 687 c 128,-1,29
 408 655 408 655 442.5 612 c 128,-1,30
 477 569 477 569 500 516.5 c 128,-1,31
 523 464 523 464 534.5 404 c 128,-1,32
 546 344 546 344 546 280 c 0,33,34
 546 188 546 188 512 123 c 128,-1,35
 478 58 478 58 421 24 c 128,-1,36
 364 -10 364 -10 293 -10 c 0,0,1
293 110 m 0,37,38
 331 110 331 110 361 130 c 128,-1,39
 391 150 391 150 408.5 184.5 c 128,-1,40
 426 219 426 219 426 262 c 0,41,42
 426 306 426 306 408.5 340 c 128,-1,43
 391 374 391 374 361 394 c 128,-1,44
 331 414 331 414 293 414 c 0,45,46
 256 414 256 414 225.5 394 c 128,-1,47
 195 374 195 374 177.5 340 c 128,-1,48
 160 306 160 306 160 262 c 0,49,50
 160 219 160 219 177.5 184.5 c 128,-1,51
 195 150 195 150 225.5 130 c 128,-1,52
 256 110 256 110 293 110 c 0,37,38
181 528 m 2,53,54
 159 524 159 524 142 530 c 128,-1,55
 125 536 125 536 121 557 c 256,56,57
 117 578 117 578 128 590 c 128,-1,58
 139 602 139 602 161 606 c 2,59,-1
 278 630 l 1,60,-1
 341 653 l 1,61,-1
 453 671 l 2,62,63
 475 674 475 674 492 668 c 128,-1,64
 509 662 509 662 513 642 c 0,65,66
 517 620 517 620 505.5 608 c 128,-1,67
 494 596 494 596 473 593 c 2,68,-1
 401 582 l 1,69,-1
 356 563 l 1,70,-1
 181 528 l 2,53,54
EndSplineSet
EndChar

StartChar: e
Encoding: 101 101 289
Width: 590
GlyphClass: 2
Flags: W
AnchorPoint: "Anchor-3" 527 10 basechar 0
AnchorPoint: "Anchor-2" 295 0 basechar 0
AnchorPoint: "Anchor-0" 293 515 basechar 0
LayerCount: 2
Fore
SplineSet
317 -10 m 0,0,1
 232 -10 232 -10 169.5 25.5 c 128,-1,2
 107 61 107 61 73.5 122 c 128,-1,3
 40 183 40 183 40 260 c 0,4,5
 40 350 40 350 76.5 413.5 c 128,-1,6
 113 477 113 477 172 511 c 128,-1,7
 231 545 231 545 297 545 c 0,8,9
 348 545 348 545 393.5 524 c 128,-1,10
 439 503 439 503 474 466.5 c 128,-1,11
 509 430 509 430 529.5 382 c 128,-1,12
 550 334 550 334 550 280 c 0,13,14
 549 256 549 256 531 241 c 128,-1,15
 513 226 513 226 489 226 c 2,16,-1
 107 226 l 1,17,-1
 77 326 l 1,18,-1
 444 326 l 1,19,-1
 422 306 l 1,20,-1
 422 333 l 2,21,22
 420 362 420 362 401.5 385 c 128,-1,23
 383 408 383 408 355.5 421.5 c 128,-1,24
 328 435 328 435 297 435 c 0,25,26
 267 435 267 435 241 427 c 128,-1,27
 215 419 215 419 196 400 c 128,-1,28
 177 381 177 381 166 349 c 128,-1,29
 155 317 155 317 155 268 c 0,30,31
 155 214 155 214 177.5 176.5 c 128,-1,32
 200 139 200 139 235.5 119.5 c 128,-1,33
 271 100 271 100 311 100 c 0,34,35
 348 100 348 100 370 106 c 128,-1,36
 392 112 392 112 405.5 120.5 c 128,-1,37
 419 129 419 129 430 135 c 0,38,39
 448 144 448 144 464 144 c 0,40,41
 486 144 486 144 500.5 129 c 128,-1,42
 515 114 515 114 515 94 c 0,43,44
 515 67 515 67 487 45 c 0,45,46
 461 23 461 23 414 6.5 c 128,-1,47
 367 -10 367 -10 317 -10 c 0,0,1
EndSplineSet
EndChar

StartChar: eogonek
Encoding: 281 281 310
Width: 590
GlyphClass: 2
Flags: W
AnchorPoint: "Anchor-3" 527 10 basechar 0
AnchorPoint: "Anchor-2" 295 0 basechar 0
AnchorPoint: "Anchor-0" 303 515 basechar 0
LayerCount: 2
Fore
SplineSet
416 -207 m 0,0,1
 383 -207 383 -207 356 -195.5 c 128,-1,2
 329 -184 329 -184 312.5 -160.5 c 128,-1,3
 296 -137 296 -137 296 -100 c 0,4,5
 296 -59 296 -59 313 -31.5 c 128,-1,6
 330 -4 330 -4 357.5 14 c 128,-1,7
 385 32 385 32 417 43.5 c 128,-1,8
 449 55 449 55 479 63 c 1,9,-1
 398 2 l 1,10,11
 379 -3 379 -3 358 -6.5 c 128,-1,12
 337 -10 337 -10 317 -10 c 0,13,14
 232 -10 232 -10 169.5 25.5 c 128,-1,15
 107 61 107 61 73.5 122 c 128,-1,16
 40 183 40 183 40 260 c 0,17,18
 40 350 40 350 76.5 413.5 c 128,-1,19
 113 477 113 477 172 511 c 128,-1,20
 231 545 231 545 297 545 c 0,21,22
 348 545 348 545 393.5 524 c 128,-1,23
 439 503 439 503 474 466.5 c 128,-1,24
 509 430 509 430 529.5 382 c 128,-1,25
 550 334 550 334 550 280 c 0,26,27
 549 256 549 256 531 241 c 128,-1,28
 513 226 513 226 489 226 c 2,29,-1
 107 226 l 1,30,-1
 77 326 l 1,31,-1
 447 326 l 1,32,-1
 422 305 l 1,33,-1
 422 333 l 2,34,35
 420 362 420 362 401.5 385 c 128,-1,36
 383 408 383 408 355.5 421.5 c 128,-1,37
 328 435 328 435 297 435 c 0,38,39
 257 435 257 435 225 420.5 c 128,-1,40
 193 406 193 406 174 369.5 c 128,-1,41
 155 333 155 333 155 268 c 0,42,43
 155 214 155 214 177.5 176.5 c 128,-1,44
 200 139 200 139 235.5 119.5 c 128,-1,45
 271 100 271 100 311 100 c 0,46,47
 348 100 348 100 370 106 c 128,-1,48
 392 112 392 112 405.5 120.5 c 128,-1,49
 419 129 419 129 430 135 c 0,50,51
 448 145 448 145 464 145 c 0,52,53
 490 145 490 145 504 126 c 128,-1,54
 518 107 518 107 518 90 c 0,55,56
 518 80 518 80 512.5 68 c 128,-1,57
 507 56 507 56 489 44 c 0,58,59
 464 27 464 27 442.5 8 c 128,-1,60
 421 -11 421 -11 408 -32.5 c 128,-1,61
 395 -54 395 -54 395 -78 c 0,62,63
 395 -96 395 -96 404.5 -105 c 128,-1,64
 414 -114 414 -114 426 -114 c 256,65,66
 438 -114 438 -114 447 -102 c 256,67,68
 456 -90 456 -90 468.5 -87 c 128,-1,69
 481 -84 481 -84 488 -84 c 0,70,71
 506 -84 506 -84 519 -96.5 c 128,-1,72
 532 -109 532 -109 532 -132 c 0,73,74
 532 -148 532 -148 515.5 -165.5 c 128,-1,75
 499 -183 499 -183 472.5 -195 c 128,-1,76
 446 -207 446 -207 416 -207 c 0,0,1
EndSplineSet
EndChar

StartChar: uni0259
Encoding: 601 601 312
Width: 590
Flags: W
LayerCount: 2
Fore
SplineSet
273 545 m 0,0,1
 359 545 359 545 421 509.5 c 128,-1,2
 483 474 483 474 516.5 413 c 128,-1,3
 550 352 550 352 550 275 c 0,4,5
 550 186 550 186 513.5 122 c 128,-1,6
 477 58 477 58 418 24 c 128,-1,7
 359 -10 359 -10 293 -10 c 0,8,9
 242 -10 242 -10 196.5 11 c 128,-1,10
 151 32 151 32 116 68.5 c 128,-1,11
 81 105 81 105 60.5 153 c 128,-1,12
 40 201 40 201 40 255 c 0,13,14
 42 279 42 279 59.5 294 c 128,-1,15
 77 309 77 309 101 309 c 2,16,-1
 483 309 l 1,17,-1
 513 209 l 1,18,-1
 146 209 l 1,19,-1
 168 229 l 1,20,-1
 168 202 l 2,21,22
 171 174 171 174 189 150.5 c 128,-1,23
 207 127 207 127 234.5 113.5 c 128,-1,24
 262 100 262 100 293 100 c 0,25,26
 323 100 323 100 349 108 c 128,-1,27
 375 116 375 116 394 135 c 128,-1,28
 413 154 413 154 424 186 c 128,-1,29
 435 218 435 218 435 267 c 0,30,31
 435 322 435 322 412.5 359 c 128,-1,32
 390 396 390 396 354.5 415.5 c 128,-1,33
 319 435 319 435 279 435 c 0,34,35
 243 435 243 435 220.5 428.5 c 128,-1,36
 198 422 198 422 184.5 414 c 128,-1,37
 171 406 171 406 160 400 c 0,38,39
 142 391 142 391 126 391 c 0,40,41
 104 391 104 391 89.5 406.5 c 128,-1,42
 75 422 75 422 75 441 c 0,43,44
 75 468 75 468 103 490 c 0,45,46
 129 512 129 512 176.5 528.5 c 128,-1,47
 224 545 224 545 273 545 c 0,0,1
EndSplineSet
EndChar

StartChar: f
Encoding: 102 102 313
Width: 437
GlyphClass: 2
Flags: W
AnchorPoint: "Anchor-2" 209 0 basechar 0
AnchorPoint: "Anchor-0" 209 515 basechar 0
LayerCount: 2
Fore
SplineSet
340 740 m 0,0,1
 362 740 362 740 383 734 c 128,-1,2
 404 728 404 728 418 714.5 c 128,-1,3
 432 701 432 701 432 679 c 0,4,5
 432 654 432 654 417.5 639.5 c 128,-1,6
 403 625 403 625 384 625 c 0,7,8
 375 625 375 625 357 629.5 c 128,-1,9
 339 634 339 634 322 634 c 0,10,11
 297 634 297 634 283.5 623 c 128,-1,12
 270 612 270 612 265 597.5 c 128,-1,13
 260 583 260 583 260 572 c 2,14,-1
 260 61 l 2,15,16
 260 35 260 35 243 17.5 c 128,-1,17
 226 0 226 0 200 0 c 256,18,19
 174 0 174 0 157 17.5 c 128,-1,20
 140 35 140 35 140 61 c 2,21,-1
 140 571 l 2,22,23
 140 642 140 642 190 691 c 128,-1,24
 240 740 240 740 340 740 c 0,0,1
351 525 m 2,25,26
 375 525 375 525 391 509.5 c 128,-1,27
 407 494 407 494 407 470 c 256,28,29
 407 446 407 446 391 430.5 c 128,-1,30
 375 415 375 415 351 415 c 2,31,-1
 86 415 l 2,32,33
 62 415 62 415 46 430.5 c 128,-1,34
 30 446 30 446 30 470 c 256,35,36
 30 494 30 494 46 509.5 c 128,-1,37
 62 525 62 525 86 525 c 2,38,-1
 351 525 l 2,25,26
EndSplineSet
EndChar

StartChar: g
Encoding: 103 103 314
Width: 638
GlyphClass: 2
Flags: W
AnchorPoint: "Anchor-2" 322 0 basechar 0
AnchorPoint: "Anchor-0" 322 515 basechar 0
LayerCount: 2
Fore
SplineSet
287 545 m 0,0,1
 329 545 329 545 364 532 c 128,-1,2
 399 519 399 519 424.5 499 c 128,-1,3
 450 479 450 479 464.5 458.5 c 128,-1,4
 479 438 479 438 479 424 c 1,5,-1
 453 411 l 1,6,-1
 453 484 l 2,7,8
 453 510 453 510 470 527.5 c 128,-1,9
 487 545 487 545 513 545 c 256,10,11
 539 545 539 545 556 528 c 128,-1,12
 573 511 573 511 573 484 c 2,13,-1
 573 39 l 2,14,15
 573 -48 573 -48 535.5 -100.5 c 128,-1,16
 498 -153 498 -153 437 -176.5 c 128,-1,17
 376 -200 376 -200 306 -200 c 0,18,19
 286 -200 286 -200 254 -195 c 128,-1,20
 222 -190 222 -190 193 -183 c 128,-1,21
 164 -176 164 -176 149 -170 c 0,22,23
 119 -157 119 -157 107.5 -137.5 c 128,-1,24
 96 -118 96 -118 103 -96 c 0,25,26
 112 -67 112 -67 132 -56.5 c 128,-1,27
 152 -46 152 -46 174 -54 c 0,28,29
 184 -57 184 -57 207 -66 c 128,-1,30
 230 -75 230 -75 257.5 -82.5 c 128,-1,31
 285 -90 285 -90 306 -90 c 0,32,33
 381 -90 381 -90 417 -60 c 128,-1,34
 453 -30 453 -30 453 23 c 2,35,-1
 453 110 l 1,36,-1
 465 101 l 1,37,38
 465 88 465 88 451.5 69.5 c 128,-1,39
 438 51 438 51 414.5 33 c 128,-1,40
 391 15 391 15 359 2.5 c 128,-1,41
 327 -10 327 -10 291 -10 c 0,42,43
 220 -10 220 -10 163 25.5 c 128,-1,44
 106 61 106 61 73 123.5 c 128,-1,45
 40 186 40 186 40 267 c 0,46,47
 40 349 40 349 73 411.5 c 128,-1,48
 106 474 106 474 162 509.5 c 128,-1,49
 218 545 218 545 287 545 c 0,0,1
306 435 m 0,50,51
 261 435 261 435 227 413 c 128,-1,52
 193 391 193 391 174 353 c 128,-1,53
 155 315 155 315 155 267 c 0,54,55
 155 220 155 220 174 182 c 128,-1,56
 193 144 193 144 227 122 c 128,-1,57
 261 100 261 100 306 100 c 0,58,59
 352 100 352 100 386 122 c 128,-1,60
 420 144 420 144 439 182 c 128,-1,61
 458 220 458 220 458 267 c 0,62,63
 458 315 458 315 439 353 c 128,-1,64
 420 391 420 391 386 413 c 128,-1,65
 352 435 352 435 306 435 c 0,50,51
EndSplineSet
Substitution2: "'ss01' Style Set 1 in Latin lookup 39 subtable" g.ss01
Substitution2: "'aalt' Access All Alternates in Latin lookup 0 subtable" g.ss01
EndChar

StartChar: h
Encoding: 104 104 321
Width: 586
GlyphClass: 2
Flags: W
AnchorPoint: "Anchor-4" 119 594 basechar 0
AnchorPoint: "Anchor-2" 293 0 basechar 0
AnchorPoint: "Anchor-0" 125 740 basechar 0
LayerCount: 2
Fore
SplineSet
346 545 m 0,0,1
 418 545 418 545 455.5 514 c 128,-1,2
 493 483 493 483 507 431.5 c 128,-1,3
 521 380 521 380 521 317 c 2,4,-1
 521 61 l 2,5,6
 521 35 521 35 504 17.5 c 128,-1,7
 487 0 487 0 461 0 c 256,8,9
 435 0 435 0 418 17.5 c 128,-1,10
 401 35 401 35 401 61 c 2,11,-1
 401 317 l 2,12,13
 401 350 401 350 393 376.5 c 128,-1,14
 385 403 385 403 364 419 c 128,-1,15
 343 435 343 435 304 435 c 0,16,17
 266 435 266 435 239 419 c 128,-1,18
 212 403 212 403 198.5 376.5 c 128,-1,19
 185 350 185 350 185 317 c 2,20,-1
 185 61 l 2,21,22
 185 35 185 35 168 17.5 c 128,-1,23
 151 0 151 0 125 0 c 256,24,25
 99 0 99 0 82 17.5 c 128,-1,26
 65 35 65 35 65 61 c 2,27,-1
 65 679 l 2,28,29
 65 705 65 705 82 722.5 c 128,-1,30
 99 740 99 740 125 740 c 256,31,32
 151 740 151 740 168 722.5 c 128,-1,33
 185 705 185 705 185 679 c 2,34,-1
 185 431 l 1,35,-1
 170 434 l 1,36,37
 179 451 179 451 195 470.5 c 128,-1,38
 211 490 211 490 234 507 c 128,-1,39
 257 524 257 524 285 534.5 c 128,-1,40
 313 545 313 545 346 545 c 0,0,1
EndSplineSet
EndChar

StartChar: dotlessi
Encoding: 305 305 327
Width: 236
GlyphClass: 2
Flags: W
AnchorPoint: "Anchor-3" 212 10 basechar 0
AnchorPoint: "Anchor-2" 118 0 basechar 0
AnchorPoint: "Anchor-0" 118 535 basechar 0
LayerCount: 2
Fore
SplineSet
178 61 m 2,0,1
 178 35 178 35 161 17.5 c 128,-1,2
 144 0 144 0 118 0 c 256,3,4
 92 0 92 0 75 17.5 c 128,-1,5
 58 35 58 35 58 61 c 2,6,-1
 58 474 l 2,7,8
 58 500 58 500 75 517.5 c 128,-1,9
 92 535 92 535 118 535 c 256,10,11
 144 535 144 535 161 517.5 c 128,-1,12
 178 500 178 500 178 474 c 2,13,-1
 178 61 l 2,0,1
EndSplineSet
EndChar

StartChar: ibreve
Encoding: 301 301 329
Width: 236
GlyphClass: 2
Flags: W
AnchorPoint: "Anchor-3" 212 10 basechar 0
AnchorPoint: "Anchor-2" 118 0 basechar 0
AnchorPoint: "Anchor-0" 118 746 basechar 0
LayerCount: 2
Fore
SplineSet
123 600 m 0,0,1
 96 600 96 600 65 611 c 0,2,3
 49 616 49 616 20 642 c 0,4,5
 -3 663 -3 663 -15 693 c 0,6,7
 -25 718 -25 718 -15 733 c 256,8,9
 -5 748 -5 748 14 748 c 0,10,11
 25 748 25 748 38 739 c 0,12,13
 51 729 51 729 64 712 c 0,14,15
 75 699 75 699 92 692 c 0,16,17
 108 685 108 685 123 685 c 256,18,19
 138 685 138 685 155 692 c 0,20,21
 171 699 171 699 182 712 c 0,22,23
 196 729 196 729 209 739 c 0,24,25
 221 748 221 748 232 748 c 0,26,27
 252 748 252 748 262 734 c 0,28,29
 272 719 272 719 262 695 c 0,30,31
 250 665 250 665 227 644 c 0,32,33
 198 616 198 616 183 611 c 0,34,35
 151 600 151 600 123 600 c 0,0,1
178 61 m 2,36,37
 178 35 178 35 161 17.5 c 128,-1,38
 144 0 144 0 118 0 c 256,39,40
 92 0 92 0 75 17.5 c 128,-1,41
 58 35 58 35 58 61 c 2,42,-1
 58 474 l 2,43,44
 58 500 58 500 75 517.5 c 128,-1,45
 92 535 92 535 118 535 c 256,46,47
 144 535 144 535 161 517.5 c 128,-1,48
 178 500 178 500 178 474 c 2,49,-1
 178 61 l 2,36,37
EndSplineSet
EndChar

StartChar: imacron
Encoding: 299 299 341
Width: 236
GlyphClass: 2
Flags: W
AnchorPoint: "Anchor-3" 212 10 basechar 0
AnchorPoint: "Anchor-2" 118 0 basechar 0
AnchorPoint: "Anchor-0" 118 689 basechar 0
LayerCount: 2
Fore
SplineSet
61 590 m 2,0,1
 35 590 35 590 18 606 c 0,2,3
 0 621 0 621 0 646 c 0,4,5
 0 669 0 669 18 685 c 0,6,7
 35 700 35 700 61 700 c 2,8,-1
 175 700 l 2,9,10
 201 700 201 700 219 685 c 0,11,12
 236 669 236 669 236 646 c 0,13,14
 236 621 236 621 219 606 c 0,15,16
 201 590 201 590 175 590 c 2,17,-1
 61 590 l 2,0,1
178 61 m 2,18,19
 178 35 178 35 161 17.5 c 128,-1,20
 144 0 144 0 118 0 c 256,21,22
 92 0 92 0 75 17.5 c 128,-1,23
 58 35 58 35 58 61 c 2,24,-1
 58 474 l 2,25,26
 58 500 58 500 75 517.5 c 128,-1,27
 92 535 92 535 118 535 c 256,28,29
 144 535 144 535 161 517.5 c 128,-1,30
 178 500 178 500 178 474 c 2,31,-1
 178 61 l 2,18,19
EndSplineSet
EndChar

StartChar: iogonek
Encoding: 303 303 342
Width: 236
GlyphClass: 2
Flags: W
AnchorPoint: "Anchor-3" 212 10 basechar 0
AnchorPoint: "Anchor-2" 118 0 basechar 0
AnchorPoint: "Anchor-0" 118 515 basechar 0
LayerCount: 2
Fore
SplineSet
101 -207 m 0,0,1
 52 -207 52 -207 16.5 -181 c 128,-1,2
 -19 -155 -19 -155 -19 -100 c 0,3,4
 -19 -59 -19 -59 -2 -34 c 128,-1,5
 15 -9 15 -9 42 6.5 c 128,-1,6
 69 22 69 22 101.5 31 c 128,-1,7
 134 40 134 40 164 48 c 2,8,-1
 58 6 l 1,9,-1
 58 474 l 2,10,11
 58 500 58 500 75 517.5 c 128,-1,12
 92 535 92 535 118 535 c 256,13,14
 144 535 144 535 161 517.5 c 128,-1,15
 178 500 178 500 178 474 c 2,16,-1
 178 64 l 2,17,18
 178 36 178 36 168 20.5 c 128,-1,19
 158 5 158 5 143.5 -4 c 128,-1,20
 129 -13 129 -13 114.5 -21 c 128,-1,21
 100 -29 100 -29 90 -42 c 128,-1,22
 80 -55 80 -55 80 -78 c 0,23,24
 80 -96 80 -96 89.5 -105 c 128,-1,25
 99 -114 99 -114 111 -114 c 0,26,27
 117 -114 117 -114 122.5 -111 c 128,-1,28
 128 -108 128 -108 132 -102 c 0,29,30
 141 -90 141 -90 153.5 -87 c 128,-1,31
 166 -84 166 -84 173 -84 c 0,32,33
 191 -84 191 -84 204 -96.5 c 128,-1,34
 217 -109 217 -109 217 -132 c 0,35,36
 217 -148 217 -148 200.5 -165.5 c 128,-1,37
 184 -183 184 -183 157.5 -195 c 128,-1,38
 131 -207 131 -207 101 -207 c 0,0,1
117 600 m 256,39,40
 83 600 83 600 69 611 c 128,-1,41
 55 622 55 622 55 650 c 2,42,-1
 55 669 l 2,43,44
 55 698 55 698 70.5 708.5 c 128,-1,45
 86 719 86 719 118 719 c 0,46,47
 153 719 153 719 167 708 c 128,-1,48
 181 697 181 697 181 669 c 2,49,-1
 181 650 l 2,50,51
 181 621 181 621 166 610.5 c 128,-1,52
 151 600 151 600 117 600 c 256,39,40
EndSplineSet
EndChar

StartChar: uni0237
Encoding: 567 567 345
Width: 275
GlyphClass: 2
Flags: W
AnchorPoint: "Anchor-2" 67 -200 basechar 0
AnchorPoint: "Anchor-0" 139 535 basechar 0
LayerCount: 2
Fore
SplineSet
200 -10 m 2,0,1
 200 -67 200 -67 178 -108.5 c 128,-1,2
 156 -150 156 -150 119 -175 c 0,3,4
 85 -198 85 -198 44 -200 c 0,5,6
 40 -200 40 -200 -14 -200 c 0,7,8
 -39 -200 -39 -200 -54.5 -183.5 c 128,-1,9
 -70 -167 -70 -167 -70 -144 c 2,10,-1
 -70 -133 l 2,11,12
 -70 -111 -70 -111 -55 -98 c 0,13,14
 -43 -87 -43 -87 -25 -80 c 0,15,16
 -22 -79 -22 -79 -19 -78 c 0,17,18
 36 -76 36 -76 37 -76 c 0,19,20
 56 -68 56 -68 65 -53 c 0,21,22
 75 -37 75 -37 77.5 -17 c 128,-1,23
 80 3 80 3 80 25 c 2,24,-1
 80 474 l 2,25,26
 80 500 80 500 97 517.5 c 128,-1,27
 114 535 114 535 140 535 c 256,28,29
 166 535 166 535 183 517.5 c 128,-1,30
 200 500 200 500 200 474 c 2,31,-1
 200 -10 l 2,0,1
EndSplineSet
EndChar

StartChar: k
Encoding: 107 107 348
Width: 569
GlyphClass: 2
Flags: W
AnchorPoint: "Anchor-2" 285 0 basechar 0
AnchorPoint: "Anchor-0" 285 525 basechar 0
LayerCount: 2
Fore
SplineSet
135 0 m 256,0,1
 109 0 109 0 92 17.5 c 128,-1,2
 75 35 75 35 75 61 c 2,3,-1
 75 679 l 2,4,5
 75 705 75 705 92 722.5 c 128,-1,6
 109 740 109 740 135 740 c 256,7,8
 161 740 161 740 178 722.5 c 128,-1,9
 195 705 195 705 195 679 c 2,10,-1
 195 61 l 2,11,12
 195 35 195 35 178 17.5 c 128,-1,13
 161 0 161 0 135 0 c 256,0,1
453 535 m 0,14,15
 476 535 476 535 493 516 c 128,-1,16
 510 497 510 497 510 479 c 0,17,18
 510 455 510 455 486 434 c 2,19,-1
 251 232 l 1,20,-1
 189 231 l 1,21,-1
 180 313 l 1,22,-1
 409 516 l 2,23,24
 428 535 428 535 453 535 c 0,14,15
468 1 m 0,25,26
 442 1 442 1 424 21 c 2,27,-1
 189 231 l 1,28,-1
 280 315 l 1,29,-1
 510 105 l 2,30,31
 529 85 529 85 529 60 c 0,32,33
 529 34 529 34 508.5 17.5 c 128,-1,34
 488 1 488 1 468 1 c 0,25,26
EndSplineSet
EndChar

StartChar: kgreenlandic
Encoding: 312 312 350
Width: 569
GlyphClass: 2
Flags: W
AnchorPoint: "Anchor-2" 300 0 basechar 0
AnchorPoint: "Anchor-0" 300 515 basechar 0
LayerCount: 2
Fore
SplineSet
135 0 m 256,0,1
 109 0 109 0 92 17.5 c 128,-1,2
 75 35 75 35 75 61 c 2,3,-1
 75 474 l 2,4,5
 75 500 75 500 92 517.5 c 128,-1,6
 109 535 109 535 135 535 c 256,7,8
 161 535 161 535 178 517.5 c 128,-1,9
 195 500 195 500 195 474 c 2,10,-1
 195 61 l 2,11,12
 195 35 195 35 178 17.5 c 128,-1,13
 161 0 161 0 135 0 c 256,0,1
453 535 m 0,14,15
 476 535 476 535 493 516 c 128,-1,16
 510 497 510 497 510 479 c 0,17,18
 510 455 510 455 486 434 c 2,19,-1
 185 157 l 1,20,-1
 180 295 l 1,21,-1
 409 516 l 2,22,23
 428 535 428 535 453 535 c 0,14,15
468 1 m 0,24,25
 442 1 442 1 424 21 c 2,26,-1
 239 217 l 1,27,-1
 330 301 l 1,28,-1
 510 105 l 2,29,30
 529 85 529 85 529 60 c 0,31,32
 529 34 529 34 508.5 17.5 c 128,-1,33
 488 1 488 1 468 1 c 0,24,25
EndSplineSet
EndChar

StartChar: l
Encoding: 108 108 351
Width: 270
GlyphClass: 2
Flags: W
AnchorPoint: "Anchor-4" 135 258 basechar 0
AnchorPoint: "Anchor-2" 135 0 basechar 0
AnchorPoint: "Anchor-1" 250 515 basechar 0
AnchorPoint: "Anchor-0" 136 740 basechar 0
LayerCount: 2
Fore
SplineSet
195 61 m 2,0,1
 195 35 195 35 177.5 17.5 c 128,-1,2
 160 0 160 0 134 0 c 0,3,4
 109 0 109 0 92 17.5 c 128,-1,5
 75 35 75 35 75 61 c 2,6,-1
 75 679 l 2,7,8
 75 705 75 705 92.5 722.5 c 128,-1,9
 110 740 110 740 136 740 c 256,10,11
 162 740 162 740 178.5 722.5 c 128,-1,12
 195 705 195 705 195 679 c 2,13,-1
 195 61 l 2,0,1
EndSplineSet
EndChar

StartChar: lcaron
Encoding: 318 318 353
Width: 337
Flags: W
LayerCount: 2
Fore
SplineSet
195 61 m 2,0,1
 195 35 195 35 177.5 17.5 c 128,-1,2
 160 0 160 0 134 0 c 0,3,4
 109 0 109 0 92 17.5 c 128,-1,5
 75 35 75 35 75 61 c 2,6,-1
 75 679 l 2,7,8
 75 705 75 705 92.5 722.5 c 128,-1,9
 110 740 110 740 136 740 c 256,10,11
 162 740 162 740 178.5 722.5 c 128,-1,12
 195 705 195 705 195 679 c 2,13,-1
 195 61 l 2,0,1
415 646 m 0,14,15
 415 613 415 613 396.5 579.5 c 128,-1,16
 378 546 378 546 348.5 523.5 c 128,-1,17
 319 501 319 501 286 501 c 0,18,19
 275 501 275 501 262.5 510 c 128,-1,20
 250 519 250 519 250 541 c 0,21,22
 250 564 250 564 264.5 568.5 c 128,-1,23
 279 573 279 573 289 578 c 0,24,25
 302 585 302 585 309.5 594.5 c 128,-1,26
 317 604 317 604 317 618 c 0,27,28
 317 629 317 629 306.5 637.5 c 128,-1,29
 296 646 296 646 279 646 c 0,30,31
 273 646 273 646 265 644.5 c 128,-1,32
 257 643 257 643 251 639 c 1,33,34
 241 644 241 644 233.5 651.5 c 128,-1,35
 226 659 226 659 226 676 c 0,36,37
 226 707 226 707 254.5 729.5 c 128,-1,38
 283 752 283 752 321 752 c 0,39,40
 364 752 364 752 389.5 723 c 128,-1,41
 415 694 415 694 415 646 c 0,14,15
EndSplineSet
EndChar

StartChar: lslash
Encoding: 322 322 360
Width: 270
GlyphClass: 2
Flags: W
AnchorPoint: "Anchor-4" 135 258 basechar 0
AnchorPoint: "Anchor-2" 135 0 basechar 0
AnchorPoint: "Anchor-1" 250 515 basechar 0
AnchorPoint: "Anchor-0" 136 740 basechar 0
LayerCount: 2
Fore
SplineSet
29 270 m 0,0,1
 4 270 4 270 -8 288.5 c 128,-1,2
 -20 307 -20 307 -20 321 c 0,3,4
 -20 351 -20 351 11 366 c 2,5,-1
 226 465 l 2,6,7
 232 467 232 467 237.5 468.5 c 128,-1,8
 243 470 243 470 249 470 c 0,9,10
 274 470 274 470 286 451.5 c 128,-1,11
 298 433 298 433 298 419 c 256,12,13
 298 405 298 405 289.5 393 c 128,-1,14
 281 381 281 381 267 374 c 2,15,-1
 52 275 l 2,16,17
 46 272 46 272 40 271 c 128,-1,18
 34 270 34 270 29 270 c 0,0,1
195 61 m 2,19,20
 195 35 195 35 177.5 17.5 c 128,-1,21
 160 0 160 0 134 0 c 0,22,23
 109 0 109 0 92 17.5 c 128,-1,24
 75 35 75 35 75 61 c 2,25,-1
 75 679 l 2,26,27
 75 705 75 705 92.5 722.5 c 128,-1,28
 110 740 110 740 136 740 c 256,29,30
 162 740 162 740 178.5 722.5 c 128,-1,31
 195 705 195 705 195 679 c 2,32,-1
 195 61 l 2,19,20
EndSplineSet
EndChar

StartChar: m
Encoding: 109 109 361
Width: 922
GlyphClass: 2
Flags: W
AnchorPoint: "Anchor-2" 461 0 basechar 0
AnchorPoint: "Anchor-0" 461 515 basechar 0
LayerCount: 2
Fore
SplineSet
346 545 m 0,0,1
 426 545 426 545 464 506.5 c 128,-1,2
 502 468 502 468 514 407 c 1,3,-1
 497 416 l 1,4,-1
 505 432 l 2,5,6
 517 455 517 455 542 481.5 c 128,-1,7
 567 508 567 508 602.5 526.5 c 128,-1,8
 638 545 638 545 682 545 c 0,9,10
 754 545 754 545 791.5 514 c 128,-1,11
 829 483 829 483 843 431.5 c 128,-1,12
 857 380 857 380 857 317 c 2,13,-1
 857 61 l 2,14,15
 857 35 857 35 840 17.5 c 128,-1,16
 823 0 823 0 797 0 c 256,17,18
 771 0 771 0 754 17.5 c 128,-1,19
 737 35 737 35 737 61 c 2,20,-1
 737 317 l 2,21,22
 737 350 737 350 729 376.5 c 128,-1,23
 721 403 721 403 700 419 c 128,-1,24
 679 435 679 435 640 435 c 0,25,26
 602 435 602 435 575 419 c 128,-1,27
 548 403 548 403 534.5 376.5 c 128,-1,28
 521 350 521 350 521 317 c 2,29,-1
 521 61 l 2,30,31
 521 35 521 35 504 17.5 c 128,-1,32
 487 0 487 0 461 0 c 260,33,34
 435 0 435 0 418 17.5 c 128,-1,35
 401 35 401 35 401 61 c 2,36,-1
 401 317 l 2,37,38
 401 350 401 350 393 376.5 c 128,-1,39
 385 403 385 403 364 419 c 128,-1,40
 343 435 343 435 304 435 c 0,41,42
 266 435 266 435 239 419 c 128,-1,43
 212 403 212 403 198.5 376.5 c 128,-1,44
 185 350 185 350 185 317 c 2,45,-1
 185 61 l 2,46,47
 185 35 185 35 168 17.5 c 128,-1,48
 151 0 151 0 125 0 c 256,49,50
 99 0 99 0 82 17.5 c 128,-1,51
 65 35 65 35 65 61 c 2,52,-1
 65 474 l 2,53,54
 65 500 65 500 82 517.5 c 128,-1,55
 99 535 99 535 125 535 c 256,56,57
 151 535 151 535 168 517.5 c 128,-1,58
 185 500 185 500 185 474 c 2,59,-1
 185 431 l 1,60,-1
 170 434 l 1,61,62
 179 451 179 451 195 470.5 c 128,-1,63
 211 490 211 490 234 507 c 128,-1,64
 257 524 257 524 285 534.5 c 128,-1,65
 313 545 313 545 346 545 c 0,0,1
EndSplineSet
EndChar

StartChar: n
Encoding: 110 110 363
Width: 596
GlyphClass: 2
Flags: W
AnchorPoint: "Anchor-2" 298 0 basechar 0
AnchorPoint: "Anchor-0" 313 515 basechar 0
LayerCount: 2
Fore
SplineSet
351 545 m 0,0,1
 425 545 425 545 463.5 514 c 128,-1,2
 502 483 502 483 516.5 431.5 c 128,-1,3
 531 380 531 380 531 317 c 2,4,-1
 531 61 l 2,5,6
 531 35 531 35 514 17.5 c 128,-1,7
 497 0 497 0 471 0 c 256,8,9
 445 0 445 0 428 17.5 c 128,-1,10
 411 35 411 35 411 61 c 2,11,-1
 411 317 l 2,12,13
 411 350 411 350 402.5 376.5 c 128,-1,14
 394 403 394 403 372 419 c 128,-1,15
 350 435 350 435 309 435 c 0,16,17
 269 435 269 435 241.5 419 c 128,-1,18
 214 403 214 403 199.5 376.5 c 128,-1,19
 185 350 185 350 185 317 c 2,20,-1
 185 61 l 2,21,22
 185 35 185 35 168 17.5 c 128,-1,23
 151 0 151 0 125 0 c 256,24,25
 99 0 99 0 82 17.5 c 128,-1,26
 65 35 65 35 65 61 c 2,27,-1
 65 474 l 2,28,29
 65 500 65 500 82 517.5 c 128,-1,30
 99 535 99 535 125 535 c 256,31,32
 151 535 151 535 168 517.5 c 128,-1,33
 185 500 185 500 185 474 c 2,34,-1
 185 431 l 1,35,-1
 170 434 l 1,36,37
 179 451 179 451 196 470.5 c 128,-1,38
 213 490 213 490 236 507 c 128,-1,39
 259 524 259 524 288 534.5 c 128,-1,40
 317 545 317 545 351 545 c 0,0,1
EndSplineSet
EndChar

StartChar: uni0272
Encoding: 626 626 371
Width: 600
Flags: W
LayerCount: 2
Fore
SplineSet
16 -196 m 0,0,1
 -6 -196 -6 -196 -20.5 -179 c 128,-1,2
 -35 -162 -35 -162 -35 -140 c 0,3,4
 -35 -109 -35 -109 -22.5 -96 c 128,-1,5
 -10 -83 -10 -83 16 -74 c 0,6,7
 40 -66 40 -66 50 -51.5 c 128,-1,8
 60 -37 60 -37 62.5 -17 c 128,-1,9
 65 3 65 3 65 25 c 2,10,-1
 65 474 l 2,11,12
 65 500 65 500 82 517.5 c 128,-1,13
 99 535 99 535 125 535 c 256,14,15
 151 535 151 535 168 517.5 c 128,-1,16
 185 500 185 500 185 474 c 2,17,-1
 185 431 l 1,18,-1
 170 434 l 1,19,20
 179 451 179 451 196 470.5 c 128,-1,21
 213 490 213 490 236 507 c 128,-1,22
 259 524 259 524 288 534.5 c 128,-1,23
 317 545 317 545 351 545 c 0,24,25
 425 545 425 545 463.5 514 c 128,-1,26
 502 483 502 483 516.5 431.5 c 128,-1,27
 531 380 531 380 531 317 c 2,28,-1
 531 61 l 2,29,30
 531 35 531 35 514 17.5 c 128,-1,31
 497 0 497 0 471 0 c 256,32,33
 445 0 445 0 428 17.5 c 128,-1,34
 411 35 411 35 411 61 c 2,35,-1
 411 317 l 2,36,37
 411 350 411 350 402.5 376.5 c 128,-1,38
 394 403 394 403 372 419 c 128,-1,39
 350 435 350 435 309 435 c 0,40,41
 269 435 269 435 241.5 419 c 128,-1,42
 214 403 214 403 199.5 376.5 c 128,-1,43
 185 350 185 350 185 317 c 2,44,-1
 185 -10 l 2,45,46
 185 -65 185 -65 171 -100 c 128,-1,47
 157 -135 157 -135 135 -155 c 128,-1,48
 113 -175 113 -175 89 -183.5 c 128,-1,49
 65 -192 65 -192 45.5 -194 c 128,-1,50
 26 -196 26 -196 16 -196 c 0,0,1
EndSplineSet
EndChar

StartChar: eng
Encoding: 331 331 375
Width: 596
GlyphClass: 2
Flags: W
AnchorPoint: "Anchor-2" 286 0 basechar 0
AnchorPoint: "Anchor-0" 298 515 basechar 0
LayerCount: 2
Fore
SplineSet
354 -200 m 0,0,1
 326 -200 326 -200 308 -186 c 128,-1,2
 290 -172 290 -172 290 -148 c 256,3,4
 290 -124 290 -124 306.5 -107.5 c 128,-1,5
 323 -91 323 -91 348 -90 c 0,6,7
 369 -89 369 -89 383 -82 c 128,-1,8
 397 -75 397 -75 404 -59.5 c 128,-1,9
 411 -44 411 -44 411 -19 c 2,10,-1
 411 317 l 2,11,12
 411 350 411 350 402.5 376.5 c 128,-1,13
 394 403 394 403 372 419 c 128,-1,14
 350 435 350 435 309 435 c 0,15,16
 269 435 269 435 241.5 419 c 128,-1,17
 214 403 214 403 199.5 376.5 c 128,-1,18
 185 350 185 350 185 317 c 2,19,-1
 185 61 l 2,20,21
 185 35 185 35 168 17.5 c 128,-1,22
 151 0 151 0 125 0 c 256,23,24
 99 0 99 0 82 17.5 c 128,-1,25
 65 35 65 35 65 61 c 2,26,-1
 65 474 l 2,27,28
 65 500 65 500 82 517.5 c 128,-1,29
 99 535 99 535 125 535 c 256,30,31
 151 535 151 535 168 517.5 c 128,-1,32
 185 500 185 500 185 474 c 2,33,-1
 185 431 l 1,34,-1
 170 434 l 1,35,36
 179 451 179 451 196 470.5 c 128,-1,37
 213 490 213 490 236 507 c 128,-1,38
 259 524 259 524 288 534.5 c 128,-1,39
 317 545 317 545 351 545 c 0,40,41
 425 545 425 545 463.5 514 c 128,-1,42
 502 483 502 483 516.5 431.5 c 128,-1,43
 531 380 531 380 531 317 c 2,44,-1
 531 -14 l 2,45,46
 531 -85 531 -85 505 -126 c 128,-1,47
 479 -167 479 -167 438.5 -183.5 c 128,-1,48
 398 -200 398 -200 354 -200 c 0,0,1
EndSplineSet
EndChar

StartChar: o
Encoding: 111 111 376
Width: 624
GlyphClass: 2
Flags: W
AnchorPoint: "Anchor-5" 299 250 basechar 0
AnchorPoint: "Anchor-4" 312 258 basechar 0
AnchorPoint: "Anchor-3" 558 10 basechar 0
AnchorPoint: "Anchor-2" 312 0 basechar 0
AnchorPoint: "Anchor-1" 326 545 basechar 0
AnchorPoint: "Anchor-0" 312 515 basechar 0
LayerCount: 2
Fore
SplineSet
584 267 m 256,0,1
 584 185 584 185 547.5 122.5 c 128,-1,2
 511 60 511 60 449.5 25 c 128,-1,3
 388 -10 388 -10 312 -10 c 256,4,5
 236 -10 236 -10 174.5 25 c 128,-1,6
 113 60 113 60 76.5 122.5 c 128,-1,7
 40 185 40 185 40 267 c 256,8,9
 40 349 40 349 76.5 411.5 c 128,-1,10
 113 474 113 474 174.5 509.5 c 128,-1,11
 236 545 236 545 312 545 c 256,12,13
 388 545 388 545 449.5 509.5 c 128,-1,14
 511 474 511 474 547.5 411.5 c 128,-1,15
 584 349 584 349 584 267 c 256,0,1
464 267 m 0,16,17
 464 318 464 318 443.5 355.5 c 128,-1,18
 423 393 423 393 388.5 414 c 128,-1,19
 354 435 354 435 312 435 c 256,20,21
 270 435 270 435 235.5 414 c 128,-1,22
 201 393 201 393 180.5 355.5 c 128,-1,23
 160 318 160 318 160 267 c 0,24,25
 160 217 160 217 180.5 179.5 c 128,-1,26
 201 142 201 142 235.5 121 c 128,-1,27
 270 100 270 100 312 100 c 256,28,29
 354 100 354 100 388.5 121 c 128,-1,30
 423 142 423 142 443.5 179.5 c 128,-1,31
 464 217 464 217 464 267 c 0,16,17
EndSplineSet
Substitution2: "Single Substitution lookup 33 subtable" ordmasculine
Substitution2: "'aalt' Access All Alternates in Latin lookup 0 subtable" ordmasculine
EndChar

StartChar: uni01EB
Encoding: 491 491 404
Width: 614
Flags: W
LayerCount: 2
Fore
SplineSet
459 267 m 0,0,1
 459 318 459 318 438.5 355.5 c 128,-1,2
 418 393 418 393 383.5 414 c 128,-1,3
 349 435 349 435 307 435 c 256,4,5
 265 435 265 435 230.5 414 c 128,-1,6
 196 393 196 393 175.5 355.5 c 128,-1,7
 155 318 155 318 155 267 c 0,8,9
 155 217 155 217 175.5 179.5 c 128,-1,10
 196 142 196 142 230.5 121 c 128,-1,11
 265 100 265 100 307 100 c 256,12,13
 349 100 349 100 383.5 121 c 128,-1,14
 418 142 418 142 438.5 179.5 c 128,-1,15
 459 217 459 217 459 267 c 0,0,1
374 -207 m 0,16,17
 323 -207 323 -207 286 -179 c 128,-1,18
 249 -151 249 -151 249 -90 c 0,19,20
 249 -44 249 -44 266.5 -11.5 c 128,-1,21
 284 21 284 21 312.5 43 c 128,-1,22
 341 65 341 65 374 79 c 128,-1,23
 407 93 407 93 437 102 c 1,24,25
 405 74 405 74 372 46 c 128,-1,26
 339 18 339 18 307 -10 c 1,27,28
 231 -10 231 -10 169.5 25 c 128,-1,29
 108 60 108 60 71.5 122.5 c 128,-1,30
 35 185 35 185 35 267 c 256,31,32
 35 349 35 349 71.5 411.5 c 128,-1,33
 108 474 108 474 169.5 509.5 c 128,-1,34
 231 545 231 545 307 545 c 256,35,36
 383 545 383 545 444.5 509.5 c 128,-1,37
 506 474 506 474 542.5 411.5 c 128,-1,38
 579 349 579 349 579 267 c 0,39,40
 579 214 579 214 563.5 167 c 128,-1,41
 548 120 548 120 519 84.5 c 128,-1,42
 490 49 490 49 450 28 c 0,43,44
 406 5 406 5 377 -16 c 128,-1,45
 348 -37 348 -37 348 -68 c 0,46,47
 348 -91 348 -91 359.5 -102.5 c 128,-1,48
 371 -114 371 -114 384 -114 c 0,49,50
 396 -114 396 -114 405 -102 c 256,51,52
 414 -90 414 -90 426.5 -87 c 128,-1,53
 439 -84 439 -84 446 -84 c 0,54,55
 464 -84 464 -84 477 -96.5 c 128,-1,56
 490 -109 490 -109 490 -132 c 0,57,58
 490 -148 490 -148 473.5 -165.5 c 128,-1,59
 457 -183 457 -183 430.5 -195 c 128,-1,60
 404 -207 404 -207 374 -207 c 0,16,17
EndSplineSet
EndChar

StartChar: oslash
Encoding: 248 248 405
Width: 624
GlyphClass: 2
Flags: W
AnchorPoint: "Anchor-4" 312 258 basechar 0
AnchorPoint: "Anchor-3" 558 10 basechar 0
AnchorPoint: "Anchor-2" 312 0 basechar 0
AnchorPoint: "Anchor-1" 326 545 basechar 0
AnchorPoint: "Anchor-0" 312 515 basechar 0
LayerCount: 2
Fore
SplineSet
108 -20 m 0,0,1
 86 -20 86 -20 71.5 -4.5 c 128,-1,2
 57 11 57 11 57 29 c 0,3,4
 57 49 57 49 70 63 c 2,5,-1
 478 542 l 2,6,7
 493 560 493 560 516 560 c 0,8,9
 536 560 536 560 551.5 545.5 c 128,-1,10
 567 531 567 531 567 510 c 0,11,12
 567 492 567 492 554 477 c 2,13,-1
 146 -2 l 2,14,15
 131 -20 131 -20 108 -20 c 0,0,1
584 267 m 256,16,17
 584 185 584 185 547.5 122.5 c 128,-1,18
 511 60 511 60 449.5 25 c 128,-1,19
 388 -10 388 -10 312 -10 c 256,20,21
 236 -10 236 -10 174.5 25 c 128,-1,22
 113 60 113 60 76.5 122.5 c 128,-1,23
 40 185 40 185 40 267 c 256,24,25
 40 349 40 349 76.5 411.5 c 128,-1,26
 113 474 113 474 174.5 509.5 c 128,-1,27
 236 545 236 545 312 545 c 256,28,29
 388 545 388 545 449.5 509.5 c 128,-1,30
 511 474 511 474 547.5 411.5 c 128,-1,31
 584 349 584 349 584 267 c 256,16,17
464 267 m 0,32,33
 464 318 464 318 443.5 355.5 c 128,-1,34
 423 393 423 393 388.5 414 c 128,-1,35
 354 435 354 435 312 435 c 256,36,37
 270 435 270 435 235.5 414 c 128,-1,38
 201 393 201 393 180.5 355.5 c 128,-1,39
 160 318 160 318 160 267 c 0,40,41
 160 217 160 217 180.5 179.5 c 128,-1,42
 201 142 201 142 235.5 121 c 128,-1,43
 270 100 270 100 312 100 c 256,44,45
 354 100 354 100 388.5 121 c 128,-1,46
 423 142 423 142 443.5 179.5 c 128,-1,47
 464 217 464 217 464 267 c 0,32,33
EndSplineSet
EndChar

StartChar: p
Encoding: 112 112 412
Width: 628
GlyphClass: 2
Flags: W
AnchorPoint: "Anchor-2" 312 0 basechar 0
AnchorPoint: "Anchor-0" 312 515 basechar 0
LayerCount: 2
Fore
SplineSet
342 545 m 0,0,1
 412 545 412 545 467.5 509.5 c 128,-1,2
 523 474 523 474 555.5 412 c 128,-1,3
 588 350 588 350 588 268 c 256,4,5
 588 186 588 186 555.5 123.5 c 128,-1,6
 523 61 523 61 468.5 25.5 c 128,-1,7
 414 -10 414 -10 346 -10 c 0,8,9
 306 -10 306 -10 271 3 c 128,-1,10
 236 16 236 16 209.5 36 c 128,-1,11
 183 56 183 56 168.5 76.5 c 128,-1,12
 154 97 154 97 154 111 c 1,13,-1
 185 124 l 1,14,-1
 185 -139 l 2,15,16
 185 -165 185 -165 168 -182.5 c 128,-1,17
 151 -200 151 -200 125 -200 c 256,18,19
 99 -200 99 -200 82 -183 c 128,-1,20
 65 -166 65 -166 65 -139 c 2,21,-1
 65 474 l 2,22,23
 65 500 65 500 82 517.5 c 128,-1,24
 99 535 99 535 125 535 c 256,25,26
 151 535 151 535 168 517.5 c 128,-1,27
 185 500 185 500 185 474 c 2,28,-1
 185 425 l 1,29,-1
 168 434 l 1,30,31
 168 447 168 447 182 465.5 c 128,-1,32
 196 484 196 484 220 502.5 c 128,-1,33
 244 521 244 521 275.5 533 c 128,-1,34
 307 545 307 545 342 545 c 0,0,1
327 435 m 256,35,36
 283 435 283 435 250 413 c 128,-1,37
 217 391 217 391 198.5 353.5 c 128,-1,38
 180 316 180 316 180 268 c 0,39,40
 180 221 180 221 198.5 182.5 c 128,-1,41
 217 144 217 144 250 122 c 128,-1,42
 283 100 283 100 327 100 c 256,43,44
 371 100 371 100 403.5 122 c 128,-1,45
 436 144 436 144 454.5 182.5 c 128,-1,46
 473 221 473 221 473 268 c 0,47,48
 473 316 473 316 454.5 353.5 c 128,-1,49
 436 391 436 391 403.5 413 c 128,-1,50
 371 435 371 435 327 435 c 256,35,36
EndSplineSet
EndChar

StartChar: thorn
Encoding: 254 254 413
Width: 628
GlyphClass: 2
Flags: W
AnchorPoint: "Anchor-2" 282 0 basechar 0
AnchorPoint: "Anchor-0" 282 499 basechar 0
LayerCount: 2
Fore
SplineSet
342 545 m 0,0,1
 412 545 412 545 467.5 509.5 c 128,-1,2
 523 474 523 474 555.5 412 c 128,-1,3
 588 350 588 350 588 268 c 256,4,5
 588 186 588 186 555.5 123.5 c 128,-1,6
 523 61 523 61 468.5 25.5 c 128,-1,7
 414 -10 414 -10 346 -10 c 0,8,9
 306 -10 306 -10 271 3 c 128,-1,10
 236 16 236 16 209.5 36 c 128,-1,11
 183 56 183 56 168.5 76.5 c 128,-1,12
 154 97 154 97 154 111 c 1,13,-1
 185 124 l 1,14,-1
 185 -139 l 2,15,16
 185 -165 185 -165 168 -182.5 c 128,-1,17
 151 -200 151 -200 125 -200 c 256,18,19
 99 -200 99 -200 82 -183 c 128,-1,20
 65 -166 65 -166 65 -139 c 2,21,-1
 65 679 l 2,22,23
 65 705 65 705 82 722.5 c 128,-1,24
 99 740 99 740 125 740 c 256,25,26
 151 740 151 740 168 722.5 c 128,-1,27
 185 705 185 705 185 679 c 2,28,-1
 185 425 l 1,29,-1
 168 434 l 1,30,31
 168 447 168 447 182 465.5 c 128,-1,32
 196 484 196 484 220 502.5 c 128,-1,33
 244 521 244 521 275.5 533 c 128,-1,34
 307 545 307 545 342 545 c 0,0,1
327 435 m 256,35,36
 283 435 283 435 250 413 c 128,-1,37
 217 391 217 391 198.5 353.5 c 128,-1,38
 180 316 180 316 180 268 c 0,39,40
 180 221 180 221 198.5 182.5 c 128,-1,41
 217 144 217 144 250 122 c 128,-1,42
 283 100 283 100 327 100 c 256,43,44
 371 100 371 100 403.5 122 c 128,-1,45
 436 144 436 144 454.5 182.5 c 128,-1,46
 473 221 473 221 473 268 c 0,47,48
 473 316 473 316 454.5 353.5 c 128,-1,49
 436 391 436 391 403.5 413 c 128,-1,50
 371 435 371 435 327 435 c 256,35,36
EndSplineSet
EndChar

StartChar: q
Encoding: 113 113 414
Width: 628
GlyphClass: 2
Flags: W
AnchorPoint: "Anchor-2" 317 0 basechar 0
AnchorPoint: "Anchor-0" 317 515 basechar 0
LayerCount: 2
Fore
SplineSet
503 535 m 256,0,1
 529 535 529 535 546 518 c 128,-1,2
 563 501 563 501 563 474 c 2,3,-1
 563 -139 l 2,4,5
 563 -165 563 -165 546 -182.5 c 128,-1,6
 529 -200 529 -200 503 -200 c 256,7,8
 477 -200 477 -200 460 -182.5 c 128,-1,9
 443 -165 443 -165 443 -139 c 2,10,-1
 443 110 l 1,11,-1
 465 101 l 1,12,13
 465 88 465 88 451 69.5 c 128,-1,14
 437 51 437 51 413 33 c 128,-1,15
 389 15 389 15 356.5 2.5 c 128,-1,16
 324 -10 324 -10 286 -10 c 0,17,18
 217 -10 217 -10 161 25.5 c 128,-1,19
 105 61 105 61 72.5 123.5 c 128,-1,20
 40 186 40 186 40 267 c 0,21,22
 40 349 40 349 72.5 411.5 c 128,-1,23
 105 474 105 474 160 509.5 c 128,-1,24
 215 545 215 545 282 545 c 0,25,26
 325 545 325 545 361 532 c 128,-1,27
 397 519 397 519 423.5 499 c 128,-1,28
 450 479 450 479 464.5 458.5 c 128,-1,29
 479 438 479 438 479 424 c 1,30,-1
 443 411 l 1,31,-1
 443 474 l 2,32,33
 443 500 443 500 460 517.5 c 128,-1,34
 477 535 477 535 503 535 c 256,0,1
301 100 m 0,35,36
 345 100 345 100 378 122 c 128,-1,37
 411 144 411 144 429.5 182 c 128,-1,38
 448 220 448 220 448 267 c 0,39,40
 448 315 448 315 429.5 353 c 128,-1,41
 411 391 411 391 378 413 c 128,-1,42
 345 435 345 435 301 435 c 0,43,44
 258 435 258 435 225 413 c 128,-1,45
 192 391 192 391 173.5 353 c 128,-1,46
 155 315 155 315 155 267 c 0,47,48
 155 220 155 220 173.5 182 c 128,-1,49
 192 144 192 144 225 122 c 128,-1,50
 258 100 258 100 301 100 c 0,35,36
EndSplineSet
EndChar

StartChar: r
Encoding: 114 114 415
Width: 434
GlyphClass: 2
Flags: W
AnchorPoint: "Anchor-2" 122 0 basechar 0
AnchorPoint: "Anchor-0" 217 515 basechar 0
LayerCount: 2
Fore
SplineSet
125 0 m 256,0,1
 99 0 99 0 82 17.5 c 128,-1,2
 65 35 65 35 65 61 c 2,3,-1
 65 474 l 2,4,5
 65 500 65 500 82 517.5 c 128,-1,6
 99 535 99 535 125 535 c 256,7,8
 151 535 151 535 168 517.5 c 128,-1,9
 185 500 185 500 185 474 c 2,10,-1
 185 380 l 1,11,-1
 178 447 l 1,12,13
 189 471 189 471 206.5 489.5 c 128,-1,14
 224 508 224 508 246 520.5 c 128,-1,15
 268 533 268 533 293 539 c 128,-1,16
 318 545 318 545 343 545 c 0,17,18
 373 545 373 545 393.5 528 c 128,-1,19
 414 511 414 511 414 488 c 0,20,21
 414 455 414 455 397 440.5 c 128,-1,22
 380 426 380 426 360 426 c 0,23,24
 335 426 335 426 326 425.5 c 128,-1,25
 317 425 317 425 296 422 c 0,26,27
 278 421 278 421 254 405 c 0,28,29
 235 394 235 394 219.5 372 c 128,-1,30
 204 350 204 350 194.5 323.5 c 128,-1,31
 185 297 185 297 185 261 c 2,32,-1
 185 61 l 2,33,34
 185 35 185 35 168 17.5 c 128,-1,35
 151 0 151 0 125 0 c 256,0,1
EndSplineSet
EndChar

StartChar: s
Encoding: 115 115 423
Width: 482
GlyphClass: 2
Flags: W
AnchorPoint: "Anchor-2" 241 0 basechar 0
AnchorPoint: "Anchor-0" 241 515 basechar 0
LayerCount: 2
Fore
SplineSet
34 83 m 0,0,1
 24 97 24 97 25 119 c 128,-1,2
 26 141 26 141 51 157 c 0,3,4
 67 167 67 167 85 165.5 c 128,-1,5
 103 164 103 164 120 147 c 0,6,7
 149 118 149 118 181 102 c 128,-1,8
 213 86 213 86 261 86 c 0,9,10
 276 87 276 87 294 90.5 c 128,-1,11
 312 94 312 94 325.5 106.5 c 128,-1,12
 339 119 339 119 339 145 c 0,13,14
 339 167 339 167 324 180 c 128,-1,15
 309 193 309 193 284.5 202 c 128,-1,16
 260 211 260 211 230 219 c 0,17,18
 199 228 199 228 166.5 239 c 128,-1,19
 134 250 134 250 107 267.5 c 128,-1,20
 80 285 80 285 63 314 c 128,-1,21
 46 343 46 343 46 387 c 0,22,23
 46 437 46 437 74 472 c 128,-1,24
 102 507 102 507 146.5 526 c 128,-1,25
 191 545 191 545 240 545 c 0,26,27
 271 545 271 545 305 537.5 c 128,-1,28
 339 530 339 530 370 513.5 c 128,-1,29
 401 497 401 497 422 470 c 0,30,31
 433 455 433 455 435 434 c 128,-1,32
 437 413 437 413 416 396 c 0,33,34
 401 384 401 384 381 385.5 c 128,-1,35
 361 387 361 387 348 399 c 0,36,37
 331 421 331 421 302.5 434 c 128,-1,38
 274 447 274 447 237 447 c 0,39,40
 222 447 222 447 204.5 443.5 c 128,-1,41
 187 440 187 440 174 428.5 c 128,-1,42
 161 417 161 417 161 392 c 0,43,44
 161 369 161 369 176 355.5 c 128,-1,45
 191 342 191 342 216.5 333.5 c 128,-1,46
 242 325 242 325 271 317 c 0,47,48
 301 309 301 309 332 298 c 128,-1,49
 363 287 363 287 389 269 c 128,-1,50
 415 251 415 251 431 222.5 c 128,-1,51
 447 194 447 194 447 150 c 0,52,53
 447 99 447 99 417 63 c 128,-1,54
 387 27 387 27 342 8.5 c 128,-1,55
 297 -10 297 -10 250 -10 c 0,56,57
 191 -10 191 -10 132 10.5 c 128,-1,58
 73 31 73 31 34 83 c 0,0,1
EndSplineSet
EndChar

StartChar: germandbls
Encoding: 223 223 434
Width: 667
Flags: W
LayerCount: 2
Fore
SplineSet
177 0 m 256,0,1
 151 0 151 0 134 17.5 c 128,-1,2
 117 35 117 35 117 61 c 2,3,-1
 117 502 l 2,4,5
 117 556 117 556 133.5 599.5 c 128,-1,6
 150 643 150 643 181 674 c 128,-1,7
 212 705 212 705 256 721 c 128,-1,8
 300 737 300 737 355 737 c 0,9,10
 423 737 423 737 471 714.5 c 128,-1,11
 519 692 519 692 544.5 653.5 c 128,-1,12
 570 615 570 615 570 567 c 0,13,14
 570 532 570 532 553.5 505 c 128,-1,15
 537 478 537 478 511.5 458.5 c 128,-1,16
 486 439 486 439 458 426 c 1,17,-1
 455 430 l 1,18,19
 498 416 498 416 538.5 388 c 128,-1,20
 579 360 579 360 605.5 316.5 c 128,-1,21
 632 273 632 273 632 211 c 0,22,23
 632 146 632 146 605 96 c 128,-1,24
 578 46 578 46 531 18 c 128,-1,25
 484 -10 484 -10 423 -10 c 0,26,27
 367 -10 367 -10 333 6.5 c 128,-1,28
 299 23 299 23 283 45 c 0,29,30
 273 59 273 59 274 81 c 128,-1,31
 275 103 275 103 300 119 c 0,32,33
 316 129 316 129 334 127.5 c 128,-1,34
 352 126 352 126 369 109 c 0,35,36
 379 99 379 99 395 92.5 c 128,-1,37
 411 86 411 86 428 86 c 0,38,39
 459 86 459 86 477.5 101 c 128,-1,40
 496 116 496 116 504 141 c 128,-1,41
 512 166 512 166 512 195 c 0,42,43
 512 241 512 241 495.5 271 c 128,-1,44
 479 301 479 301 450 319 c 128,-1,45
 421 337 421 337 384 346 c 0,46,47
 359 354 359 354 348 366.5 c 128,-1,48
 337 379 337 379 337 398 c 0,49,50
 337 418 337 418 344.5 431.5 c 128,-1,51
 352 445 352 445 365 452 c 0,52,53
 390 465 390 465 409.5 479.5 c 128,-1,54
 429 494 429 494 440 513 c 128,-1,55
 451 532 451 532 451 556 c 0,56,57
 451 592 451 592 423 609.5 c 128,-1,58
 395 627 395 627 349 627 c 0,59,60
 324 627 324 627 303.5 619 c 128,-1,61
 283 611 283 611 268 595.5 c 128,-1,62
 253 580 253 580 245 557.5 c 128,-1,63
 237 535 237 535 237 506 c 2,64,-1
 237 61 l 2,65,66
 237 35 237 35 220 17.5 c 128,-1,67
 203 0 203 0 177 0 c 256,0,1
91 380 m 2,68,69
 65 380 65 380 47.5 396.5 c 128,-1,70
 30 413 30 413 30 438 c 256,71,72
 30 463 30 463 47.5 479 c 128,-1,73
 65 495 65 495 91 495 c 2,74,-1
 185 495 l 2,75,76
 211 495 211 495 218.5 479 c 128,-1,77
 226 463 226 463 226 438 c 256,78,79
 226 413 226 413 218.5 396.5 c 128,-1,80
 211 380 211 380 185 380 c 2,81,-1
 91 380 l 2,68,69
EndSplineSet
EndChar

StartChar: t
Encoding: 116 116 435
Width: 437
GlyphClass: 2
Flags: W
AnchorPoint: "Anchor-4" 237 258 basechar 0
AnchorPoint: "Anchor-2" 265 0 basechar 0
AnchorPoint: "Anchor-1" 408 515 basechar 0
AnchorPoint: "Anchor-0" 177 651 basechar 0
LayerCount: 2
Fore
SplineSet
71 525 m 2,0,-1
 338 525 l 2,1,2
 362 525 362 525 378 509 c 128,-1,3
 394 493 394 493 394 469 c 0,4,5
 394 446 394 446 378 430.5 c 128,-1,6
 362 415 362 415 338 415 c 2,7,-1
 71 415 l 2,8,9
 47 415 47 415 31 431 c 128,-1,10
 15 447 15 447 15 471 c 0,11,12
 15 494 15 494 31 509.5 c 128,-1,13
 47 525 47 525 71 525 c 2,0,-1
178 650 m 256,14,15
 204 650 204 650 220.5 632.5 c 128,-1,16
 237 615 237 615 237 589 c 2,17,-1
 237 144 l 2,18,19
 237 130 237 130 247.5 121 c 128,-1,20
 258 112 258 112 272.5 108 c 128,-1,21
 287 104 287 104 298 104 c 0,22,23
 320 104 320 104 330 108.5 c 128,-1,24
 340 113 340 113 353 113 c 0,25,26
 367 113 367 113 378.5 100 c 128,-1,27
 390 87 390 87 390 64 c 0,28,29
 390 36 390 36 359.5 18 c 128,-1,30
 329 0 329 0 284 0 c 0,31,32
 263 0 263 0 232.5 3.5 c 128,-1,33
 202 7 202 7 174.5 20.5 c 128,-1,34
 147 34 147 34 132 62 c 128,-1,35
 117 90 117 90 117 139 c 2,36,-1
 117 589 l 2,37,38
 117 615 117 615 134.5 632.5 c 128,-1,39
 152 650 152 650 178 650 c 256,14,15
EndSplineSet
EndChar

StartChar: u
Encoding: 117 117 444
Width: 587
GlyphClass: 2
Flags: W
AnchorPoint: "Anchor-3" 528 10 basechar 0
AnchorPoint: "Anchor-2" 294 0 basechar 0
AnchorPoint: "Anchor-1" 376 547 basechar 0
AnchorPoint: "Anchor-0" 294 515 basechar 0
LayerCount: 2
Fore
SplineSet
463 72 m 0,0,1
 462 71 462 71 458 67 c 0,2,3
 389 -10 389 -10 293 -10 c 0,4,5
 182 -10 182 -10 123.5 52 c 128,-1,6
 65 114 65 114 65 220 c 2,7,-1
 65 474 l 2,8,9
 65 500 65 500 82 517.5 c 128,-1,10
 99 535 99 535 125 535 c 256,11,12
 151 535 151 535 168 517.5 c 128,-1,13
 185 500 185 500 185 474 c 2,14,-1
 185 220 l 2,15,16
 185 159 185 159 212 129.5 c 128,-1,17
 239 100 239 100 293 100 c 0,18,19
 340 100 340 100 375 150 c 0,20,21
 402 184 402 184 402 220 c 2,22,-1
 402 474 l 2,23,24
 402 500 402 500 419 517.5 c 128,-1,25
 436 535 436 535 462 535 c 256,26,27
 488 535 488 535 505 517.5 c 128,-1,28
 522 500 522 500 522 474 c 2,29,-1
 522 247 l 1,30,-1
 522 220 l 1,31,-1
 522 188 l 1,32,-1
 522 51 l 2,33,34
 522 25 522 25 505 7.5 c 128,-1,35
 488 -10 488 -10 462 -10 c 256,36,37
 436 -10 436 -10 419 7.5 c 128,-1,38
 402 25 402 25 402 51 c 2,39,-1
 402 118 l 1,40,-1
 494 112 l 2,41,42
 498 108 498 108 463 72 c 0,0,1
EndSplineSet
EndChar

StartChar: uogonek
Encoding: 371 371 464
Width: 587
Flags: W
LayerCount: 2
Fore
SplineSet
374 -207 m 0,0,1
 320 -207 320 -207 282 -174 c 128,-1,2
 244 -141 244 -141 244 -88 c 0,3,4
 244 -54 244 -54 262 -23.5 c 128,-1,5
 280 7 280 7 309 32.5 c 128,-1,6
 338 58 338 58 372 76 c 128,-1,7
 406 94 406 94 437 103 c 1,8,-1
 318 -10 l 1,9,10
 312 -10 312 -10 305.5 -10 c 128,-1,11
 299 -10 299 -10 293 -10 c 0,12,13
 182 -10 182 -10 123.5 52 c 128,-1,14
 65 114 65 114 65 220 c 2,15,-1
 65 474 l 2,16,17
 65 500 65 500 82 517.5 c 128,-1,18
 99 535 99 535 125 535 c 256,19,20
 151 535 151 535 168 517.5 c 128,-1,21
 185 500 185 500 185 474 c 2,22,-1
 185 220 l 2,23,24
 185 159 185 159 212 129.5 c 128,-1,25
 239 100 239 100 293 100 c 0,26,27
 348 100 348 100 375 129.5 c 128,-1,28
 402 159 402 159 402 220 c 2,29,-1
 402 474 l 2,30,31
 402 500 402 500 419 517.5 c 128,-1,32
 436 535 436 535 462 535 c 256,33,34
 488 535 488 535 505 517.5 c 128,-1,35
 522 500 522 500 522 474 c 2,36,-1
 522 220 l 2,37,38
 522 170 522 170 509 124.5 c 128,-1,39
 496 79 496 79 451 44 c 0,40,41
 430 30 430 30 405 13.5 c 128,-1,42
 380 -3 380 -3 361.5 -23.5 c 128,-1,43
 343 -44 343 -44 343 -72 c 0,44,45
 343 -90 343 -90 355.5 -102 c 128,-1,46
 368 -114 368 -114 384 -114 c 0,47,48
 390 -114 390 -114 395.5 -111 c 128,-1,49
 401 -108 401 -108 405 -102 c 0,50,51
 414 -90 414 -90 426.5 -87 c 128,-1,52
 439 -84 439 -84 446 -84 c 0,53,54
 464 -84 464 -84 477 -96.5 c 128,-1,55
 490 -109 490 -109 490 -132 c 0,56,57
 490 -148 490 -148 473.5 -165.5 c 128,-1,58
 457 -183 457 -183 430.5 -195 c 128,-1,59
 404 -207 404 -207 374 -207 c 0,0,1
EndSplineSet
EndChar

StartChar: v
Encoding: 118 118 468
Width: 562
GlyphClass: 2
Flags: W
AnchorPoint: "Anchor-2" 281 0 basechar 0
AnchorPoint: "Anchor-0" 281 515 basechar 0
LayerCount: 2
Fore
SplineSet
89 535 m 0,0,1
 108 535 108 535 124 525.5 c 128,-1,2
 140 516 140 516 148 497 c 2,3,-1
 295 161 l 1,4,-1
 273 151 l 1,5,-1
 423 496 l 2,6,7
 440 536 440 536 476 534 c 0,8,9
 501 534 501 534 516.5 518.5 c 128,-1,10
 532 503 532 503 532 480 c 0,11,12
 532 473 532 473 529.5 465 c 128,-1,13
 527 457 527 457 524 450 c 2,14,-1
 337 38 l 2,15,16
 321 2 321 2 286 0 c 0,17,18
 267 -3 267 -3 249.5 7 c 128,-1,19
 232 17 232 17 223 38 c 2,20,-1
 37 450 l 2,21,22
 35 455 35 455 32.5 463 c 128,-1,23
 30 471 30 471 30 482 c 0,24,25
 30 500 30 500 46 517.5 c 128,-1,26
 62 535 62 535 89 535 c 0,0,1
EndSplineSet
EndChar

StartChar: w
Encoding: 119 119 469
Width: 768
GlyphClass: 2
Flags: W
AnchorPoint: "Anchor-2" 384 0 basechar 0
AnchorPoint: "Anchor-0" 384 515 basechar 0
LayerCount: 2
Fore
SplineSet
681 535 m 0,0,1
 704 535 704 535 721 517.5 c 128,-1,2
 738 500 738 500 738 473 c 0,3,4
 738 466 738 466 737 460.5 c 128,-1,5
 736 455 736 455 734 450 c 2,6,-1
 581 38 l 2,7,8
 574 18 574 18 556 7.5 c 128,-1,9
 538 -3 538 -3 518 0 c 0,10,11
 484 2 484 2 467 38 c 1,12,-1
 368 323 l 1,13,-1
 394 322 l 1,14,-1
 301 38 l 1,15,16
 284 2 284 2 250 0 c 0,17,18
 231 -3 231 -3 212.5 7.5 c 128,-1,19
 194 18 194 18 187 38 c 2,20,-1
 34 450 l 2,21,22
 30 461 30 461 30 473 c 0,23,24
 30 497 30 497 46 516 c 128,-1,25
 62 535 62 535 90 535 c 0,26,27
 109 535 109 535 124 526 c 128,-1,28
 139 517 139 517 145 497 c 2,29,-1
 266 169 l 1,30,-1
 241 171 l 1,31,-1
 332 418 l 2,32,33
 348 455 348 455 387 455 c 0,34,35
 409 455 409 455 420.5 445.5 c 128,-1,36
 432 436 432 436 439 418 c 2,37,-1
 530 171 l 1,38,-1
 500 167 l 1,39,-1
 623 497 l 2,40,41
 635 535 635 535 681 535 c 0,0,1
EndSplineSet
EndChar

StartChar: x
Encoding: 120 120 474
Width: 487
GlyphClass: 2
Flags: W
AnchorPoint: "Anchor-2" 244 0 basechar 0
AnchorPoint: "Anchor-0" 244 515 basechar 0
LayerCount: 2
Fore
SplineSet
76 535 m 0,0,1
 105 535 105 535 125 510 c 2,2,-1
 459 95 l 2,3,4
 472 79 472 79 472 59 c 0,5,6
 472 34 472 34 453 16 c 128,-1,7
 434 -2 434 -2 411 -2 c 0,8,9
 382 -2 382 -2 362 24 c 2,10,-1
 28 439 l 2,11,12
 15 455 15 455 15 475 c 0,13,14
 15 501 15 501 33.5 518 c 128,-1,15
 52 535 52 535 76 535 c 0,0,1
362 508 m 2,16,17
 382 535 382 535 410 535 c 0,18,19
 434 535 434 535 450.5 518.5 c 128,-1,20
 467 502 467 502 467 481 c 0,21,22
 467 471 467 471 464 461 c 128,-1,23
 461 451 461 451 453 442 c 2,24,-1
 125 24 l 2,25,26
 106 -1 106 -1 77 -1 c 0,27,28
 57 -1 57 -1 37.5 14.5 c 128,-1,29
 18 30 18 30 18 52 c 0,30,31
 18 72 18 72 33 90 c 2,32,-1
 362 508 l 2,16,17
EndSplineSet
EndChar

StartChar: y
Encoding: 121 121 475
Width: 562
GlyphClass: 2
Flags: W
AnchorPoint: "Anchor-2" 582 0 basechar 0
AnchorPoint: "Anchor-0" 294 515 basechar 0
LayerCount: 2
Fore
SplineSet
218 48 m 1,0,-1
 37 450 l 2,1,2
 35 455 35 455 32.5 463 c 128,-1,3
 30 471 30 471 30 482 c 0,4,5
 30 500 30 500 46 517.5 c 128,-1,6
 62 535 62 535 89 535 c 0,7,8
 108 535 108 535 124 525.5 c 128,-1,9
 140 516 140 516 148 497 c 2,10,-1
 295 161 l 1,11,-1
 273 151 l 1,12,-1
 423 496 l 2,13,14
 440 536 440 536 476 534 c 0,15,16
 501 534 501 534 516.5 518.5 c 128,-1,17
 532 503 532 503 532 480 c 0,18,19
 532 473 532 473 529.5 465 c 128,-1,20
 527 457 527 457 524 450 c 2,21,-1
 347 60 l 1,22,-1
 305 -33 l 2,23,24
 276 -100 276 -100 272 -108 c 0,25,26
 249 -152 249 -152 213 -173 c 0,27,28
 175 -196 175 -196 130 -196 c 0,29,30
 105 -196 105 -196 90 -180 c 0,31,32
 74 -162 74 -162 74 -140 c 2,33,-1
 74 -139 l 2,34,35
 74 -129 74 -129 88 -116 c 0,36,37
 104 -102 104 -102 125 -96 c 0,38,39
 149 -89 149 -89 159 -74 c 0,40,41
 177 -48 177 -48 208 25 c 2,42,-1
 215 41 l 1,43,-1
 218 48 l 1,0,-1
EndSplineSet
EndChar

StartChar: z
Encoding: 122 122 485
Width: 484
GlyphClass: 2
Flags: W
AnchorPoint: "Anchor-2" 242 0 basechar 0
AnchorPoint: "Anchor-0" 242 515 basechar 0
LayerCount: 2
Fore
SplineSet
406 110 m 2,0,1
 430 110 430 110 446 94.5 c 128,-1,2
 462 79 462 79 462 55 c 0,3,4
 462 32 462 32 446 16 c 128,-1,5
 430 0 430 0 406 0 c 2,6,-1
 84 0 l 2,7,8
 59 0 59 0 44 18 c 128,-1,9
 29 36 29 36 30 54 c 0,10,11
 31 69 31 69 34 80.5 c 128,-1,12
 37 92 37 92 49 107 c 2,13,-1
 298 429 l 1,14,-1
 296 415 l 1,15,-1
 93 415 l 2,16,17
 69 415 69 415 53 431 c 128,-1,18
 37 447 37 447 37 471 c 0,19,20
 37 494 37 494 53 509.5 c 128,-1,21
 69 525 69 525 93 525 c 2,22,-1
 401 525 l 2,23,24
 424 525 424 525 440 508 c 128,-1,25
 456 491 456 491 454 465 c 0,26,27
 453 455 453 455 450.5 445 c 128,-1,28
 448 435 448 435 437 421 c 2,29,-1
 192 104 l 1,30,-1
 192 110 l 1,31,-1
 406 110 l 2,0,1
EndSplineSet
EndChar

StartChar: a.ss01
Encoding: 65540 -1 490
Width: 565
GlyphClass: 2
Flags: W
AnchorPoint: "Anchor-3" 547 0 basechar 0
AnchorPoint: "Anchor-2" 302 0 basechar 0
AnchorPoint: "Anchor-0" 272 515 basechar 0
LayerCount: 2
Fore
SplineSet
266 90 m 256,0,1
 314 90 314 90 342 110.5 c 128,-1,2
 370 131 370 131 370 168 c 0,3,4
 370 206 370 206 342 226.5 c 128,-1,5
 314 247 314 247 266 247 c 256,6,7
 218 247 218 247 189.5 226.5 c 128,-1,8
 161 206 161 206 161 168 c 0,9,10
 161 131 161 131 189.5 110.5 c 128,-1,11
 218 90 218 90 266 90 c 256,0,1
220 -10 m 0,12,13
 163 -10 163 -10 123 13.5 c 128,-1,14
 83 37 83 37 62 76 c 128,-1,15
 41 115 41 115 41 161 c 0,16,17
 41 222 41 222 72 262.5 c 128,-1,18
 103 303 103 303 151.5 323.5 c 128,-1,19
 200 344 200 344 251 344 c 0,20,21
 314 344 314 344 357 317 c 128,-1,22
 400 290 400 290 422.5 248.5 c 128,-1,23
 445 207 445 207 445 161 c 1,24,-1
 357 246 l 1,25,-1
 357 339 l 2,26,27
 357 388 357 388 328 411.5 c 128,-1,28
 299 435 299 435 261 435 c 0,29,30
 233 435 233 435 199 426 c 128,-1,31
 165 417 165 417 141 388 c 0,32,33
 122 367 122 367 96 367 c 0,34,35
 77 367 77 367 58.5 384.5 c 128,-1,36
 40 402 40 402 40 424 c 0,37,38
 40 434 40 434 43 445.5 c 128,-1,39
 46 457 46 457 59 470 c 0,40,41
 73 485 73 485 100 502.5 c 128,-1,42
 127 520 127 520 168 532.5 c 128,-1,43
 209 545 209 545 264 545 c 0,44,45
 324 545 324 545 371.5 524.5 c 128,-1,46
 419 504 419 504 447.5 460.5 c 128,-1,47
 476 417 476 417 476 346 c 2,48,-1
 477 129 l 2,49,50
 477 120 477 120 480.5 114.5 c 128,-1,51
 484 109 484 109 488 109 c 0,52,53
 494 109 494 109 501.5 113.5 c 128,-1,54
 509 118 509 118 522 118 c 0,55,56
 532 118 532 118 541 109.5 c 128,-1,57
 550 101 550 101 550 80 c 0,58,59
 550 45 550 45 519 22.5 c 128,-1,60
 488 0 488 0 444 0 c 0,61,62
 407 0 407 0 385 25.5 c 128,-1,63
 363 51 363 51 357 83 c 1,64,-1
 389 93 l 1,65,66
 377 67 377 67 351 43 c 128,-1,67
 325 19 325 19 291 4.5 c 128,-1,68
 257 -10 257 -10 220 -10 c 0,12,13
EndSplineSet
EndChar

StartChar: aogonek.ss01
Encoding: 65562 -1 512
Width: 570
GlyphClass: 2
Flags: W
AnchorPoint: "Anchor-3" 547 0 basechar 0
AnchorPoint: "Anchor-2" 302 0 basechar 0
AnchorPoint: "Anchor-0" 272 515 basechar 0
LayerCount: 2
Fore
SplineSet
266 90 m 256,0,1
 314 90 314 90 342 110.5 c 128,-1,2
 370 131 370 131 370 168 c 0,3,4
 370 206 370 206 342 226.5 c 128,-1,5
 314 247 314 247 266 247 c 256,6,7
 218 247 218 247 189.5 226.5 c 128,-1,8
 161 206 161 206 161 168 c 0,9,10
 161 131 161 131 189.5 110.5 c 128,-1,11
 218 90 218 90 266 90 c 256,0,1
436 -217 m 0,12,13
 387 -217 387 -217 351.5 -191 c 128,-1,14
 316 -165 316 -165 316 -110 c 0,15,16
 316 -69 316 -69 333 -41.5 c 128,-1,17
 350 -14 350 -14 377.5 4 c 128,-1,18
 405 22 405 22 437 33.5 c 128,-1,19
 469 45 469 45 499 53 c 1,20,-1
 453 0 l 1,21,22
 404 0 404 0 380.5 27 c 128,-1,23
 357 54 357 54 357 100 c 1,24,-1
 389 79 l 1,25,26
 374 51 374 51 346.5 31 c 128,-1,27
 319 11 319 11 286.5 0.5 c 128,-1,28
 254 -10 254 -10 224 -10 c 0,29,30
 169 -10 169 -10 127.5 14 c 128,-1,31
 86 38 86 38 63.5 78.5 c 128,-1,32
 41 119 41 119 41 170 c 0,33,34
 41 227 41 227 72 265.5 c 128,-1,35
 103 304 103 304 151.5 324 c 128,-1,36
 200 344 200 344 251 344 c 0,37,38
 314 344 314 344 357 317 c 128,-1,39
 400 290 400 290 422.5 248.5 c 128,-1,40
 445 207 445 207 445 161 c 1,41,-1
 357 246 l 1,42,-1
 357 339 l 2,43,44
 357 372 357 372 343.5 393 c 128,-1,45
 330 414 330 414 308.5 424.5 c 128,-1,46
 287 435 287 435 261 435 c 0,47,48
 233 435 233 435 199 426 c 128,-1,49
 165 417 165 417 141 388 c 0,50,51
 122 367 122 367 96 367 c 0,52,53
 77 367 77 367 58.5 384.5 c 128,-1,54
 40 402 40 402 40 424 c 0,55,56
 40 434 40 434 43 445.5 c 128,-1,57
 46 457 46 457 59 470 c 0,58,59
 73 485 73 485 100 502.5 c 128,-1,60
 127 520 127 520 168 532.5 c 128,-1,61
 209 545 209 545 264 545 c 0,62,63
 324 545 324 545 371.5 524.5 c 128,-1,64
 419 504 419 504 447.5 460.5 c 128,-1,65
 476 417 476 417 476 346 c 2,66,-1
 477 131 l 2,67,68
 477 117 477 117 481.5 110.5 c 128,-1,69
 486 104 486 104 493 104 c 0,70,71
 499 104 499 104 506.5 108.5 c 128,-1,72
 514 113 514 113 527 113 c 0,73,74
 537 113 537 113 546 104.5 c 128,-1,75
 555 96 555 96 555 75 c 0,76,77
 555 49 555 49 538 31.5 c 128,-1,78
 521 14 521 14 486 3 c 0,79,80
 460 -5 460 -5 444.5 -21.5 c 128,-1,81
 429 -38 429 -38 422 -56.5 c 128,-1,82
 415 -75 415 -75 415 -88 c 0,83,84
 415 -106 415 -106 424.5 -115 c 128,-1,85
 434 -124 434 -124 446 -124 c 256,86,87
 458 -124 458 -124 467 -112 c 256,88,89
 476 -100 476 -100 488.5 -97 c 128,-1,90
 501 -94 501 -94 508 -94 c 0,91,92
 526 -94 526 -94 539 -106.5 c 128,-1,93
 552 -119 552 -119 552 -142 c 0,94,95
 552 -158 552 -158 535.5 -175.5 c 128,-1,96
 519 -193 519 -193 492.5 -205 c 128,-1,97
 466 -217 466 -217 436 -217 c 0,12,13
EndSplineSet
EndChar

StartChar: g.ss01
Encoding: 65566 -1 516
Width: 583
GlyphClass: 2
Flags: W
AnchorPoint: "Anchor-2" 266 0 basechar 0
AnchorPoint: "Anchor-0" 260 499 basechar 0
LayerCount: 2
Fore
SplineSet
494 337 m 256,0,1
 494 276 494 276 463.5 229.5 c 128,-1,2
 433 183 433 183 380.5 156.5 c 128,-1,3
 328 130 328 130 262 130 c 256,4,5
 196 130 196 130 143.5 156.5 c 128,-1,6
 91 183 91 183 60.5 229.5 c 128,-1,7
 30 276 30 276 30 337 c 256,8,9
 30 398 30 398 60.5 445 c 128,-1,10
 91 492 91 492 143.5 518.5 c 128,-1,11
 196 545 196 545 262 545 c 256,12,13
 328 545 328 545 380.5 518.5 c 128,-1,14
 433 492 433 492 463.5 445 c 128,-1,15
 494 398 494 398 494 337 c 256,0,1
374 332 m 0,16,17
 374 381 374 381 342.5 410.5 c 128,-1,18
 311 440 311 440 262 440 c 256,19,20
 213 440 213 440 181.5 410.5 c 128,-1,21
 150 381 150 381 150 332 c 0,22,23
 150 284 150 284 181.5 254.5 c 128,-1,24
 213 225 213 225 262 225 c 256,25,26
 311 225 311 225 342.5 254.5 c 128,-1,27
 374 284 374 284 374 332 c 0,16,17
251 82 m 0,28,29
 237 82 237 82 225 87.5 c 128,-1,30
 213 93 213 93 208 110 c 2,31,-1
 190 184 l 1,32,-1
 271 189 l 1,33,34
 412 189 412 189 489.5 140 c 128,-1,35
 567 91 567 91 567 8 c 0,36,37
 567 -50 567 -50 528 -98.5 c 128,-1,38
 489 -147 489 -147 420 -176.5 c 128,-1,39
 351 -206 351 -206 260 -206 c 0,40,41
 192 -206 192 -206 141 -189 c 128,-1,42
 90 -172 90 -172 62.5 -145 c 128,-1,43
 35 -118 35 -118 35 -89 c 0,44,45
 35 -69 35 -69 47.5 -51.5 c 128,-1,46
 60 -34 60 -34 82 -34 c 0,47,48
 107 -34 107 -34 124 -47.5 c 128,-1,49
 141 -61 141 -61 157 -72 c 0,50,51
 172 -79 172 -79 200 -87.5 c 128,-1,52
 228 -96 228 -96 263 -96 c 0,53,54
 316 -96 316 -96 357.5 -84.5 c 128,-1,55
 399 -73 399 -73 423 -51.5 c 128,-1,56
 447 -30 447 -30 447 0 c 0,57,58
 447 22 447 22 427.5 40.5 c 128,-1,59
 408 59 408 59 365 70.5 c 128,-1,60
 322 82 322 82 251 82 c 0,28,29
440 348 m 1,61,-1
 382 406 l 1,62,-1
 473 517 l 2,63,64
 481 527 481 527 492 530.5 c 128,-1,65
 503 534 503 534 513 534 c 0,66,67
 535 534 535 534 552.5 518 c 128,-1,68
 570 502 570 502 568 476 c 0,69,70
 567 466 567 466 563 456 c 128,-1,71
 559 446 559 446 551 439 c 2,72,-1
 440 348 l 1,61,-1
EndSplineSet
EndChar

StartChar: ordfeminine
Encoding: 170 170 530
Width: 354
Flags: W
LayerCount: 2
Fore
SplineSet
139 391 m 0,0,1
 96 391 96 391 67 414.5 c 128,-1,2
 38 438 38 438 24 478 c 128,-1,3
 10 518 10 518 10 565 c 0,4,5
 10 609 10 609 27 645.5 c 128,-1,6
 44 682 44 682 76 703.5 c 128,-1,7
 108 725 108 725 153 725 c 0,8,9
 199 725 199 725 223.5 693.5 c 128,-1,10
 248 662 248 662 248 596 c 1,11,-1
 234 657 l 1,12,-1
 234 684 l 2,13,14
 234 699 234 699 248 711.5 c 128,-1,15
 262 724 262 724 284 724 c 0,16,17
 307 724 307 724 320.5 712 c 128,-1,18
 334 700 334 700 334 684 c 2,19,-1
 334 441 l 2,20,21
 334 423 334 423 319 412 c 128,-1,22
 304 401 304 401 284 401 c 0,23,24
 262 401 262 401 248 412.5 c 128,-1,25
 234 424 234 424 234 441 c 2,26,-1
 234 474 l 1,27,-1
 248 516 l 1,28,29
 248 491 248 491 235.5 462 c 128,-1,30
 223 433 223 433 198.5 412 c 128,-1,31
 174 391 174 391 139 391 c 0,0,1
177 469 m 0,32,33
 201 469 201 469 219.5 491.5 c 128,-1,34
 238 514 238 514 238 555 c 0,35,36
 238 597 238 597 221.5 622 c 128,-1,37
 205 647 205 647 173 647 c 0,38,39
 147 647 147 647 128.5 622.5 c 128,-1,40
 110 598 110 598 110 565 c 0,41,42
 110 526 110 526 126 497.5 c 128,-1,43
 142 469 142 469 177 469 c 0,32,33
EndSplineSet
EndChar

StartChar: ordmasculine
Encoding: 186 186 531
Width: 350
Flags: W
LayerCount: 2
Fore
SplineSet
335 549 m 0,0,1
 335 504 335 504 314 468.5 c 128,-1,2
 293 433 293 433 256.5 412.5 c 128,-1,3
 220 392 220 392 173 392 c 0,4,5
 128 392 128 392 92 412.5 c 128,-1,6
 56 433 56 433 35.5 468.5 c 128,-1,7
 15 504 15 504 15 549 c 0,8,9
 15 595 15 595 35.5 631 c 128,-1,10
 56 667 56 667 92 688.5 c 128,-1,11
 128 710 128 710 173 710 c 0,12,13
 220 710 220 710 256.5 688.5 c 128,-1,14
 293 667 293 667 314 631 c 128,-1,15
 335 595 335 595 335 549 c 0,0,1
240 548 m 0,16,17
 240 581 240 581 222.5 603 c 128,-1,18
 205 625 205 625 174 625 c 0,19,20
 144 625 144 625 127 603 c 128,-1,21
 110 581 110 581 110 548 c 0,22,23
 110 518 110 518 127 497.5 c 128,-1,24
 144 477 144 477 174 477 c 0,25,26
 205 477 205 477 222.5 497.5 c 128,-1,27
 240 518 240 518 240 548 c 0,16,17
EndSplineSet
EndChar

StartChar: pi
Encoding: 960 960 532
Width: 590
Flags: W
LayerCount: 2
Fore
SplineSet
138 0 m 256,0,1
 117 0 117 0 103.5 14 c 128,-1,2
 90 28 90 28 90 49 c 2,3,-1
 90 413 l 2,4,5
 90 418 90 418 85 418 c 2,6,-1
 69 418 l 2,7,8
 48 418 48 418 34 432 c 128,-1,9
 20 446 20 446 20 467 c 256,10,11
 20 488 20 488 34 501.5 c 128,-1,12
 48 515 48 515 69 515 c 2,13,-1
 507 515 l 2,14,15
 528 515 528 515 542 501 c 128,-1,16
 556 487 556 487 556 466 c 256,17,18
 556 445 556 445 542 431.5 c 128,-1,19
 528 418 528 418 507 418 c 2,20,-1
 491 418 l 2,21,22
 486 418 486 418 486 413 c 2,23,-1
 486 49 l 2,24,25
 486 28 486 28 472 14 c 128,-1,26
 458 0 458 0 437 0 c 256,27,28
 416 0 416 0 402.5 14 c 128,-1,29
 389 28 389 28 389 49 c 2,30,-1
 389 413 l 2,31,32
 389 418 389 418 384 418 c 2,33,-1
 192 418 l 2,34,35
 187 418 187 418 187 413 c 2,36,-1
 187 49 l 2,37,38
 187 28 187 28 173 14 c 128,-1,39
 159 0 159 0 138 0 c 256,0,1
EndSplineSet
EndChar

StartChar: zero
Encoding: 48 48 533
Width: 614
GlyphClass: 2
Flags: W
AnchorPoint: "Anchor-4" 310 351 basechar 0
LayerCount: 2
Fore
SplineSet
307 -10 m 256,0,1
 221 -10 221 -10 161.5 35.5 c 128,-1,2
 102 81 102 81 71 162.5 c 128,-1,3
 40 244 40 244 40 350 c 0,4,5
 40 457 40 457 71 538 c 128,-1,6
 102 619 102 619 161.5 664.5 c 128,-1,7
 221 710 221 710 307 710 c 256,8,9
 393 710 393 710 452.5 664.5 c 128,-1,10
 512 619 512 619 543 538 c 128,-1,11
 574 457 574 457 574 350 c 0,12,13
 574 244 574 244 543 162.5 c 128,-1,14
 512 81 512 81 452.5 35.5 c 128,-1,15
 393 -10 393 -10 307 -10 c 256,0,1
307 110 m 0,16,17
 349 110 349 110 379.5 136.5 c 128,-1,18
 410 163 410 163 427 216.5 c 128,-1,19
 444 270 444 270 444 350 c 0,20,21
 444 431 444 431 427 484 c 128,-1,22
 410 537 410 537 379.5 563.5 c 128,-1,23
 349 590 349 590 307 590 c 0,24,25
 266 590 266 590 235 563.5 c 128,-1,26
 204 537 204 537 187 484 c 128,-1,27
 170 431 170 431 170 350 c 0,28,29
 170 270 170 270 187 216.5 c 128,-1,30
 204 163 204 163 235 136.5 c 128,-1,31
 266 110 266 110 307 110 c 0,16,17
EndSplineSet
Substitution2: "'zero' Slashed Zero in Latin lookup 38 subtable" zero.zero
Substitution2: "'frac' Diagonal Fractions in Latin lookup 28 subtable" zero.numr
Substitution2: "'dnom' Denominators in Latin lookup 26 subtable" zero.dnom
Substitution2: "'numr' Numerators in Latin lookup 25 subtable" zero.numr
Substitution2: "'sups' Superscript in Latin lookup 24 subtable" uni2070
Substitution2: "'sinf' Scientific Inferiors in Latin lookup 23 subtable" uni2080
Substitution2: "'subs' Subscript in Latin lookup 22 subtable" uni2080
AlternateSubs2: "'aalt' Access All Alternates in Latin lookup 1 subtable" zero.zero zero.dnom uni2080 zero.numr uni2070
EndChar

StartChar: one
Encoding: 49 49 534
Width: 389
Flags: W
LayerCount: 2
Fore
SplineSet
238 0 m 0,0,1
 210 0 210 0 192 17.5 c 128,-1,2
 174 35 174 35 174 61 c 2,3,-1
 174 565 l 1,4,-1
 188 543 l 1,5,-1
 115 489 l 2,6,7
 101 478 101 478 80 478 c 0,8,9
 56 478 56 478 38 496 c 128,-1,10
 20 514 20 514 20 539 c 0,11,12
 20 571 20 571 51 591 c 2,13,-1
 195 687 l 2,14,15
 205 694 205 694 217.5 697 c 128,-1,16
 230 700 230 700 241 700 c 0,17,18
 270 700 270 700 287 682.5 c 128,-1,19
 304 665 304 665 304 639 c 2,20,-1
 304 61 l 2,21,22
 304 35 304 35 285.5 17.5 c 128,-1,23
 267 0 267 0 238 0 c 0,0,1
EndSplineSet
Substitution2: "'frac' Diagonal Fractions in Latin lookup 28 subtable" one.numr
Substitution2: "'dnom' Denominators in Latin lookup 26 subtable" one.dnom
Substitution2: "'numr' Numerators in Latin lookup 25 subtable" one.numr
Substitution2: "'sups' Superscript in Latin lookup 24 subtable" uni00B9
Substitution2: "'sinf' Scientific Inferiors in Latin lookup 23 subtable" uni2081
Substitution2: "'subs' Subscript in Latin lookup 22 subtable" uni2081
AlternateSubs2: "'aalt' Access All Alternates in Latin lookup 1 subtable" one.dnom uni2081 one.numr uni00B9
EndChar

StartChar: two
Encoding: 50 50 535
Width: 569
Flags: W
LayerCount: 2
Fore
SplineSet
458 110 m 2,0,1
 482 110 482 110 498 94 c 128,-1,2
 514 78 514 78 514 54 c 0,3,4
 514 31 514 31 498 15.5 c 128,-1,5
 482 0 482 0 458 0 c 2,6,-1
 118 0 l 2,7,8
 92 0 92 0 77 16 c 128,-1,9
 62 32 62 32 62 57 c 256,10,11
 62 82 62 82 80 101 c 2,12,-1
 298 334 l 2,13,14
 335 374 335 374 356.5 416 c 128,-1,15
 378 458 378 458 378 489 c 0,16,17
 378 539 378 539 349 569.5 c 128,-1,18
 320 600 320 600 272 600 c 0,19,20
 253 600 253 600 233 591 c 128,-1,21
 213 582 213 582 194.5 566 c 128,-1,22
 176 550 176 550 160 529 c 0,23,24
 148 513 148 513 136 509 c 128,-1,25
 124 505 124 505 114 505 c 0,26,27
 92 505 92 505 73.5 521.5 c 128,-1,28
 55 538 55 538 55 560 c 0,29,30
 55 577 55 577 66.5 593 c 128,-1,31
 78 609 78 609 95 626 c 0,32,33
 120 651 120 651 151 670 c 128,-1,34
 182 689 182 689 215 699.5 c 128,-1,35
 248 710 248 710 279 710 c 0,36,37
 346 710 346 710 395.5 683.5 c 128,-1,38
 445 657 445 657 472 608.5 c 128,-1,39
 499 560 499 560 499 494 c 0,40,41
 499 439 499 439 466.5 371.5 c 128,-1,42
 434 304 434 304 379 245 c 2,43,-1
 244 101 l 1,44,-1
 233 110 l 1,45,-1
 458 110 l 2,0,1
EndSplineSet
Substitution2: "'frac' Diagonal Fractions in Latin lookup 28 subtable" two.numr
Substitution2: "'dnom' Denominators in Latin lookup 26 subtable" two.dnom
Substitution2: "'numr' Numerators in Latin lookup 25 subtable" two.numr
Substitution2: "'sups' Superscript in Latin lookup 24 subtable" uni00B2
Substitution2: "'sinf' Scientific Inferiors in Latin lookup 23 subtable" uni2082
Substitution2: "'subs' Subscript in Latin lookup 22 subtable" uni2082
AlternateSubs2: "'aalt' Access All Alternates in Latin lookup 1 subtable" two.dnom uni2082 two.numr uni00B2
EndChar

StartChar: three
Encoding: 51 51 536
Width: 537
Flags: W
LayerCount: 2
Fore
SplineSet
112 141 m 0,0,1
 121 141 121 141 131.5 138 c 128,-1,2
 142 135 142 135 155 126 c 0,3,4
 172 113 172 113 195.5 103 c 128,-1,5
 219 93 219 93 250 93 c 256,6,7
 281 93 281 93 308.5 108.5 c 128,-1,8
 336 124 336 124 354 152.5 c 128,-1,9
 372 181 372 181 372 221 c 0,10,11
 372 259 372 259 356.5 284 c 128,-1,12
 341 309 341 309 315.5 322 c 128,-1,13
 290 335 290 335 261 335 c 0,14,15
 239 335 239 335 224.5 331 c 128,-1,16
 210 327 210 327 196.5 322.5 c 128,-1,17
 183 318 183 318 165 318 c 0,18,19
 142 318 142 318 129.5 334 c 128,-1,20
 117 350 117 350 117 372 c 0,21,22
 117 386 117 386 122.5 397 c 128,-1,23
 128 408 128 408 139 421 c 2,24,-1
 315 608 l 1,25,-1
 342 585 l 1,26,-1
 96 585 l 2,27,28
 72 585 72 585 56 601 c 128,-1,29
 40 617 40 617 40 641 c 0,30,31
 40 664 40 664 56 679.5 c 128,-1,32
 72 695 72 695 96 695 c 2,33,-1
 402 695 l 2,34,35
 433 695 433 695 448.5 678 c 128,-1,36
 464 661 464 661 464 635 c 0,37,38
 464 622 464 622 457 609.5 c 128,-1,39
 450 597 450 597 440 587 c 2,40,-1
 263 397 l 1,41,-1
 236 431 l 1,42,43
 247 436 247 436 266.5 440 c 128,-1,44
 286 444 286 444 299 444 c 0,45,46
 358 444 358 444 401.5 413.5 c 128,-1,47
 445 383 445 383 468.5 334.5 c 128,-1,48
 492 286 492 286 492 230 c 0,49,50
 492 156 492 156 459 102 c 128,-1,51
 426 48 426 48 366 19 c 128,-1,52
 306 -10 306 -10 226 -10 c 0,53,54
 189 -10 189 -10 153 -1 c 128,-1,55
 117 8 117 8 91 23 c 0,56,57
 69 35 69 35 61.5 49.5 c 128,-1,58
 54 64 54 64 54 77 c 0,59,60
 54 100 54 100 70.5 120.5 c 128,-1,61
 87 141 87 141 112 141 c 0,0,1
EndSplineSet
Substitution2: "'frac' Diagonal Fractions in Latin lookup 28 subtable" three.numr
Substitution2: "'dnom' Denominators in Latin lookup 26 subtable" three.dnom
Substitution2: "'numr' Numerators in Latin lookup 25 subtable" three.numr
Substitution2: "'sups' Superscript in Latin lookup 24 subtable" uni00B3
Substitution2: "'sinf' Scientific Inferiors in Latin lookup 23 subtable" uni2083
Substitution2: "'subs' Subscript in Latin lookup 22 subtable" uni2083
AlternateSubs2: "'aalt' Access All Alternates in Latin lookup 1 subtable" three.dnom uni2083 three.numr uni00B3
EndChar

StartChar: four
Encoding: 52 52 537
Width: 588
Flags: W
LayerCount: 2
Fore
SplineSet
389 0 m 0,0,1
 364 0 364 0 347 17.5 c 128,-1,2
 330 35 330 35 330 61 c 2,3,-1
 330 531 l 1,4,-1
 351 526 l 1,5,-1
 158 287 l 1,6,-1
 153 300 l 1,7,-1
 507 300 l 2,8,9
 531 300 531 300 547 284 c 128,-1,10
 563 268 563 268 563 244 c 0,11,12
 563 221 563 221 547 205.5 c 128,-1,13
 531 190 531 190 507 190 c 2,14,-1
 70 190 l 2,15,16
 49 190 49 190 29.5 207 c 128,-1,17
 10 224 10 224 10 249 c 0,18,19
 10 271 10 271 25 289 c 2,20,-1
 341 676 l 2,21,22
 349 687 349 687 362 693.5 c 128,-1,23
 375 700 375 700 391 700 c 0,24,25
 417 700 417 700 433.5 682.5 c 128,-1,26
 450 665 450 665 450 639 c 2,27,-1
 450 61 l 2,28,29
 450 35 450 35 432.5 17.5 c 128,-1,30
 415 0 415 0 389 0 c 0,0,1
EndSplineSet
Substitution2: "'frac' Diagonal Fractions in Latin lookup 28 subtable" four.numr
Substitution2: "'dnom' Denominators in Latin lookup 26 subtable" four.dnom
Substitution2: "'numr' Numerators in Latin lookup 25 subtable" four.numr
Substitution2: "'sups' Superscript in Latin lookup 24 subtable" uni2074
Substitution2: "'sinf' Scientific Inferiors in Latin lookup 23 subtable" uni2084
Substitution2: "'subs' Subscript in Latin lookup 22 subtable" uni2084
AlternateSubs2: "'aalt' Access All Alternates in Latin lookup 1 subtable" four.dnom uni2084 four.numr uni2074
EndChar

StartChar: five
Encoding: 53 53 538
Width: 576
Flags: W
LayerCount: 2
Fore
SplineSet
241 -10 m 0,0,1
 204 -10 204 -10 162 1.5 c 128,-1,2
 120 13 120 13 93 35 c 0,3,4
 80 46 80 46 72.5 63.5 c 128,-1,5
 65 81 65 81 65 97 c 0,6,7
 65 114 65 114 79.5 129 c 128,-1,8
 94 144 94 144 121 144 c 0,9,10
 139 144 139 144 166 125 c 0,11,12
 182 115 182 115 201 107 c 128,-1,13
 220 99 220 99 240 99 c 0,14,15
 288 99 288 99 323 116.5 c 128,-1,16
 358 134 358 134 377 165 c 128,-1,17
 396 196 396 196 396 238 c 0,18,19
 396 276 396 276 378.5 303 c 128,-1,20
 361 330 361 330 332.5 345 c 128,-1,21
 304 360 304 360 271 360 c 0,22,23
 240 360 240 360 217 350 c 128,-1,24
 194 340 194 340 175 329.5 c 128,-1,25
 156 319 156 319 137 319 c 0,26,27
 104 319 104 319 88 333.5 c 128,-1,28
 72 348 72 348 68 368 c 128,-1,29
 64 388 64 388 66 404 c 2,30,-1
 97 647 l 2,31,32
 101 668 101 668 117.5 681.5 c 128,-1,33
 134 695 134 695 157 695 c 2,34,-1
 446 695 l 2,35,36
 470 695 470 695 486 679 c 128,-1,37
 502 663 502 663 502 639 c 0,38,39
 502 616 502 616 486 600.5 c 128,-1,40
 470 585 470 585 446 585 c 2,41,-1
 188 585 l 1,42,-1
 199 594 l 1,43,-1
 172 391 l 1,44,-1
 159 429 l 1,45,46
 165 439 165 439 185 448 c 128,-1,47
 205 457 205 457 231 463.5 c 128,-1,48
 257 470 257 470 282 470 c 0,49,50
 349 470 349 470 402 439.5 c 128,-1,51
 455 409 455 409 485.5 356.5 c 128,-1,52
 516 304 516 304 516 238 c 0,53,54
 516 163 516 163 482 107 c 128,-1,55
 448 51 448 51 386.5 20.5 c 128,-1,56
 325 -10 325 -10 241 -10 c 0,0,1
EndSplineSet
Substitution2: "'frac' Diagonal Fractions in Latin lookup 28 subtable" five.numr
Substitution2: "'dnom' Denominators in Latin lookup 26 subtable" five.dnom
Substitution2: "'numr' Numerators in Latin lookup 25 subtable" five.numr
Substitution2: "'sups' Superscript in Latin lookup 24 subtable" uni2075
Substitution2: "'sinf' Scientific Inferiors in Latin lookup 23 subtable" uni2085
Substitution2: "'subs' Subscript in Latin lookup 22 subtable" uni2085
AlternateSubs2: "'aalt' Access All Alternates in Latin lookup 1 subtable" five.dnom uni2085 five.numr uni2075
EndChar

StartChar: six
Encoding: 54 54 539
Width: 553
Flags: W
LayerCount: 2
Fore
SplineSet
285 -10 m 0,0,1
 231 -10 231 -10 187.5 12.5 c 128,-1,2
 144 35 144 35 113.5 74 c 128,-1,3
 83 113 83 113 66.5 162 c 128,-1,4
 50 211 50 211 50 263 c 0,5,6
 50 297 50 297 57.5 345 c 128,-1,7
 65 393 65 393 84 446 c 128,-1,8
 103 499 103 499 137 549 c 128,-1,9
 171 599 171 599 223.5 639 c 128,-1,10
 276 679 276 679 352 700 c 0,11,12
 364 703 364 703 375 703 c 0,13,14
 398 703 398 703 416.5 691 c 128,-1,15
 435 679 435 679 435 647 c 0,16,17
 435 625 435 625 420.5 608.5 c 128,-1,18
 406 592 406 592 382 585 c 0,19,20
 348 575 348 575 314.5 555.5 c 128,-1,21
 281 536 281 536 252.5 508 c 128,-1,22
 224 480 224 480 203.5 444.5 c 128,-1,23
 183 409 183 409 174 368 c 1,24,-1
 147 369 l 1,25,26
 161 386 161 386 181.5 405.5 c 128,-1,27
 202 425 202 425 231.5 439.5 c 128,-1,28
 261 454 261 454 301 454 c 0,29,30
 340 454 340 454 378.5 436 c 128,-1,31
 417 418 417 418 448.5 386.5 c 128,-1,32
 480 355 480 355 499 312.5 c 128,-1,33
 518 270 518 270 518 222 c 0,34,35
 518 158 518 158 486.5 105 c 128,-1,36
 455 52 455 52 402.5 21 c 128,-1,37
 350 -10 350 -10 285 -10 c 0,0,1
285 100 m 256,38,39
 317 100 317 100 342.5 116 c 128,-1,40
 368 132 368 132 383 160 c 128,-1,41
 398 188 398 188 398 222 c 0,42,43
 398 257 398 257 383 284.5 c 128,-1,44
 368 312 368 312 342.5 328 c 128,-1,45
 317 344 317 344 285 344 c 256,46,47
 253 344 253 344 227.5 328 c 128,-1,48
 202 312 202 312 187 284.5 c 128,-1,49
 172 257 172 257 172 222 c 0,50,51
 172 188 172 188 187 160 c 128,-1,52
 202 132 202 132 227.5 116 c 128,-1,53
 253 100 253 100 285 100 c 256,38,39
EndSplineSet
Substitution2: "'frac' Diagonal Fractions in Latin lookup 28 subtable" six.numr
Substitution2: "'dnom' Denominators in Latin lookup 26 subtable" six.dnom
Substitution2: "'numr' Numerators in Latin lookup 25 subtable" six.numr
Substitution2: "'sups' Superscript in Latin lookup 24 subtable" uni2076
Substitution2: "'sinf' Scientific Inferiors in Latin lookup 23 subtable" uni2086
Substitution2: "'subs' Subscript in Latin lookup 22 subtable" uni2086
AlternateSubs2: "'aalt' Access All Alternates in Latin lookup 1 subtable" six.dnom uni2086 six.numr uni2076
EndChar

StartChar: seven
Encoding: 55 55 540
Width: 549
Flags: W
LayerCount: 2
Fore
SplineSet
200 -5 m 0,0,1
 175 -5 175 -5 156.5 11.5 c 128,-1,2
 138 28 138 28 138 53 c 0,3,4
 138 67 138 67 144 80 c 2,5,-1
 389 611 l 1,6,-1
 400 584 l 1,7,-1
 111 584 l 2,8,9
 87 584 87 584 71 600 c 128,-1,10
 55 616 55 616 55 640 c 0,11,12
 55 663 55 663 71 678.5 c 128,-1,13
 87 694 87 694 111 694 c 2,14,-1
 459 694 l 2,15,16
 485 694 485 694 504.5 677.5 c 128,-1,17
 524 661 524 661 524 635 c 0,18,19
 524 622 524 622 518 608 c 2,20,-1
 255 33 l 2,21,22
 248 15 248 15 232.5 5 c 128,-1,23
 217 -5 217 -5 200 -5 c 0,0,1
EndSplineSet
Substitution2: "'frac' Diagonal Fractions in Latin lookup 28 subtable" seven.numr
Substitution2: "'dnom' Denominators in Latin lookup 26 subtable" seven.dnom
Substitution2: "'numr' Numerators in Latin lookup 25 subtable" seven.numr
Substitution2: "'sups' Superscript in Latin lookup 24 subtable" uni2077
Substitution2: "'sinf' Scientific Inferiors in Latin lookup 23 subtable" uni2087
Substitution2: "'subs' Subscript in Latin lookup 22 subtable" uni2087
AlternateSubs2: "'aalt' Access All Alternates in Latin lookup 1 subtable" seven.dnom uni2087 seven.numr uni2077
EndChar

StartChar: eight
Encoding: 56 56 541
Width: 548
Flags: W
LayerCount: 2
Fore
SplineSet
386 355 m 1,0,-1
 384 378 l 1,1,2
 422 361 422 361 450 334 c 128,-1,3
 478 307 478 307 493 275 c 128,-1,4
 508 243 508 243 508 209 c 0,5,6
 508 152 508 152 476.5 104.5 c 128,-1,7
 445 57 445 57 392 28.5 c 128,-1,8
 339 0 339 0 274 0 c 256,9,10
 209 0 209 0 156 28.5 c 128,-1,11
 103 57 103 57 71.5 104.5 c 128,-1,12
 40 152 40 152 40 209 c 0,13,14
 40 255 40 255 59.5 288.5 c 128,-1,15
 79 322 79 322 108.5 345 c 128,-1,16
 138 368 138 368 167 383 c 1,17,-1
 159 355 l 1,18,19
 134 365 134 365 110.5 383.5 c 128,-1,20
 87 402 87 402 72 431 c 128,-1,21
 57 460 57 460 57 499 c 0,22,23
 57 555 57 555 86 600.5 c 128,-1,24
 115 646 115 646 164.5 673 c 128,-1,25
 214 700 214 700 274 700 c 0,26,27
 335 700 335 700 383.5 673 c 128,-1,28
 432 646 432 646 461 600.5 c 128,-1,29
 490 555 490 555 490 499 c 0,30,31
 490 456 490 456 473 427 c 128,-1,32
 456 398 456 398 432 381 c 128,-1,33
 408 364 408 364 386 355 c 1,0,-1
177 497 m 0,34,35
 177 470 177 470 189.5 449 c 128,-1,36
 202 428 202 428 224 415.5 c 128,-1,37
 246 403 246 403 274 403 c 256,38,39
 302 403 302 403 323.5 415.5 c 128,-1,40
 345 428 345 428 357.5 449 c 128,-1,41
 370 470 370 470 370 497 c 0,42,43
 370 537 370 537 342.5 563.5 c 128,-1,44
 315 590 315 590 274 590 c 0,45,46
 232 590 232 590 204.5 563.5 c 128,-1,47
 177 537 177 537 177 497 c 0,34,35
274 110 m 256,48,49
 322 110 322 110 355 139.5 c 128,-1,50
 388 169 388 169 388 211 c 0,51,52
 388 240 388 240 373 263 c 128,-1,53
 358 286 358 286 332 299.5 c 128,-1,54
 306 313 306 313 274 313 c 256,55,56
 242 313 242 313 216 299.5 c 128,-1,57
 190 286 190 286 175 263 c 128,-1,58
 160 240 160 240 160 211 c 0,59,60
 160 169 160 169 193 139.5 c 128,-1,61
 226 110 226 110 274 110 c 256,48,49
EndSplineSet
Substitution2: "'frac' Diagonal Fractions in Latin lookup 28 subtable" eight.numr
Substitution2: "'dnom' Denominators in Latin lookup 26 subtable" eight.dnom
Substitution2: "'numr' Numerators in Latin lookup 25 subtable" eight.numr
Substitution2: "'sups' Superscript in Latin lookup 24 subtable" uni2078
Substitution2: "'sinf' Scientific Inferiors in Latin lookup 23 subtable" uni2088
Substitution2: "'subs' Subscript in Latin lookup 22 subtable" uni2088
AlternateSubs2: "'aalt' Access All Alternates in Latin lookup 1 subtable" eight.dnom uni2088 eight.numr uni2078
EndChar

StartChar: nine
Encoding: 57 57 542
Width: 568
Flags: W
LayerCount: 2
Fore
SplineSet
283 713 m 0,0,1
 337 713 337 713 380.5 690.5 c 128,-1,2
 424 668 424 668 454.5 629 c 128,-1,3
 485 590 485 590 501.5 541.5 c 128,-1,4
 518 493 518 493 518 440 c 0,5,6
 518 406 518 406 510.5 357 c 128,-1,7
 503 308 503 308 484 253.5 c 128,-1,8
 465 199 465 199 431 147.5 c 128,-1,9
 397 96 397 96 344.5 55 c 128,-1,10
 292 14 292 14 216 -7 c 0,11,12
 204 -10 204 -10 193 -10 c 0,13,14
 170 -10 170 -10 151.5 2.5 c 128,-1,15
 133 15 133 15 133 46 c 0,16,17
 133 69 133 69 147.5 85 c 128,-1,18
 162 101 162 101 186 108 c 0,19,20
 232 122 232 122 275.5 154.5 c 128,-1,21
 319 187 319 187 351 233.5 c 128,-1,22
 383 280 383 280 394 335 c 1,23,-1
 421 334 l 1,24,25
 408 318 408 318 387.5 298 c 128,-1,26
 367 278 367 278 337.5 263.5 c 128,-1,27
 308 249 308 249 267 249 c 0,28,29
 201 249 201 249 152.5 277.5 c 128,-1,30
 104 306 104 306 77 358.5 c 128,-1,31
 50 411 50 411 50 481 c 0,32,33
 50 544 50 544 81.5 597 c 128,-1,34
 113 650 113 650 166 681.5 c 128,-1,35
 219 713 219 713 283 713 c 0,0,1
283 603 m 256,36,37
 251 603 251 603 225.5 586.5 c 128,-1,38
 200 570 200 570 185 542.5 c 128,-1,39
 170 515 170 515 170 481 c 0,40,41
 170 444 170 444 184 416.5 c 128,-1,42
 198 389 198 389 223.5 374 c 128,-1,43
 249 359 249 359 283 359 c 0,44,45
 315 359 315 359 340.5 375 c 128,-1,46
 366 391 366 391 381 419 c 128,-1,47
 396 447 396 447 396 481 c 0,48,49
 396 516 396 516 381 543.5 c 128,-1,50
 366 571 366 571 340.5 587 c 128,-1,51
 315 603 315 603 283 603 c 256,36,37
EndSplineSet
Substitution2: "'frac' Diagonal Fractions in Latin lookup 28 subtable" nine.numr
Substitution2: "'dnom' Denominators in Latin lookup 26 subtable" nine.dnom
Substitution2: "'numr' Numerators in Latin lookup 25 subtable" nine.numr
Substitution2: "'sups' Superscript in Latin lookup 24 subtable" uni2079
Substitution2: "'sinf' Scientific Inferiors in Latin lookup 23 subtable" uni2089
Substitution2: "'subs' Subscript in Latin lookup 22 subtable" uni2089
AlternateSubs2: "'aalt' Access All Alternates in Latin lookup 1 subtable" nine.dnom uni2089 nine.numr uni2079
EndChar

StartChar: zero.dnom
Encoding: 65579 -1 544
Width: 387
Flags: W
LayerCount: 2
Fore
SplineSet
194 -10 m 256,0,1
 148 -10 148 -10 111 16 c 128,-1,2
 74 42 74 42 52 86 c 128,-1,3
 30 130 30 130 30 184 c 0,4,5
 30 239 30 239 51 283 c 128,-1,6
 72 327 72 327 109 353 c 128,-1,7
 146 379 146 379 194 379 c 0,8,9
 243 379 243 379 279.5 353 c 128,-1,10
 316 327 316 327 336.5 283 c 128,-1,11
 357 239 357 239 357 184 c 0,12,13
 357 130 357 130 335 86 c 128,-1,14
 313 42 313 42 276.5 16 c 128,-1,15
 240 -10 240 -10 194 -10 c 256,0,1
194 79 m 0,16,17
 224 79 224 79 240.5 109 c 128,-1,18
 257 139 257 139 257 184 c 256,19,20
 257 229 257 229 241 259 c 128,-1,21
 225 289 225 289 194 289 c 0,22,23
 164 289 164 289 147 259 c 128,-1,24
 130 229 130 229 130 184 c 256,25,26
 130 139 130 139 146.5 109 c 128,-1,27
 163 79 163 79 194 79 c 0,16,17
EndSplineSet
EndChar

StartChar: one.dnom
Encoding: 65580 -1 545
Width: 320
Flags: W
LayerCount: 2
Fore
SplineSet
195 0 m 0,0,1
 176 0 176 0 163 13 c 128,-1,2
 150 26 150 26 150 46 c 2,3,-1
 150 281 l 1,4,-1
 157 257 l 1,5,-1
 116 229 l 2,6,7
 109 224 109 224 100.5 221 c 128,-1,8
 92 218 92 218 84 218 c 0,9,10
 62 218 62 218 51 234.5 c 128,-1,11
 40 251 40 251 40 266 c 0,12,13
 40 291 40 291 65 305 c 2,14,-1
 161 360 l 2,15,16
 180 368 180 368 190 368 c 0,17,18
 212 368 212 368 226 354 c 128,-1,19
 240 340 240 340 240 317 c 2,20,-1
 240 46 l 2,21,22
 240 26 240 26 227.5 13 c 128,-1,23
 215 0 215 0 195 0 c 0,0,1
EndSplineSet
EndChar

StartChar: two.dnom
Encoding: 65581 -1 546
Width: 364
Flags: W
LayerCount: 2
Fore
SplineSet
96 0 m 2,0,1
 76 0 76 0 63 13 c 128,-1,2
 50 26 50 26 50 45 c 0,3,4
 50 58 50 58 55 66.5 c 128,-1,5
 60 75 60 75 69 84 c 2,6,-1
 144 153 l 2,7,8
 171 179 171 179 190.5 205 c 128,-1,9
 210 231 210 231 210 256 c 0,10,11
 210 276 210 276 200 285.5 c 128,-1,12
 190 295 190 295 173 295 c 0,13,14
 161 295 161 295 149.5 288 c 128,-1,15
 138 281 138 281 130 270 c 0,16,17
 123 262 123 262 115 259.5 c 128,-1,18
 107 257 107 257 99 257 c 0,19,20
 77 257 77 257 65.5 269.5 c 128,-1,21
 54 282 54 282 54 298 c 0,22,23
 54 321 54 321 75 340 c 128,-1,24
 96 359 96 359 126 370 c 128,-1,25
 156 381 156 381 183 381 c 0,26,27
 229 381 229 381 257.5 362.5 c 128,-1,28
 286 344 286 344 299 316 c 128,-1,29
 312 288 312 288 312 258 c 0,30,31
 312 235 312 235 301 212.5 c 128,-1,32
 290 190 290 190 272 169 c 128,-1,33
 254 148 254 148 233 128 c 2,34,-1
 166 70 l 1,35,-1
 160 80 l 1,36,-1
 273 80 l 2,37,38
 291 80 291 80 302.5 68.5 c 128,-1,39
 314 57 314 57 314 40 c 256,40,41
 314 23 314 23 302.5 11.5 c 128,-1,42
 291 0 291 0 273 0 c 2,43,-1
 96 0 l 2,0,1
EndSplineSet
EndChar

StartChar: three.dnom
Encoding: 65582 -1 547
Width: 355
Flags: W
LayerCount: 2
Fore
SplineSet
175 -10 m 0,0,1
 144 -10 144 -10 120 -5 c 128,-1,2
 96 0 96 0 82 9 c 0,3,4
 60 22 60 22 60 46 c 0,5,6
 60 63 60 63 71.5 75.5 c 128,-1,7
 83 88 83 88 101 88 c 0,8,9
 106 88 106 88 110.5 87.5 c 128,-1,10
 115 87 115 87 122 82 c 0,11,12
 128 78 128 78 138.5 72 c 128,-1,13
 149 66 149 66 166 66 c 0,14,15
 188 66 188 66 206.5 77.5 c 128,-1,16
 225 89 225 89 225 117 c 0,17,18
 225 137 225 137 209.5 148 c 128,-1,19
 194 159 194 159 170 159 c 0,20,21
 153 159 153 159 141 152.5 c 128,-1,22
 129 146 129 146 110 146 c 0,23,24
 97 146 97 146 86 156.5 c 128,-1,25
 75 167 75 167 75 182 c 0,26,27
 75 190 75 190 77.5 199.5 c 128,-1,28
 80 209 80 209 87 214 c 2,29,-1
 187 294 l 1,30,-1
 212 290 l 1,31,-1
 101 290 l 2,32,33
 83 290 83 290 71.5 301.5 c 128,-1,34
 60 313 60 313 60 331 c 0,35,36
 60 348 60 348 71.5 359 c 128,-1,37
 83 370 83 370 101 370 c 2,38,-1
 253 370 l 2,39,40
 273 370 273 370 286 357 c 128,-1,41
 299 344 299 344 299 324 c 0,42,43
 299 302 299 302 286 292 c 2,44,-1
 186 214 l 1,45,-1
 177 226 l 1,46,47
 182 228 182 228 187 229.5 c 128,-1,48
 192 231 192 231 196 231 c 0,49,50
 239 231 239 231 265 215 c 128,-1,51
 291 199 291 199 303 173.5 c 128,-1,52
 315 148 315 148 315 119 c 0,53,54
 315 77 315 77 294 48 c 128,-1,55
 273 19 273 19 241 4.5 c 128,-1,56
 209 -10 209 -10 175 -10 c 0,0,1
EndSplineSet
EndChar

StartChar: four.dnom
Encoding: 65583 -1 548
Width: 438
Flags: W
LayerCount: 2
Fore
SplineSet
266 0 m 0,0,1
 247 0 247 0 234 13 c 128,-1,2
 221 26 221 26 221 46 c 2,3,-1
 221 310 l 1,4,-1
 263 293 l 1,5,-1
 128 142 l 1,6,-1
 132 165 l 1,7,-1
 332 165 l 2,8,9
 373 165 373 165 373 125 c 256,10,11
 373 85 373 85 332 85 c 2,12,-1
 93 85 l 2,13,14
 71 85 71 85 55.5 99 c 128,-1,15
 40 113 40 113 40 135 c 0,16,17
 40 143 40 143 42.5 152 c 128,-1,18
 45 161 45 161 51 168 c 2,19,-1
 216 360 l 2,20,21
 227 374 227 374 240 377.5 c 128,-1,22
 253 381 253 381 261 381 c 0,23,24
 283 381 283 381 297 367 c 128,-1,25
 311 353 311 353 311 330 c 2,26,-1
 311 46 l 2,27,28
 311 26 311 26 298.5 13 c 128,-1,29
 286 0 286 0 266 0 c 0,0,1
EndSplineSet
EndChar

StartChar: five.dnom
Encoding: 65584 -1 549
Width: 379
Flags: W
LayerCount: 2
Fore
SplineSet
158 -9 m 0,0,1
 137 -9 137 -9 112.5 -3 c 128,-1,2
 88 3 88 3 71 16 c 0,3,4
 48 34 48 34 48 61 c 0,5,6
 48 78 48 78 57 86.5 c 128,-1,7
 66 95 66 95 86 95 c 0,8,9
 93 95 93 95 99.5 93 c 128,-1,10
 106 91 106 91 113 85 c 0,11,12
 120 81 120 81 134.5 76 c 128,-1,13
 149 71 149 71 171 71 c 0,14,15
 195 71 195 71 212.5 84.5 c 128,-1,16
 230 98 230 98 230 122 c 0,17,18
 230 140 230 140 215.5 155 c 128,-1,19
 201 170 201 170 173 170 c 0,20,21
 156 170 156 170 143.5 165.5 c 128,-1,22
 131 161 131 161 122 156 c 128,-1,23
 113 151 113 151 103 151 c 0,24,25
 75 151 75 151 68 167.5 c 128,-1,26
 61 184 61 184 63 197 c 2,27,-1
 80 343 l 2,28,29
 83 353 83 353 92 360 c 128,-1,30
 101 367 101 367 114 367 c 2,31,-1
 278 367 l 2,32,33
 297 367 297 367 308.5 356 c 128,-1,34
 320 345 320 345 320 329 c 0,35,36
 320 311 320 311 308.5 299 c 128,-1,37
 297 287 297 287 278 287 c 2,38,-1
 129 287 l 1,39,-1
 164 314 l 1,40,-1
 151 179 l 1,41,-1
 115 200 l 1,42,43
 131 226 131 226 156 239 c 128,-1,44
 181 252 181 252 214 252 c 0,45,46
 243 252 243 252 268.5 239.5 c 128,-1,47
 294 227 294 227 310.5 200.5 c 128,-1,48
 327 174 327 174 327 131 c 0,49,50
 327 79 327 79 304 48.5 c 128,-1,51
 281 18 281 18 242.5 4.5 c 128,-1,52
 204 -9 204 -9 158 -9 c 0,0,1
EndSplineSet
EndChar

StartChar: six.dnom
Encoding: 65585 -1 550
Width: 351
Flags: W
LayerCount: 2
Fore
SplineSet
176 -12 m 0,0,1
 132 -12 132 -12 99 12.5 c 128,-1,2
 66 37 66 37 48 76 c 128,-1,3
 30 115 30 115 30 158 c 0,4,5
 30 209 30 209 42.5 250 c 128,-1,6
 55 291 55 291 78.5 320 c 128,-1,7
 102 349 102 349 136 364 c 128,-1,8
 170 379 170 379 214 379 c 0,9,10
 260 379 260 379 280 366.5 c 128,-1,11
 300 354 300 354 300 331 c 0,12,13
 300 311 300 311 287.5 297.5 c 128,-1,14
 275 284 275 284 230 292 c 0,15,16
 190 299 190 299 159 275.5 c 128,-1,17
 128 252 128 252 128 193 c 1,18,-1
 72 122 l 1,19,20
 90 179 90 179 124 210 c 128,-1,21
 158 241 158 241 201 241 c 0,22,23
 254 241 254 241 287.5 209.5 c 128,-1,24
 321 178 321 178 321 133 c 0,25,26
 321 90 321 90 301 57.5 c 128,-1,27
 281 25 281 25 248 6.5 c 128,-1,28
 215 -12 215 -12 176 -12 c 0,0,1
176 62 m 0,29,30
 196 62 196 62 211 78 c 128,-1,31
 226 94 226 94 226 118 c 0,32,33
 226 139 226 139 211 154.5 c 128,-1,34
 196 170 196 170 176 170 c 0,35,36
 154 170 154 170 139.5 154.5 c 128,-1,37
 125 139 125 139 125 118 c 0,38,39
 125 94 125 94 139.5 78 c 128,-1,40
 154 62 154 62 176 62 c 0,29,30
EndSplineSet
EndChar

StartChar: seven.dnom
Encoding: 65586 -1 551
Width: 349
Flags: W
LayerCount: 2
Fore
SplineSet
146 -1 m 0,0,1
 130 -1 130 -1 116.5 9.5 c 128,-1,2
 103 20 103 20 103 38 c 0,3,4
 103 45 103 45 105 51 c 128,-1,5
 107 57 107 57 110 64 c 2,6,-1
 230 325 l 1,7,-1
 242 285 l 1,8,-1
 86 285 l 2,9,10
 67 285 67 285 56 296 c 128,-1,11
 45 307 45 307 45 326 c 256,12,13
 45 345 45 345 56 355 c 128,-1,14
 67 365 67 365 86 365 c 2,15,-1
 244 365 l 2,16,17
 270 365 270 365 289.5 348.5 c 128,-1,18
 309 332 309 332 309 306 c 0,19,20
 309 299 309 299 307.5 292.5 c 128,-1,21
 306 286 306 286 303 279 c 2,22,-1
 193 37 l 2,23,24
 187 24 187 24 175 11.5 c 128,-1,25
 163 -1 163 -1 146 -1 c 0,0,1
EndSplineSet
EndChar

StartChar: eight.dnom
Encoding: 65587 -1 552
Width: 388
Flags: W
LayerCount: 2
Fore
SplineSet
194 -12 m 0,0,1
 155 -12 155 -12 122 4 c 128,-1,2
 89 20 89 20 69.5 46.5 c 128,-1,3
 50 73 50 73 50 105 c 0,4,5
 50 131 50 131 63 149.5 c 128,-1,6
 76 168 76 168 95 180.5 c 128,-1,7
 114 193 114 193 131 201 c 1,8,-1
 127 186 l 1,9,10
 102 194 102 194 81 214 c 128,-1,11
 60 234 60 234 60 266 c 256,12,13
 60 298 60 298 78 323 c 128,-1,14
 96 348 96 348 126.5 363 c 128,-1,15
 157 378 157 378 194 378 c 256,16,17
 231 378 231 378 261 363 c 128,-1,18
 291 348 291 348 309 323 c 128,-1,19
 327 298 327 298 327 266 c 0,20,21
 327 231 327 231 303.5 212.5 c 128,-1,22
 280 194 280 194 259 186 c 1,23,-1
 258 200 l 1,24,25
 294 185 294 185 315 159.5 c 128,-1,26
 336 134 336 134 336 105 c 0,27,28
 336 73 336 73 316.5 46.5 c 128,-1,29
 297 20 297 20 264.5 4 c 128,-1,30
 232 -12 232 -12 194 -12 c 0,0,1
194 231 m 0,31,32
 211 231 211 231 224 241.5 c 128,-1,33
 237 252 237 252 237 266 c 0,34,35
 237 283 237 283 224 293 c 128,-1,36
 211 303 211 303 194 303 c 0,37,38
 174 303 174 303 162 293 c 128,-1,39
 150 283 150 283 150 266 c 0,40,41
 150 252 150 252 162 241.5 c 128,-1,42
 174 231 174 231 194 231 c 0,31,32
194 63 m 0,43,44
 215 63 215 63 230.5 77.5 c 128,-1,45
 246 92 246 92 246 113 c 0,46,47
 246 133 246 133 230.5 145.5 c 128,-1,48
 215 158 215 158 194 158 c 0,49,50
 172 158 172 158 156 145.5 c 128,-1,51
 140 133 140 133 140 113 c 0,52,53
 140 92 140 92 156 77.5 c 128,-1,54
 172 63 172 63 194 63 c 0,43,44
EndSplineSet
EndChar

StartChar: nine.dnom
Encoding: 65588 -1 553
Width: 351
Flags: W
LayerCount: 2
Fore
SplineSet
137 -12 m 0,0,1
 91 -12 91 -12 71 1 c 128,-1,2
 51 14 51 14 51 36 c 0,3,4
 51 56 51 56 63.5 69.5 c 128,-1,5
 76 83 76 83 121 75 c 0,6,7
 162 68 162 68 192.5 91.5 c 128,-1,8
 223 115 223 115 223 174 c 1,9,-1
 279 245 l 1,10,11
 261 188 261 188 227 157 c 128,-1,12
 193 126 193 126 150 126 c 0,13,14
 97 126 97 126 63.5 157.5 c 128,-1,15
 30 189 30 189 30 234 c 0,16,17
 30 277 30 277 50 309.5 c 128,-1,18
 70 342 70 342 103 360.5 c 128,-1,19
 136 379 136 379 175 379 c 0,20,21
 220 379 220 379 252.5 354.5 c 128,-1,22
 285 330 285 330 303 291.5 c 128,-1,23
 321 253 321 253 321 209 c 0,24,25
 321 158 321 158 308.5 117 c 128,-1,26
 296 76 296 76 272.5 47 c 128,-1,27
 249 18 249 18 215 3 c 128,-1,28
 181 -12 181 -12 137 -12 c 0,0,1
175 197 m 0,29,30
 197 197 197 197 211.5 212.5 c 128,-1,31
 226 228 226 228 226 249 c 0,32,33
 226 273 226 273 211.5 289 c 128,-1,34
 197 305 197 305 175 305 c 0,35,36
 155 305 155 305 140 289 c 128,-1,37
 125 273 125 273 125 249 c 0,38,39
 125 228 125 228 140 212.5 c 128,-1,40
 155 197 155 197 175 197 c 0,29,30
EndSplineSet
EndChar

StartChar: fraction
Encoding: 8260 8260 584
Width: 540
Flags: W
LayerCount: 2
Fore
SplineSet
72 -2 m 0,0,1
 56 -2 56 -2 38 11.5 c 128,-1,2
 20 25 20 25 20 47 c 0,3,4
 20 60 20 60 30 77 c 2,5,-1
 428 678 l 2,6,7
 446 702 446 702 469 702 c 0,8,9
 486 702 486 702 503.5 689 c 128,-1,10
 521 676 521 676 521 653 c 0,11,12
 521 640 521 640 511 623 c 2,13,-1
 113 22 l 2,14,15
 95 -2 95 -2 72 -2 c 0,0,1
EndSplineSet
EndChar

StartChar: period
Encoding: 46 46 600
Width: 249
Flags: W
LayerCount: 2
Fore
SplineSet
118 1 m 2,0,1
 89 1 89 1 73.5 16.5 c 128,-1,2
 58 32 58 32 58 61 c 2,3,-1
 58 78 l 2,4,5
 58 107 58 107 73.5 122.5 c 128,-1,6
 89 138 89 138 118 138 c 2,7,-1
 131 138 l 2,8,9
 160 138 160 138 175.5 122.5 c 128,-1,10
 191 107 191 107 191 78 c 2,11,-1
 191 61 l 2,12,13
 191 32 191 32 175.5 16.5 c 128,-1,14
 160 1 160 1 131 1 c 2,15,-1
 118 1 l 2,0,1
EndSplineSet
EndChar

StartChar: comma
Encoding: 44 44 601
Width: 275
Flags: W
LayerCount: 2
Fore
SplineSet
217 8 m 0,0,1
 217 -25 217 -25 198.5 -58.5 c 128,-1,2
 180 -92 180 -92 150.5 -114.5 c 128,-1,3
 121 -137 121 -137 88 -137 c 0,4,5
 77 -137 77 -137 64.5 -128 c 128,-1,6
 52 -119 52 -119 52 -97 c 0,7,8
 52 -74 52 -74 66.5 -69.5 c 128,-1,9
 81 -65 81 -65 91 -60 c 0,10,11
 104 -53 104 -53 111.5 -43.5 c 128,-1,12
 119 -34 119 -34 119 -20 c 0,13,14
 119 -9 119 -9 108.5 -0.5 c 128,-1,15
 98 8 98 8 81 8 c 0,16,17
 75 8 75 8 67 6.5 c 128,-1,18
 59 5 59 5 53 1 c 1,19,20
 43 6 43 6 35.5 13.5 c 128,-1,21
 28 21 28 21 28 38 c 0,22,23
 28 69 28 69 56.5 91.5 c 128,-1,24
 85 114 85 114 123 114 c 0,25,26
 166 114 166 114 191.5 85 c 128,-1,27
 217 56 217 56 217 8 c 0,0,1
EndSplineSet
EndChar

StartChar: colon
Encoding: 58 58 602
Width: 273
Flags: W
LayerCount: 2
Fore
SplineSet
130 391 m 2,0,1
 101 391 101 391 85.5 406.5 c 128,-1,2
 70 422 70 422 70 451 c 2,3,-1
 70 468 l 2,4,5
 70 497 70 497 85.5 512.5 c 128,-1,6
 101 528 101 528 130 528 c 2,7,-1
 143 528 l 2,8,9
 172 528 172 528 187.5 512.5 c 128,-1,10
 203 497 203 497 203 468 c 2,11,-1
 203 451 l 2,12,13
 203 422 203 422 187.5 406.5 c 128,-1,14
 172 391 172 391 143 391 c 2,15,-1
 130 391 l 2,0,1
130 0 m 2,16,17
 101 0 101 0 85.5 15.5 c 128,-1,18
 70 31 70 31 70 60 c 2,19,-1
 70 77 l 2,20,21
 70 106 70 106 85.5 121.5 c 128,-1,22
 101 137 101 137 130 137 c 2,23,-1
 143 137 l 2,24,25
 172 137 172 137 187.5 121.5 c 128,-1,26
 203 106 203 106 203 77 c 2,27,-1
 203 60 l 2,28,29
 203 31 203 31 187.5 15.5 c 128,-1,30
 172 0 172 0 143 0 c 2,31,-1
 130 0 l 2,16,17
EndSplineSet
EndChar

StartChar: semicolon
Encoding: 59 59 603
Width: 294
Flags: W
LayerCount: 2
Fore
SplineSet
156 391 m 2,0,1
 127 391 127 391 111.5 406.5 c 128,-1,2
 96 422 96 422 96 451 c 2,3,-1
 96 468 l 2,4,5
 96 497 96 497 111.5 512.5 c 128,-1,6
 127 528 127 528 156 528 c 2,7,-1
 169 528 l 2,8,9
 198 528 198 528 213.5 512.5 c 128,-1,10
 229 497 229 497 229 468 c 2,11,-1
 229 451 l 2,12,13
 229 422 229 422 213.5 406.5 c 128,-1,14
 198 391 198 391 169 391 c 2,15,-1
 156 391 l 2,0,1
249 8 m 0,16,17
 249 -25 249 -25 230.5 -58.5 c 128,-1,18
 212 -92 212 -92 182.5 -114.5 c 128,-1,19
 153 -137 153 -137 120 -137 c 0,20,21
 109 -137 109 -137 96.5 -128 c 128,-1,22
 84 -119 84 -119 84 -97 c 0,23,24
 84 -74 84 -74 98.5 -69.5 c 128,-1,25
 113 -65 113 -65 123 -60 c 0,26,27
 136 -53 136 -53 143.5 -43.5 c 128,-1,28
 151 -34 151 -34 151 -20 c 0,29,30
 151 -9 151 -9 140.5 -0.5 c 128,-1,31
 130 8 130 8 113 8 c 0,32,33
 107 8 107 8 99 6.5 c 128,-1,34
 91 5 91 5 85 1 c 1,35,36
 75 6 75 6 67.5 13.5 c 128,-1,37
 60 21 60 21 60 38 c 0,38,39
 60 69 60 69 88.5 91.5 c 128,-1,40
 117 114 117 114 155 114 c 0,41,42
 198 114 198 114 223.5 85 c 128,-1,43
 249 56 249 56 249 8 c 0,16,17
EndSplineSet
EndChar

StartChar: exclam
Encoding: 33 33 605
Width: 267
Flags: W
LayerCount: 2
Fore
SplineSet
134 221 m 0,0,1
 100 221 100 221 97 259 c 2,2,-1
 68 627 l 2,3,4
 66 658 66 658 84.5 679 c 128,-1,5
 103 700 103 700 133 700 c 256,6,7
 163 700 163 700 182 679 c 128,-1,8
 201 658 201 658 198 627 c 2,9,-1
 170 259 l 2,10,11
 167 221 167 221 134 221 c 0,0,1
127 0 m 2,12,13
 98 0 98 0 82.5 15.5 c 128,-1,14
 67 31 67 31 67 60 c 2,15,-1
 67 77 l 2,16,17
 67 106 67 106 82.5 121.5 c 128,-1,18
 98 137 98 137 127 137 c 2,19,-1
 140 137 l 2,20,21
 169 137 169 137 184.5 121.5 c 128,-1,22
 200 106 200 106 200 77 c 2,23,-1
 200 60 l 2,24,25
 200 31 200 31 184.5 15.5 c 128,-1,26
 169 0 169 0 140 0 c 2,27,-1
 127 0 l 2,12,13
EndSplineSet
EndChar

StartChar: exclamdown
Encoding: 161 161 606
Width: 267
Flags: W
LayerCount: 2
Fore
SplineSet
133 320 m 0,0,1
 167 320 167 320 170 282 c 2,2,-1
 199 -86 l 2,3,4
 201 -117 201 -117 182.5 -138 c 128,-1,5
 164 -159 164 -159 134 -159 c 256,6,7
 104 -159 104 -159 85 -138 c 128,-1,8
 66 -117 66 -117 69 -86 c 2,9,-1
 97 282 l 2,10,11
 100 320 100 320 133 320 c 0,0,1
140 541 m 2,12,13
 169 541 169 541 184.5 525.5 c 128,-1,14
 200 510 200 510 200 481 c 2,15,-1
 200 464 l 2,16,17
 200 435 200 435 184.5 419.5 c 128,-1,18
 169 404 169 404 140 404 c 2,19,-1
 127 404 l 2,20,21
 98 404 98 404 82.5 419.5 c 128,-1,22
 67 435 67 435 67 464 c 2,23,-1
 67 481 l 2,24,25
 67 510 67 510 82.5 525.5 c 128,-1,26
 98 541 98 541 127 541 c 2,27,-1
 140 541 l 2,12,13
EndSplineSet
EndChar

StartChar: question
Encoding: 63 63 607
Width: 527
Flags: W
LayerCount: 2
Fore
SplineSet
156 316 m 2,0,1
 156 342 156 342 173 359.5 c 128,-1,2
 190 377 190 377 216 377 c 0,3,4
 257 377 257 377 290 389.5 c 128,-1,5
 323 402 323 402 342.5 430 c 128,-1,6
 362 458 362 458 362 504 c 0,7,8
 362 538 362 538 345.5 564 c 128,-1,9
 329 590 329 590 300.5 605 c 128,-1,10
 272 620 272 620 236 620 c 0,11,12
 208 620 208 620 183.5 610 c 128,-1,13
 159 600 159 600 139 583 c 0,14,15
 123 569 123 569 100.5 562.5 c 128,-1,16
 78 556 78 556 55 573 c 0,17,18
 31 591 31 591 29 616 c 128,-1,19
 27 641 27 641 48 662 c 0,20,21
 84 699 84 699 132.5 719.5 c 128,-1,22
 181 740 181 740 236 740 c 0,23,24
 305 740 305 740 360.5 708.5 c 128,-1,25
 416 677 416 677 449 624 c 128,-1,26
 482 571 482 571 482 504 c 0,27,28
 482 454 482 454 467 415.5 c 128,-1,29
 452 377 452 377 424.5 349.5 c 128,-1,30
 397 322 397 322 360.5 305.5 c 128,-1,31
 324 289 324 289 281 282 c 0,32,33
 279 281 279 281 277.5 280 c 128,-1,34
 276 279 276 279 276 277 c 2,35,-1
 276 240 l 2,36,37
 276 214 276 214 259 196.5 c 128,-1,38
 242 179 242 179 216 179 c 256,39,40
 190 179 190 179 173 196.5 c 128,-1,41
 156 214 156 214 156 240 c 2,42,-1
 156 316 l 2,0,1
211 0 m 2,43,44
 182 0 182 0 166.5 15.5 c 128,-1,45
 151 31 151 31 151 60 c 2,46,-1
 151 77 l 2,47,48
 151 106 151 106 166.5 121.5 c 128,-1,49
 182 137 182 137 211 137 c 2,50,-1
 224 137 l 2,51,52
 253 137 253 137 268.5 121.5 c 128,-1,53
 284 106 284 106 284 77 c 2,54,-1
 284 60 l 2,55,56
 284 31 284 31 268.5 15.5 c 128,-1,57
 253 0 253 0 224 0 c 2,58,-1
 211 0 l 2,43,44
EndSplineSet
EndChar

StartChar: questiondown
Encoding: 191 191 608
Width: 527
Flags: W
LayerCount: 2
Fore
SplineSet
355 209 m 2,0,1
 355 183 355 183 338 165.5 c 128,-1,2
 321 148 321 148 295 148 c 0,3,4
 255 148 255 148 221.5 135.5 c 128,-1,5
 188 123 188 123 168.5 95 c 128,-1,6
 149 67 149 67 149 21 c 0,7,8
 149 -12 149 -12 165.5 -38.5 c 128,-1,9
 182 -65 182 -65 211 -80 c 128,-1,10
 240 -95 240 -95 275 -95 c 0,11,12
 303 -95 303 -95 328 -85 c 128,-1,13
 353 -75 353 -75 372 -58 c 0,14,15
 388 -44 388 -44 411 -37.5 c 128,-1,16
 434 -31 434 -31 456 -48 c 0,17,18
 480 -66 480 -66 482 -91 c 128,-1,19
 484 -116 484 -116 463 -137 c 0,20,21
 427 -174 427 -174 379 -194.5 c 128,-1,22
 331 -215 331 -215 275 -215 c 0,23,24
 207 -215 207 -215 151 -183.5 c 128,-1,25
 95 -152 95 -152 62 -98.5 c 128,-1,26
 29 -45 29 -45 29 21 c 0,27,28
 29 71 29 71 44 109.5 c 128,-1,29
 59 148 59 148 86.5 175.5 c 128,-1,30
 114 203 114 203 150.5 219.5 c 128,-1,31
 187 236 187 236 230 243 c 0,32,33
 232 244 232 244 233.5 245 c 128,-1,34
 235 246 235 246 235 248 c 2,35,-1
 235 285 l 2,36,37
 235 311 235 311 252 328.5 c 128,-1,38
 269 346 269 346 295 346 c 256,39,40
 321 346 321 346 338 328.5 c 128,-1,41
 355 311 355 311 355 285 c 2,42,-1
 355 209 l 2,0,1
300 525 m 2,43,44
 329 525 329 525 344.5 509.5 c 128,-1,45
 360 494 360 494 360 465 c 2,46,-1
 360 448 l 2,47,48
 360 419 360 419 344.5 403.5 c 128,-1,49
 329 388 329 388 300 388 c 2,50,-1
 287 388 l 2,51,52
 258 388 258 388 242.5 403.5 c 128,-1,53
 227 419 227 419 227 448 c 2,54,-1
 227 465 l 2,55,56
 227 494 227 494 242.5 509.5 c 128,-1,57
 258 525 258 525 287 525 c 2,58,-1
 300 525 l 2,43,44
EndSplineSet
EndChar

StartChar: periodcentered
Encoding: 183 183 609
Width: 222
Flags: W
LayerCount: 2
Fore
SplineSet
104 238 m 2,0,1
 75 238 75 238 59.5 253.5 c 128,-1,2
 44 269 44 269 44 298 c 2,3,-1
 44 315 l 2,4,5
 44 344 44 344 59.5 359.5 c 128,-1,6
 75 375 75 375 104 375 c 2,7,-1
 117 375 l 2,8,9
 146 375 146 375 161.5 359.5 c 128,-1,10
 177 344 177 344 177 315 c 2,11,-1
 177 298 l 2,12,13
 177 269 177 269 161.5 253.5 c 128,-1,14
 146 238 146 238 117 238 c 2,15,-1
 104 238 l 2,0,1
EndSplineSet
Substitution2: "'case' Case-Sensitive Forms in Latin lookup 35 subtable" periodcentered.case
Substitution2: "Single Substitution lookup 19 subtable" periodcentered.loclCAT.case
Substitution2: "Single Substitution lookup 18 subtable" periodcentered.loclCAT
AlternateSubs2: "'aalt' Access All Alternates in Latin lookup 1 subtable" periodcentered.case periodcentered.loclCAT periodcentered.loclCAT.case
EndChar

StartChar: bullet
Encoding: 8226 8226 610
Width: 349
Flags: W
LayerCount: 2
Fore
SplineSet
174 211 m 0,0,1
 136 211 136 211 103.5 229.5 c 128,-1,2
 71 248 71 248 52 280 c 128,-1,3
 33 312 33 312 33 351 c 0,4,5
 33 392 33 392 52.5 424 c 128,-1,6
 72 456 72 456 104 474.5 c 128,-1,7
 136 493 136 493 174 493 c 0,8,9
 213 493 213 493 245 474.5 c 128,-1,10
 277 456 277 456 296.5 424 c 128,-1,11
 316 392 316 392 316 351 c 0,12,13
 316 312 316 312 296.5 280 c 128,-1,14
 277 248 277 248 245 229.5 c 128,-1,15
 213 211 213 211 174 211 c 0,0,1
EndSplineSet
Substitution2: "'case' Case-Sensitive Forms in Latin lookup 35 subtable" bullet.case
Substitution2: "'aalt' Access All Alternates in Latin lookup 0 subtable" bullet.case
EndChar

StartChar: asterisk
Encoding: 42 42 611
Width: 363
Flags: W
LayerCount: 2
Fore
SplineSet
181 382 m 0,0,1
 167 382 167 382 158.5 392 c 128,-1,2
 150 402 150 402 151 417 c 2,3,-1
 160 496 l 2,4,5
 161 499 161 499 159 500 c 128,-1,6
 157 501 157 501 154 499 c 2,7,-1
 89 452 l 2,8,9
 77 443 77 443 64 445.5 c 128,-1,10
 51 448 51 448 43 461 c 0,11,12
 34 477 34 477 39.5 489 c 128,-1,13
 45 501 45 501 58 506 c 2,14,-1
 131 539 l 2,15,16
 134 540 134 540 134 542 c 128,-1,17
 134 544 134 544 131 545 c 2,18,-1
 58 578 l 2,19,20
 44 584 44 584 40 597 c 128,-1,21
 36 610 36 610 43 623 c 0,22,23
 51 636 51 636 64 638.5 c 128,-1,24
 77 641 77 641 89 633 c 2,25,-1
 154 585 l 2,26,27
 157 583 157 583 159 584 c 128,-1,28
 161 585 161 585 160 588 c 2,29,-1
 151 667 l 2,30,31
 150 682 150 682 159 692 c 128,-1,32
 168 702 168 702 183 702 c 0,33,34
 197 702 197 702 206 692 c 128,-1,35
 215 682 215 682 213 667 c 2,36,-1
 204 588 l 2,37,38
 203 585 203 585 205 584 c 128,-1,39
 207 583 207 583 210 585 c 2,40,-1
 275 632 l 2,41,42
 287 641 287 641 300.5 638.5 c 128,-1,43
 314 636 314 636 321 623 c 0,44,45
 330 607 330 607 324.5 595 c 128,-1,46
 319 583 319 583 306 578 c 2,47,-1
 233 545 l 2,48,49
 230 544 230 544 230 542 c 128,-1,50
 230 540 230 540 233 539 c 2,51,-1
 306 506 l 2,52,53
 320 500 320 500 324.5 487 c 128,-1,54
 329 474 329 474 321 461 c 0,55,56
 314 448 314 448 300.5 445.5 c 128,-1,57
 287 443 287 443 275 451 c 2,58,-1
 210 499 l 2,59,60
 207 501 207 501 205 500 c 128,-1,61
 203 499 203 499 204 496 c 2,62,-1
 213 417 l 2,63,64
 215 402 215 402 205.5 392 c 128,-1,65
 196 382 196 382 181 382 c 0,0,1
EndSplineSet
EndChar

StartChar: numbersign
Encoding: 35 35 612
Width: 693
Flags: W
LayerCount: 2
Fore
SplineSet
161 0 m 0,0,1
 135 0 135 0 120.5 19.5 c 128,-1,2
 106 39 106 39 110 67 c 2,3,-1
 211 657 l 2,4,5
 214 677 214 677 228 688.5 c 128,-1,6
 242 700 242 700 261 700 c 0,7,8
 288 700 288 700 303 680.5 c 128,-1,9
 318 661 318 661 313 633 c 2,10,-1
 212 43 l 2,11,12
 209 24 209 24 195 12 c 128,-1,13
 181 0 181 0 161 0 c 0,0,1
127 439 m 2,14,15
 104 439 104 439 88.5 454.5 c 128,-1,16
 73 470 73 470 73 493 c 0,17,18
 73 515 73 515 88.5 529 c 128,-1,19
 104 543 104 543 127 543 c 2,20,-1
 603 543 l 2,21,22
 626 543 626 543 641.5 527.5 c 128,-1,23
 657 512 657 512 657 489 c 0,24,25
 657 467 657 467 641.5 453 c 128,-1,26
 626 439 626 439 603 439 c 2,27,-1
 127 439 l 2,14,15
432 0 m 0,28,29
 405 0 405 0 390 19.5 c 128,-1,30
 375 39 375 39 380 67 c 2,31,-1
 481 657 l 2,32,33
 484 677 484 677 498 688.5 c 128,-1,34
 512 700 512 700 532 700 c 0,35,36
 558 700 558 700 573 680.5 c 128,-1,37
 588 661 588 661 583 633 c 2,38,-1
 482 43 l 2,39,40
 479 24 479 24 465.5 12 c 128,-1,41
 452 0 452 0 432 0 c 0,28,29
90 161 m 2,42,43
 67 161 67 161 51.5 176.5 c 128,-1,44
 36 192 36 192 36 215 c 0,45,46
 36 237 36 237 51.5 251 c 128,-1,47
 67 265 67 265 90 265 c 2,48,-1
 567 265 l 2,49,50
 590 265 590 265 605.5 249.5 c 128,-1,51
 621 234 621 234 621 211 c 0,52,53
 621 189 621 189 605.5 175 c 128,-1,54
 590 161 590 161 567 161 c 2,55,-1
 90 161 l 2,42,43
EndSplineSet
EndChar

StartChar: slash
Encoding: 47 47 613
Width: 568
Flags: W
LayerCount: 2
Fore
SplineSet
84 -134 m 0,0,1
 67 -134 67 -134 49 -120 c 128,-1,2
 31 -106 31 -106 31 -84 c 0,3,4
 31 -72 31 -72 37 -60 c 2,5,-1
 443 771 l 2,6,7
 450 785 450 785 462 793 c 128,-1,8
 474 801 474 801 487 801 c 0,9,10
 504 801 504 801 521.5 787.5 c 128,-1,11
 539 774 539 774 539 751 c 0,12,13
 539 739 539 739 533 727 c 2,14,-1
 128 -104 l 2,15,16
 121 -118 121 -118 109.5 -126 c 128,-1,17
 98 -134 98 -134 84 -134 c 0,0,1
EndSplineSet
Substitution2: "'case' Case-Sensitive Forms in Latin lookup 35 subtable" slash.case
Substitution2: "'frac' Diagonal Fractions in Latin lookup 27 subtable" fraction
AlternateSubs2: "'aalt' Access All Alternates in Latin lookup 1 subtable" fraction slash.case
EndChar

StartChar: backslash
Encoding: 92 92 614
Width: 568
Flags: W
LayerCount: 2
Fore
SplineSet
484 -134 m 0,0,1
 471 -134 471 -134 459 -126 c 128,-1,2
 447 -118 447 -118 440 -104 c 2,3,-1
 35 727 l 2,4,5
 32 733 32 733 30.5 739 c 128,-1,6
 29 745 29 745 29 751 c 0,7,8
 29 774 29 774 46.5 787.5 c 128,-1,9
 64 801 64 801 81 801 c 0,10,11
 95 801 95 801 106.5 793 c 128,-1,12
 118 785 118 785 125 771 c 2,13,-1
 531 -60 l 2,14,15
 537 -72 537 -72 537 -84 c 0,16,17
 537 -108 537 -108 518 -121 c 128,-1,18
 499 -134 499 -134 484 -134 c 0,0,1
EndSplineSet
Substitution2: "'case' Case-Sensitive Forms in Latin lookup 35 subtable" backslash.case
Substitution2: "'aalt' Access All Alternates in Latin lookup 0 subtable" backslash.case
EndChar

StartChar: hyphen
Encoding: 45 45 621
Width: 396
Flags: W
LayerCount: 2
Fore
SplineSet
111 247 m 2,0,1
 85 247 85 247 67.5 264 c 128,-1,2
 50 281 50 281 50 307 c 256,3,4
 50 333 50 333 67.5 349.5 c 128,-1,5
 85 366 85 366 111 366 c 2,6,-1
 285 366 l 2,7,8
 310 366 310 366 328 348.5 c 128,-1,9
 346 331 346 331 346 305 c 0,10,11
 346 280 346 280 328 263.5 c 128,-1,12
 310 247 310 247 285 247 c 2,13,-1
 111 247 l 2,0,1
EndSplineSet
Substitution2: "'case' Case-Sensitive Forms in Latin lookup 35 subtable" hyphen.case
Substitution2: "'aalt' Access All Alternates in Latin lookup 0 subtable" hyphen.case
EndChar

StartChar: endash
Encoding: 8211 8211 623
Width: 516
Flags: W
LayerCount: 2
Fore
SplineSet
111 249 m 2,0,1
 85 249 85 249 67.5 265.5 c 128,-1,2
 50 282 50 282 50 307 c 256,3,4
 50 332 50 332 67.5 348 c 128,-1,5
 85 364 85 364 111 364 c 2,6,-1
 405 364 l 2,7,8
 431 364 431 364 448.5 348 c 128,-1,9
 466 332 466 332 466 307 c 256,10,11
 466 282 466 282 448.5 265.5 c 128,-1,12
 431 249 431 249 405 249 c 2,13,-1
 111 249 l 2,0,1
EndSplineSet
Substitution2: "'case' Case-Sensitive Forms in Latin lookup 35 subtable" endash.case
Substitution2: "'aalt' Access All Alternates in Latin lookup 0 subtable" endash.case
EndChar

StartChar: emdash
Encoding: 8212 8212 624
Width: 886
Flags: W
LayerCount: 2
Fore
SplineSet
111 249 m 2,0,1
 84 249 84 249 67 265.5 c 128,-1,2
 50 282 50 282 50 307 c 256,3,4
 50 332 50 332 67 348 c 128,-1,5
 84 364 84 364 111 364 c 2,6,-1
 775 364 l 2,7,8
 801 364 801 364 818.5 348 c 128,-1,9
 836 332 836 332 836 307 c 256,10,11
 836 282 836 282 818.5 265.5 c 128,-1,12
 801 249 801 249 775 249 c 2,13,-1
 111 249 l 2,0,1
EndSplineSet
Substitution2: "'case' Case-Sensitive Forms in Latin lookup 35 subtable" emdash.case
Substitution2: "'aalt' Access All Alternates in Latin lookup 0 subtable" emdash.case
EndChar

StartChar: underscore
Encoding: 95 95 628
Width: 704
Flags: W
LayerCount: 2
Fore
SplineSet
98 -160 m 2,0,1
 77 -160 77 -160 63.5 -146.5 c 128,-1,2
 50 -133 50 -133 50 -113 c 256,3,4
 50 -93 50 -93 63.5 -79.5 c 128,-1,5
 77 -66 77 -66 98 -66 c 2,6,-1
 606 -66 l 2,7,8
 627 -66 627 -66 640.5 -79.5 c 128,-1,9
 654 -93 654 -93 654 -114 c 0,10,11
 654 -134 654 -134 640.5 -147 c 128,-1,12
 627 -160 627 -160 606 -160 c 2,13,-1
 98 -160 l 2,0,1
EndSplineSet
EndChar

StartChar: parenleft
Encoding: 40 40 632
Width: 357
Flags: W
LayerCount: 2
Fore
SplineSet
292 -182 m 0,0,1
 277 -182 277 -182 265 -174 c 0,2,3
 189 -123 189 -123 136.5 -55.5 c 128,-1,4
 84 12 84 12 57 92 c 128,-1,5
 30 172 30 172 30 259 c 256,6,7
 30 346 30 346 57 426 c 128,-1,8
 84 506 84 506 136.5 573.5 c 128,-1,9
 189 641 189 641 265 692 c 0,10,11
 277 700 277 700 292 700 c 0,12,13
 316 700 316 700 329 682 c 128,-1,14
 342 664 342 664 342 648 c 0,15,16
 342 625 342 625 321 608 c 0,17,18
 264 563 264 563 226 507.5 c 128,-1,19
 188 452 188 452 169.5 389 c 128,-1,20
 151 326 151 326 151 259 c 256,21,22
 151 192 151 192 168.5 128 c 128,-1,23
 186 64 186 64 224 8.5 c 128,-1,24
 262 -47 262 -47 321 -90 c 0,25,26
 342 -105 342 -105 342 -130 c 0,27,28
 342 -148 342 -148 327.5 -165 c 128,-1,29
 313 -182 313 -182 292 -182 c 0,0,1
EndSplineSet
Substitution2: "'case' Case-Sensitive Forms in Latin lookup 35 subtable" parenleft.case
Substitution2: "'aalt' Access All Alternates in Latin lookup 0 subtable" parenleft.case
EndChar

StartChar: parenright
Encoding: 41 41 633
Width: 357
Flags: W
LayerCount: 2
Fore
SplineSet
65 -182 m 0,0,1
 41 -182 41 -182 28 -164 c 128,-1,2
 15 -146 15 -146 15 -130 c 0,3,4
 15 -106 15 -106 36 -90 c 0,5,6
 94 -45 94 -45 131.5 10.5 c 128,-1,7
 169 66 169 66 187.5 129 c 128,-1,8
 206 192 206 192 206 259 c 256,9,10
 206 326 206 326 188.5 390 c 128,-1,11
 171 454 171 454 133.5 510 c 128,-1,12
 96 566 96 566 36 608 c 0,13,14
 15 623 15 623 15 648 c 0,15,16
 15 666 15 666 29.5 683 c 128,-1,17
 44 700 44 700 65 700 c 0,18,19
 80 700 80 700 92 692 c 0,20,21
 169 641 169 641 221 573.5 c 128,-1,22
 273 506 273 506 300 426 c 128,-1,23
 327 346 327 346 327 259 c 256,24,25
 327 172 327 172 300 92 c 128,-1,26
 273 12 273 12 221 -55.5 c 128,-1,27
 169 -123 169 -123 92 -174 c 0,28,29
 80 -182 80 -182 65 -182 c 0,0,1
EndSplineSet
Substitution2: "'case' Case-Sensitive Forms in Latin lookup 35 subtable" parenright.case
Substitution2: "'aalt' Access All Alternates in Latin lookup 0 subtable" parenright.case
EndChar

StartChar: braceleft
Encoding: 123 123 634
Width: 401
Flags: W
LayerCount: 2
Fore
SplineSet
345 -202 m 0,0,1
 341 -202 341 -202 337.5 -202 c 128,-1,2
 334 -202 334 -202 330 -201 c 0,3,4
 257 -186 257 -186 217.5 -159.5 c 128,-1,5
 178 -133 178 -133 162.5 -95 c 128,-1,6
 147 -57 147 -57 147 -10 c 2,7,-1
 149 92 l 2,8,9
 149 130 149 130 137.5 154 c 128,-1,10
 126 178 126 178 106 189.5 c 128,-1,11
 86 201 86 201 60 202 c 2,12,-1
 56 202 l 2,13,14
 37 202 37 202 23.5 215 c 128,-1,15
 10 228 10 228 10 248 c 256,16,17
 10 268 10 268 23.5 281 c 128,-1,18
 37 294 37 294 56 294 c 2,19,-1
 62 294 l 2,20,21
 87 296 87 296 106.5 307.5 c 128,-1,22
 126 319 126 319 137.5 343 c 128,-1,23
 149 367 149 367 149 404 c 2,24,-1
 147 506 l 2,25,26
 147 541 147 541 155.5 571.5 c 128,-1,27
 164 602 164 602 184 626 c 128,-1,28
 204 650 204 650 239.5 668 c 128,-1,29
 275 686 275 686 330 697 c 0,30,31
 358 702 358 702 372 687.5 c 128,-1,32
 386 673 386 673 386 653 c 0,33,34
 386 640 386 640 376.5 629 c 128,-1,35
 367 618 367 618 352 613 c 0,36,37
 312 599 312 599 292 582.5 c 128,-1,38
 272 566 272 566 265.5 543.5 c 128,-1,39
 259 521 259 521 259 489 c 2,40,-1
 261 385 l 2,41,42
 261 327 261 327 232 294.5 c 128,-1,43
 203 262 203 262 153 246 c 1,44,-1
 153 250 l 1,45,46
 203 234 203 234 232 201.5 c 128,-1,47
 261 169 261 169 261 111 c 2,48,-1
 259 7 l 2,49,50
 259 -24 259 -24 265.5 -46 c 128,-1,51
 272 -68 272 -68 292 -84.5 c 128,-1,52
 312 -101 312 -101 352 -117 c 0,53,54
 386 -130 386 -130 386 -159 c 0,55,56
 386 -176 386 -176 374 -189 c 128,-1,57
 362 -202 362 -202 345 -202 c 0,0,1
EndSplineSet
Substitution2: "'case' Case-Sensitive Forms in Latin lookup 35 subtable" braceleft.case
Substitution2: "'aalt' Access All Alternates in Latin lookup 0 subtable" braceleft.case
EndChar

StartChar: braceright
Encoding: 125 125 635
Width: 401
Flags: W
LayerCount: 2
Fore
SplineSet
54 -201 m 0,0,1
 35 -201 35 -201 25 -184.5 c 128,-1,2
 15 -168 15 -168 15 -155 c 0,3,4
 15 -141 15 -141 24.5 -130.5 c 128,-1,5
 34 -120 34 -120 49 -115 c 0,6,7
 90 -101 90 -101 109.5 -84.5 c 128,-1,8
 129 -68 129 -68 135.5 -45 c 128,-1,9
 142 -22 142 -22 142 9 c 2,10,-1
 140 113 l 2,11,12
 140 172 140 172 169.5 204 c 128,-1,13
 199 236 199 236 248 252 c 1,14,-1
 248 248 l 1,15,16
 199 265 199 265 169.5 297 c 128,-1,17
 140 329 140 329 140 387 c 2,18,-1
 142 491 l 2,19,20
 142 523 142 523 135.5 544.5 c 128,-1,21
 129 566 129 566 109 583 c 128,-1,22
 89 600 89 600 49 615 c 0,23,24
 15 628 15 628 15 657 c 0,25,26
 15 674 15 674 27 687 c 128,-1,27
 39 700 39 700 56 700 c 0,28,29
 60 700 60 700 63.5 700 c 128,-1,30
 67 700 67 700 71 699 c 0,31,32
 144 685 144 685 183.5 658 c 128,-1,33
 223 631 223 631 238.5 593 c 128,-1,34
 254 555 254 555 254 508 c 2,35,-1
 252 406 l 2,36,37
 252 368 252 368 263.5 344 c 128,-1,38
 275 320 275 320 295.5 308.5 c 128,-1,39
 316 297 316 297 341 296 c 2,40,-1
 345 296 l 2,41,42
 364 296 364 296 377.5 283 c 128,-1,43
 391 270 391 270 391 250 c 256,44,45
 391 230 391 230 377.5 217 c 128,-1,46
 364 204 364 204 345 204 c 2,47,-1
 339 204 l 2,48,49
 314 203 314 203 294.5 191 c 128,-1,50
 275 179 275 179 263.5 155.5 c 128,-1,51
 252 132 252 132 252 94 c 2,52,-1
 254 -8 l 2,53,54
 254 -43 254 -43 246 -73.5 c 128,-1,55
 238 -104 238 -104 217.5 -128 c 128,-1,56
 197 -152 197 -152 161.5 -170 c 128,-1,57
 126 -188 126 -188 71 -199 c 0,58,59
 67 -200 67 -200 63.5 -200.5 c 128,-1,60
 60 -201 60 -201 54 -201 c 0,0,1
EndSplineSet
Substitution2: "'case' Case-Sensitive Forms in Latin lookup 35 subtable" braceright.case
Substitution2: "'aalt' Access All Alternates in Latin lookup 0 subtable" braceright.case
EndChar

StartChar: bracketleft
Encoding: 91 91 636
Width: 407
Flags: W
LayerCount: 2
Fore
SplineSet
128 -190 m 2,0,1
 107 -190 107 -190 93.5 -176.5 c 128,-1,2
 80 -163 80 -163 80 -142 c 2,3,-1
 80 652 l 2,4,5
 80 673 80 673 93.5 686.5 c 128,-1,6
 107 700 107 700 128 700 c 2,7,-1
 339 700 l 2,8,9
 360 700 360 700 373.5 686.5 c 128,-1,10
 387 673 387 673 387 652 c 0,11,12
 387 632 387 632 373.5 618.5 c 128,-1,13
 360 605 360 605 339 605 c 2,14,-1
 190 605 l 1,15,-1
 195 613 l 1,16,-1
 195 -107 l 1,17,-1
 183 -95 l 1,18,-1
 339 -95 l 2,19,20
 360 -95 360 -95 373.5 -108.5 c 128,-1,21
 387 -122 387 -122 387 -143 c 0,22,23
 387 -163 387 -163 373.5 -176.5 c 128,-1,24
 360 -190 360 -190 339 -190 c 2,25,-1
 128 -190 l 2,0,1
EndSplineSet
Substitution2: "'case' Case-Sensitive Forms in Latin lookup 35 subtable" bracketleft.case
Substitution2: "'aalt' Access All Alternates in Latin lookup 0 subtable" bracketleft.case
EndChar

StartChar: bracketright
Encoding: 93 93 637
Width: 407
Flags: W
LayerCount: 2
Fore
SplineSet
279 700 m 2,0,1
 300 700 300 700 313.5 686.5 c 128,-1,2
 327 673 327 673 327 652 c 2,3,-1
 327 -142 l 2,4,5
 327 -163 327 -163 313.5 -176.5 c 128,-1,6
 300 -190 300 -190 279 -190 c 2,7,-1
 68 -190 l 2,8,9
 47 -190 47 -190 33.5 -176.5 c 128,-1,10
 20 -163 20 -163 20 -142 c 0,11,12
 20 -122 20 -122 33.5 -108.5 c 128,-1,13
 47 -95 47 -95 68 -95 c 2,14,-1
 217 -95 l 1,15,-1
 212 -103 l 1,16,-1
 212 617 l 1,17,-1
 224 605 l 1,18,-1
 68 605 l 2,19,20
 47 605 47 605 33.5 618.5 c 128,-1,21
 20 632 20 632 20 653 c 0,22,23
 20 673 20 673 33.5 686.5 c 128,-1,24
 47 700 47 700 68 700 c 2,25,-1
 279 700 l 2,0,1
EndSplineSet
Substitution2: "'case' Case-Sensitive Forms in Latin lookup 35 subtable" bracketright.case
Substitution2: "'aalt' Access All Alternates in Latin lookup 0 subtable" bracketright.case
EndChar

StartChar: quoteleft
Encoding: 8216 8216 648
Width: 275
Flags: W
LayerCount: 2
Fore
SplineSet
28 560 m 0,0,1
 28 594 28 594 46.5 627 c 128,-1,2
 65 660 65 660 94.5 682.5 c 128,-1,3
 124 705 124 705 157 705 c 0,4,5
 168 705 168 705 180.5 696 c 128,-1,6
 193 687 193 687 193 665 c 256,7,8
 193 643 193 643 178.5 638 c 128,-1,9
 164 633 164 633 154 628 c 0,10,11
 141 621 141 621 133.5 611.5 c 128,-1,12
 126 602 126 602 126 588 c 0,13,14
 126 578 126 578 136.5 569 c 128,-1,15
 147 560 147 560 164 560 c 0,16,17
 170 560 170 560 178 561.5 c 128,-1,18
 186 563 186 563 192 567 c 1,19,20
 203 563 203 563 210 555 c 128,-1,21
 217 547 217 547 217 530 c 0,22,23
 217 499 217 499 188.5 476.5 c 128,-1,24
 160 454 160 454 122 454 c 0,25,26
 79 454 79 454 53.5 483 c 128,-1,27
 28 512 28 512 28 560 c 0,0,1
EndSplineSet
EndChar

StartChar: quoteright
Encoding: 8217 8217 649
Width: 275
Flags: W
LayerCount: 2
Fore
SplineSet
217 599 m 0,0,1
 217 566 217 566 198.5 532.5 c 128,-1,2
 180 499 180 499 150.5 476.5 c 128,-1,3
 121 454 121 454 88 454 c 0,4,5
 77 454 77 454 64.5 463 c 128,-1,6
 52 472 52 472 52 494 c 0,7,8
 52 517 52 517 66.5 521.5 c 128,-1,9
 81 526 81 526 91 531 c 0,10,11
 104 538 104 538 111.5 547.5 c 128,-1,12
 119 557 119 557 119 571 c 0,13,14
 119 582 119 582 108.5 590.5 c 128,-1,15
 98 599 98 599 81 599 c 0,16,17
 75 599 75 599 67 597.5 c 128,-1,18
 59 596 59 596 53 592 c 1,19,20
 43 597 43 597 35.5 604.5 c 128,-1,21
 28 612 28 612 28 629 c 0,22,23
 28 660 28 660 56.5 682.5 c 128,-1,24
 85 705 85 705 123 705 c 0,25,26
 166 705 166 705 191.5 676 c 128,-1,27
 217 647 217 647 217 599 c 0,0,1
EndSplineSet
EndChar

StartChar: guilsinglleft
Encoding: 8249 8249 652
Width: 276
Flags: W
LayerCount: 2
Fore
SplineSet
186 50 m 0,0,1
 162 50 162 50 147 71 c 2,2,-1
 28 236 l 2,3,4
 19 250 19 250 19 264 c 0,5,6
 19 279 19 279 28 291 c 2,7,-1
 149 455 l 2,8,9
 163 475 163 475 187 475 c 0,10,11
 204 475 204 475 221.5 461.5 c 128,-1,12
 239 448 239 448 239 425 c 0,13,14
 239 408 239 408 226 390 c 2,15,-1
 128 257 l 1,16,-1
 128 272 l 1,17,-1
 229 136 l 2,18,19
 235 129 235 129 237.5 120 c 128,-1,20
 240 111 240 111 240 103 c 0,21,22
 240 78 240 78 221.5 64 c 128,-1,23
 203 50 203 50 186 50 c 0,0,1
EndSplineSet
Substitution2: "'case' Case-Sensitive Forms in Latin lookup 35 subtable" guilsinglleft.case
Substitution2: "'aalt' Access All Alternates in Latin lookup 0 subtable" guilsinglleft.case
EndChar

StartChar: guilsinglright
Encoding: 8250 8250 653
Width: 276
Flags: W
LayerCount: 2
Fore
SplineSet
73 475 m 0,0,1
 97 475 97 475 112 454 c 2,2,-1
 231 289 l 2,3,4
 240 276 240 276 240 261 c 256,5,6
 240 246 240 246 231 234 c 2,7,-1
 110 70 l 2,8,9
 96 50 96 50 72 50 c 0,10,11
 55 50 55 50 37.5 64 c 128,-1,12
 20 78 20 78 20 100 c 0,13,14
 20 117 20 117 33 135 c 2,15,-1
 131 268 l 1,16,-1
 131 253 l 1,17,-1
 30 389 l 2,18,19
 24 397 24 397 21.5 405.5 c 128,-1,20
 19 414 19 414 19 422 c 0,21,22
 19 448 19 448 38 461.5 c 128,-1,23
 57 475 57 475 73 475 c 0,0,1
EndSplineSet
Substitution2: "'case' Case-Sensitive Forms in Latin lookup 35 subtable" guilsinglright.case
Substitution2: "'aalt' Access All Alternates in Latin lookup 0 subtable" guilsinglright.case
EndChar

StartChar: quotedbl
Encoding: 34 34 654
Width: 430
Flags: W
LayerCount: 2
Fore
SplineSet
50 652 m 2,0,1
 55 700 55 700 102 700 c 2,2,-1
 131 700 l 2,3,4
 159 700 159 700 170 684.5 c 128,-1,5
 181 669 181 669 173 643 c 2,6,-1
 105 434 l 2,7,8
 93 401 93 401 63 401 c 0,9,10
 31 401 31 401 34 442 c 2,11,-1
 50 652 l 2,0,1
270 652 m 2,12,13
 275 700 275 700 322 700 c 2,14,-1
 351 700 l 2,15,16
 379 700 379 700 390 684.5 c 128,-1,17
 401 669 401 669 392 643 c 2,18,-1
 324 434 l 2,19,20
 312 401 312 401 282 401 c 0,21,22
 250 401 250 401 253 443 c 2,23,-1
 270 652 l 2,12,13
EndSplineSet
EndChar

StartChar: quotesingle
Encoding: 39 39 655
Width: 212
Flags: W
LayerCount: 2
Fore
SplineSet
50 652 m 2,0,1
 55 700 55 700 102 700 c 2,2,-1
 133 700 l 2,3,4
 161 700 161 700 172 684.5 c 128,-1,5
 183 669 183 669 174 643 c 2,6,-1
 106 434 l 2,7,8
 94 401 94 401 63 401 c 0,9,10
 31 401 31 401 34 442 c 2,11,-1
 50 652 l 2,0,1
EndSplineSet
EndChar

StartChar: florin
Encoding: 402 402 660
Width: 487
Flags: W
LayerCount: 2
Fore
SplineSet
84 -5 m 0,0,1
 61 -5 61 -5 40 5.5 c 128,-1,2
 19 16 19 16 19 48 c 0,3,4
 19 74 19 74 32 85 c 128,-1,5
 45 96 45 96 64 96 c 0,6,7
 73 96 73 96 82.5 94 c 128,-1,8
 92 92 92 92 98 92 c 0,9,10
 117 92 117 92 126.5 114.5 c 128,-1,11
 136 137 136 137 141 163 c 2,12,-1
 211 550 l 2,13,14
 225 625 225 625 265 665 c 128,-1,15
 305 705 305 705 386 705 c 0,16,17
 401 705 401 705 414 704 c 128,-1,18
 427 703 427 703 441 700 c 0,19,20
 467 695 467 695 477.5 681 c 128,-1,21
 488 667 488 667 488 650 c 0,22,23
 488 629 488 629 475 614.5 c 128,-1,24
 462 600 462 600 442 601 c 0,25,26
 434 602 434 602 425.5 602 c 128,-1,27
 417 602 417 602 409 602 c 0,28,29
 374 602 374 602 355 584 c 128,-1,30
 336 566 336 566 328 525 c 2,31,-1
 260 145 l 2,32,33
 246 65 246 65 203.5 30 c 128,-1,34
 161 -5 161 -5 84 -5 c 0,0,1
134 356 m 2,35,36
 112 356 112 356 97.5 370.5 c 128,-1,37
 83 385 83 385 83 407 c 256,38,39
 83 429 83 429 97.5 443 c 128,-1,40
 112 457 112 457 134 457 c 2,41,-1
 392 457 l 2,42,43
 415 457 415 457 429 443 c 128,-1,44
 443 429 443 429 443 407 c 256,45,46
 443 385 443 385 429 370.5 c 128,-1,47
 415 356 415 356 392 356 c 2,48,-1
 134 356 l 2,35,36
EndSplineSet
EndChar

StartChar: at
Encoding: 64 64 661
Width: 964
Flags: W
LayerCount: 2
Fore
SplineSet
657 55 m 0,0,1
 624 55 624 55 595 70.5 c 128,-1,2
 566 86 566 86 551 114 c 128,-1,3
 536 142 536 142 542 177 c 2,4,-1
 550 222 l 1,5,-1
 564 190 l 1,6,7
 549 136 549 136 521.5 106.5 c 128,-1,8
 494 77 494 77 461 66 c 128,-1,9
 428 55 428 55 395 55 c 0,10,11
 358 55 358 55 323.5 75 c 128,-1,12
 289 95 289 95 267.5 132 c 128,-1,13
 246 169 246 169 246 220 c 0,14,15
 246 267 246 267 264.5 317.5 c 128,-1,16
 283 368 283 368 315.5 412 c 128,-1,17
 348 456 348 456 391.5 483 c 128,-1,18
 435 510 435 510 485 510 c 0,19,20
 528 510 528 510 561 480 c 128,-1,21
 594 450 594 450 598 396 c 1,22,-1
 571 331 l 1,23,-1
 592 467 l 2,24,25
 594 481 594 481 607 494 c 128,-1,26
 620 507 620 507 647 507 c 0,27,28
 682 507 682 507 693.5 491.5 c 128,-1,29
 705 476 705 476 700 448 c 2,30,-1
 660 196 l 2,31,32
 655 162 655 162 668 147 c 128,-1,33
 681 132 681 132 700 132 c 0,34,35
 730 132 730 132 756.5 155 c 128,-1,36
 783 178 783 178 802.5 216 c 128,-1,37
 822 254 822 254 833.5 301 c 128,-1,38
 845 348 845 348 845 396 c 0,39,40
 845 466 845 466 812 519 c 128,-1,41
 779 572 779 572 718.5 602 c 128,-1,42
 658 632 658 632 576 632 c 0,43,44
 480 632 480 632 397.5 603.5 c 128,-1,45
 315 575 315 575 252.5 520 c 128,-1,46
 190 465 190 465 155 386 c 128,-1,47
 120 307 120 307 120 206 c 0,48,49
 120 152 120 152 136.5 100.5 c 128,-1,50
 153 49 153 49 188 7 c 128,-1,51
 223 -35 223 -35 279 -59.5 c 128,-1,52
 335 -84 335 -84 414 -84 c 0,53,54
 469 -84 469 -84 508 -76.5 c 128,-1,55
 547 -69 547 -69 578 -55.5 c 128,-1,56
 609 -42 609 -42 639 -25 c 0,57,58
 656 -15 656 -15 669 -21.5 c 128,-1,59
 682 -28 682 -28 688 -44 c 0,60,61
 700 -74 700 -74 653 -98 c 0,62,63
 610 -120 610 -120 554 -141 c 128,-1,64
 498 -162 498 -162 414 -162 c 0,65,66
 313 -162 313 -162 242 -130.5 c 128,-1,67
 171 -99 171 -99 126.5 -46 c 128,-1,68
 82 7 82 7 61 72.5 c 128,-1,69
 40 138 40 138 40 206 c 0,70,71
 40 323 40 323 81.5 416 c 128,-1,72
 123 509 123 509 196.5 575 c 128,-1,73
 270 641 270 641 367 675.5 c 128,-1,74
 464 710 464 710 576 710 c 0,75,76
 690 710 690 710 768 667.5 c 128,-1,77
 846 625 846 625 885.5 553.5 c 128,-1,78
 925 482 925 482 925 396 c 0,79,80
 925 335 925 335 907 274.5 c 128,-1,81
 889 214 889 214 854 164.5 c 128,-1,82
 819 115 819 115 769.5 85 c 128,-1,83
 720 55 720 55 657 55 c 0,0,1
426 145 m 0,84,85
 452 145 452 145 473.5 157.5 c 128,-1,86
 495 170 495 170 511 188.5 c 128,-1,87
 527 207 527 207 538 227.5 c 128,-1,88
 549 248 549 248 553 263 c 0,89,90
 574 325 574 325 568.5 359 c 128,-1,91
 563 393 563 393 541 406.5 c 128,-1,92
 519 420 519 420 490 420 c 0,93,94
 460 420 460 420 435.5 401 c 128,-1,95
 411 382 411 382 393.5 352 c 128,-1,96
 376 322 376 322 367 287.5 c 128,-1,97
 358 253 358 253 358 222 c 0,98,99
 358 184 358 184 376.5 164.5 c 128,-1,100
 395 145 395 145 426 145 c 0,84,85
EndSplineSet
Substitution2: "'case' Case-Sensitive Forms in Latin lookup 35 subtable" at.case
Substitution2: "'aalt' Access All Alternates in Latin lookup 0 subtable" at.case
EndChar

StartChar: ampersand
Encoding: 38 38 662
Width: 709
Flags: W
LayerCount: 2
Fore
SplineSet
279 -10 m 0,0,1
 208 -10 208 -10 151.5 21 c 128,-1,2
 95 52 95 52 62.5 102 c 128,-1,3
 30 152 30 152 30 209 c 0,4,5
 30 259 30 259 47.5 300.5 c 128,-1,6
 65 342 65 342 100.5 374 c 128,-1,7
 136 406 136 406 191 428 c 1,8,-1
 269 347 l 1,9,10
 199 332 199 332 175.5 301.5 c 128,-1,11
 152 271 152 271 152 227 c 0,12,13
 152 197 152 197 167 168.5 c 128,-1,14
 182 140 182 140 216 121.5 c 128,-1,15
 250 103 250 103 307 103 c 0,16,17
 354 103 354 103 391.5 124.5 c 128,-1,18
 429 146 429 146 456.5 181.5 c 128,-1,19
 484 217 484 217 501.5 260.5 c 128,-1,20
 519 304 519 304 525 349 c 0,21,22
 527 365 527 365 537.5 374 c 128,-1,23
 548 383 548 383 573 383 c 0,24,25
 599 383 599 383 614 362 c 128,-1,26
 629 341 629 341 625 313 c 0,27,28
 616 253 616 253 590.5 195.5 c 128,-1,29
 565 138 565 138 522.5 91.5 c 128,-1,30
 480 45 480 45 419.5 17.5 c 128,-1,31
 359 -10 359 -10 279 -10 c 0,0,1
635 -2 m 0,32,33
 623 -2 623 -2 614.5 1 c 128,-1,34
 606 4 606 4 601 8 c 0,35,36
 529 70 529 70 469.5 122.5 c 128,-1,37
 410 175 410 175 360 223 c 128,-1,38
 310 271 310 271 266 321 c 0,39,40
 231 361 231 361 202 393 c 128,-1,41
 173 425 173 425 155.5 455.5 c 128,-1,42
 138 486 138 486 138 523 c 0,43,44
 138 572 138 572 164.5 614.5 c 128,-1,45
 191 657 191 657 240 683.5 c 128,-1,46
 289 710 289 710 356 710 c 0,47,48
 425 710 425 710 480.5 687 c 128,-1,49
 536 664 536 664 555 626 c 0,50,51
 556 625 556 625 560 613.5 c 128,-1,52
 564 602 564 602 564 587 c 0,53,54
 564 568 564 568 550 554 c 128,-1,55
 536 540 536 540 512 540 c 0,56,57
 496 540 496 540 487 546 c 128,-1,58
 478 552 478 552 473 558 c 0,59,60
 451 587 451 587 422.5 598.5 c 128,-1,61
 394 610 394 610 356 610 c 0,62,63
 311 610 311 610 287.5 586 c 128,-1,64
 264 562 264 562 264 529 c 0,65,66
 264 498 264 498 286 467.5 c 128,-1,67
 308 437 308 437 336.5 410 c 128,-1,68
 365 383 365 383 384 362 c 0,69,70
 415 329 415 329 453.5 291.5 c 128,-1,71
 492 254 492 254 531 218.5 c 128,-1,72
 570 183 570 183 603.5 152.5 c 128,-1,73
 637 122 637 122 658 102 c 0,74,75
 671 90 671 90 677.5 78 c 128,-1,76
 684 66 684 66 684 49 c 0,77,78
 684 36 684 36 672.5 17 c 128,-1,79
 661 -2 661 -2 635 -2 c 0,32,33
EndSplineSet
EndChar

StartChar: paragraph
Encoding: 182 182 663
Width: 632
Flags: W
LayerCount: 2
Fore
SplineSet
508 0 m 0,0,1
 495 0 495 0 478.5 10.5 c 128,-1,2
 462 21 462 21 462 46 c 2,3,-1
 462 655 l 1,4,-1
 476 625 l 1,5,-1
 389 625 l 1,6,-1
 399 644 l 1,7,-1
 399 71 l 2,8,9
 399 22 399 22 380 -7.5 c 128,-1,10
 361 -37 361 -37 330.5 -50 c 128,-1,11
 300 -63 300 -63 264 -63 c 0,12,13
 245 -63 245 -63 224 -59.5 c 128,-1,14
 203 -56 203 -56 188 -48 c 256,15,16
 173 -40 173 -40 165 -22.5 c 128,-1,17
 157 -5 157 -5 167 14 c 0,18,19
 175 30 175 30 189 34 c 128,-1,20
 203 38 203 38 214 35 c 0,21,22
 226 32 226 32 237.5 29.5 c 128,-1,23
 249 27 249 27 259 27 c 0,24,25
 282 27 282 27 295.5 42 c 128,-1,26
 309 57 309 57 309 91 c 2,27,-1
 309 323 l 1,28,-1
 335 285 l 1,29,-1
 249 285 l 2,30,31
 176 285 176 285 128.5 306.5 c 128,-1,32
 81 328 81 328 58 373 c 128,-1,33
 35 418 35 418 35 486 c 0,34,35
 35 561 35 561 63 608 c 128,-1,36
 91 655 91 655 148.5 677.5 c 128,-1,37
 206 700 206 700 292 700 c 2,38,-1
 511 700 l 2,39,40
 529 700 529 700 540.5 688.5 c 128,-1,41
 552 677 552 677 552 659 c 2,42,-1
 552 46 l 2,43,44
 552 21 552 21 537 10.5 c 128,-1,45
 522 0 522 0 508 0 c 0,0,1
EndSplineSet
EndChar

StartChar: section
Encoding: 167 167 664
Width: 559
Flags: W
LayerCount: 2
Fore
SplineSet
529 278 m 0,0,1
 523 196 523 196 465.5 162 c 128,-1,2
 408 128 408 128 301 123 c 1,3,-1
 393 196 l 1,4,5
 443 165 443 165 469 134.5 c 128,-1,6
 495 104 495 104 495 49 c 0,7,8
 495 32 495 32 486.5 1 c 128,-1,9
 478 -30 478 -30 456 -62.5 c 128,-1,10
 434 -95 434 -95 392 -117.5 c 128,-1,11
 350 -140 350 -140 282 -140 c 0,12,13
 242 -140 242 -140 197.5 -131 c 128,-1,14
 153 -122 153 -122 114.5 -105 c 128,-1,15
 76 -88 76 -88 55 -64 c 0,16,17
 42 -50 42 -50 35.5 -33 c 128,-1,18
 29 -16 29 -16 30 5 c 0,19,20
 32 27 32 27 48.5 41.5 c 128,-1,21
 65 56 65 56 88 56 c 0,22,23
 96 56 96 56 109 52.5 c 128,-1,24
 122 49 122 49 137 32 c 0,25,26
 151 16 151 16 168 2 c 128,-1,27
 185 -12 185 -12 212 -20.5 c 128,-1,28
 239 -29 239 -29 282 -29 c 0,29,30
 300 -29 300 -29 316.5 -26 c 128,-1,31
 333 -23 333 -23 346 -16.5 c 128,-1,32
 359 -10 359 -10 366 0 c 128,-1,33
 373 10 373 10 373 23 c 0,34,35
 373 46 373 46 349.5 61 c 128,-1,36
 326 76 326 76 286 87 c 128,-1,37
 246 98 246 98 198 109 c 0,38,39
 118 127 118 127 79 169.5 c 128,-1,40
 40 212 40 212 40 276 c 0,41,42
 40 289 40 289 44.5 313.5 c 128,-1,43
 49 338 49 338 64.5 364.5 c 128,-1,44
 80 391 80 391 111.5 411 c 128,-1,45
 143 431 143 431 197 435 c 1,46,-1
 182 377 l 1,47,48
 127 401 127 401 107.5 436 c 128,-1,49
 88 471 88 471 88 511 c 0,50,51
 88 565 88 565 109.5 604.5 c 128,-1,52
 131 644 131 644 165.5 669 c 128,-1,53
 200 694 200 694 239.5 705 c 128,-1,54
 279 716 279 716 315 714 c 0,55,56
 374 710 374 710 419 686.5 c 128,-1,57
 464 663 464 663 496 619 c 0,58,59
 503 610 503 610 503 587 c 0,60,61
 503 565 503 565 487.5 547.5 c 128,-1,62
 472 530 472 530 440 532 c 0,63,64
 433 532 433 532 426 539 c 0,65,66
 400 568 400 568 367 582.5 c 128,-1,67
 334 597 334 597 299 597 c 0,68,69
 272 597 272 597 252 588.5 c 128,-1,70
 232 580 232 580 221 565.5 c 128,-1,71
 210 551 210 551 210 532 c 256,72,73
 210 513 210 513 223 499 c 128,-1,74
 236 485 236 485 256 475 c 128,-1,75
 276 465 276 465 299 458.5 c 128,-1,76
 322 452 322 452 343 448 c 0,77,78
 441 429 441 429 487.5 385.5 c 128,-1,79
 534 342 534 342 529 278 c 0,0,1
232 232 m 2,80,-1
 340 205 l 2,81,82
 359 204 359 204 374 210.5 c 128,-1,83
 389 217 389 217 398 230 c 128,-1,84
 407 243 407 243 407 261 c 0,85,86
 407 278 407 278 397.5 289.5 c 128,-1,87
 388 301 388 301 371 307 c 2,88,-1
 247 339 l 2,89,90
 231 345 231 345 213.5 341.5 c 128,-1,91
 196 338 196 338 184.5 325 c 128,-1,92
 173 312 173 312 173 289 c 0,93,94
 173 279 173 279 182.5 262.5 c 128,-1,95
 192 246 192 246 232 232 c 2,80,-1
EndSplineSet
EndChar

